{
.appVersion = "3095";
DisplayStrings = (
a,
Black
);
classes = (
{
automatic = 1;
code = "A Aacute Abreve Abreveacute Abrevedotbelow Abrevegrave Abrevehookabove Abrevetilde Acircumflex Acircumflexacute Acircumflexdotbelow Acircumflexgrave Acircumflexhookabove Acircumflextilde Adieresis Adotbelow Agrave Ahookabove Amacron Aogonek Aring Atilde AE B C Cacute Ccaron Ccedilla Cdotaccent D Eth Dcaron Dcroat E Eacute Ecaron Ecircumflex Ecircumflexacute Ecircumflexdotbelow Ecircumflexgrave Ecircumflexhookabove Ecircumflextilde Edieresis Edotaccent Edotbelow Egrave Ehookabove Emacron Eogonek Etilde F G Gbreve Gcaron Gdotaccent Gmacron H Hbar I Iacute Icircumflex Idieresis Idotaccent Idotbelow Igrave Ihookabove Imacron Iogonek Itilde J K L Lacute Lcaron Lslash M N Nacute Ncaron Ntilde O Oacute Ocircumflex Ocircumflexacute Ocircumflexdotbelow Ocircumflexgrave Ocircumflexhookabove Ocircumflextilde Odieresis Odotbelow Ograve Ohookabove Ohorn Ohornacute Ohorndotbelow Ohorngrave Ohornhookabove Ohorntilde Ohungarumlaut Omacron Oslash Otilde OE P Thorn Q R Racute Rcaron S Sacute Scaron Scedilla Germandbls T Tbar Tcaron Tcedilla U Uacute Ucircumflex Udieresis Udotbelow Ugrave Uhookabove Uhorn Uhornacute Uhorndotbelow Uhorngrave Uhornhookabove Uhorntilde Uhungarumlaut Umacron Uogonek Uring Utilde V W Wacute Wcircumflex Wdieresis Wgrave X Y Yacute Ycircumflex Ydieresis Ydotbelow Ygrave Yhookabove Ytilde Z Zacute Zcaron Zdotaccent";
name = Uppercase;
},
{
automatic = 1;

glyphs = (
{
glyphname = A;
lastChange = "2021-03-31 02:57:40 +0000";
layers = (
{
anchors = (
{
name = bottom;
position = "{396, 0}";
},
{
name = ogonek;
position = "{771, 0}";
},
{
name = top;
position = "{396, 740}";
}
);
guideLines = (
{
angle = 90;
position = "{346, 582}";
}
);
layerId = "D085834A-C5B8-45AD-B7CB-7C394966C9BB";
paths = (
{
closed = 1;
nodes = (
"220 0 LINE",
"258.902 124 LINE",
"532.319 124 LINE",
"571 0 LINE",
"771 0 LINE",
"525 740 LINE",
"266 740 LINE",
"20 0 LINE"
);
},
{
closed = 1;
nodes = (
"396 561 LINE",
"481.16 288 LINE",
"310.353 288 LINE"
);
}
);
width = 791;
},
{
anchors = (
{
name = bottom;
position = "{332, 0}";
},
{
name = ogonek;
position = "{619, 0}";
},
{
name = top;
position = "{332, 740}";
}
);
layerId = "B45F0BEB-E489-4392-AE53-309DD1ADE040";
paths = (
{
closed = 1;
nodes = (
"82 0 LINE",
"161 220 LINE",
"503 220 LINE",
"582 0 LINE",
"619 0 LINE",
"352 740 LINE",
"312 740 LINE",
"45 0 LINE"
);
},
{
closed = 1;
nodes = (
"332 697 LINE",
"492 252 LINE",
"172 252 LINE"
);
}
);
width = 664;
},
{
anchors = (
{
name = bottom;
position = "{368, 0}";
},
{
name = ogonek;
position = "{691, 0}";
},
{
name = top;
position = "{368, 740}";
}
);
layerId = "9D6BE6F2-0D0F-4D93-9FAF-A0B52FAE1934";
paths = (
{
closed = 1;
nodes = (
"149 0 LINE",
"210.725 177 LINE",
"525.275 177 LINE",
"587 0 LINE",
"691 0 LINE",
"429 740 LINE",
"306 740 LINE",
"45 0 LINE"
);
},
{
closed = 1;
nodes = (
"368 628 LINE",
"494.588 265 LINE",
"241.412 265 LINE"
);
}
);
width = 736;
}
);
leftKerningGroup = A;
rightKerningGroup = A;
unicode = 0041;
},
{
glyphname = Aacute;
lastChange = "2021-03-14 09:41:58 +0000";
layers = (
{
anchors = (
{
name = bottom;
position = "{396, 0}";
},
{
name = ogonek;
position = "{771, 0}";
},
{
name = top;
position = "{461, 1008}";
}
);
layerId = "D085834A-C5B8-45AD-B7CB-7C394966C9BB";
paths = (
{
closed = 1;
nodes = (
"220 0 LINE",
"259 124 LINE",
"532 124 LINE",
"571 0 LINE",
"771 0 LINE",
"525 740 LINE",
"266 740 LINE",
"20 0 LINE"
);
},
{
closed = 1;
nodes = (
"396 561 LINE",
"481 288 LINE",
"310 288 LINE"
);
},
{
closed = 1;
nodes = (
"578 989 LINE",
"408 989 LINE",
"331 810 LINE",
"464 809 LINE"
);
}
);
width = 791;
},
{
anchors = (
{
name = bottom;
position = "{327, 0}";
},
{
name = ogonek;
position = "{614, 0}";
},
{
name = top;
position = "{378, 980}";
}
);
guideLines = (
{
position = "{451, 805}";
},
{
position = "{451, 769}";
}
);
layerId = "B45F0BEB-E489-4392-AE53-309DD1ADE040";
paths = (
{
closed = 1;
nodes = (
"77 0 LINE",
"156 220 LINE",
"498 220 LINE",
"577 0 LINE",
"614 0 LINE",
"347 740 LINE",
"307 740 LINE",
"40 0 LINE"
);
},
{
closed = 1;
nodes = (
"327 697 LINE",
"487 252 LINE",
"167 252 LINE"
);
},
{
closed = 1;
nodes = (
"441 980 LINE",
"400 980 LINE",
"315 828 LINE",
"349 828 LINE"
);
}
);
width = 654;
},
{
anchors = (
{
name = bottom;
position = "{368, 0}";
},
{
name = ogonek;
position = "{691, 0}";
},
{
name = top;
position = "{421, 991}";
}
);
guideLines = (
{
position = "{451, 805}";
},
{
position = "{451, 769}";
}
);
layerId = "9D6BE6F2-0D0F-4D93-9FAF-A0B52FAE1934";
paths = (
{
closed = 1;
nodes = (
"149 0 LINE",
"211 177 LINE",
"525 177 LINE",
"587 0 LINE",
"691 0 LINE",
"429 740 LINE",
"306 740 LINE",
"45 0 LINE"
);
},
{
closed = 1;
nodes = (
"368 628 LINE",
"495 265 LINE",
"241 265 LINE"
);
},
{
closed = 1;
nodes = (
"511 1001 LINE",
"413 1001 LINE",
"327 821 LINE",
"408 820 LINE"
);
}
);
width = 736;
}
);
leftKerningGroup = A;
rightKerningGroup = A;
unicode = 00C1;
},
{
glyphname = Abreve;
lastChange = "2021-03-14 09:41:58 +0000";
layers = (
{
anchors = (
{
name = bottom;
position = "{396, 0}";
},
{
name = ogonek;
position = "{771, 0}";
},
{
name = top;
position = "{396, 933}";
}
);
layerId = "D085834A-C5B8-45AD-B7CB-7C394966C9BB";
paths = (
{
closed = 1;
nodes = (
"220 0 LINE",
"259 124 LINE",
"532 124 LINE",
"571 0 LINE",
"771 0 LINE",
"525 740 LINE",
"266 740 LINE",
"20 0 LINE"
);
},
{
closed = 1;
nodes = (
"396 561 LINE",
"481 288 LINE",
"310 288 LINE"
);
},
{
closed = 1;
nodes = (
"596 802 OFFCURVE",
"590 968 OFFCURVE",
"590 968 CURVE",
"471 968 LINE",
"471 968 OFFCURVE",
"470 904 OFFCURVE",
"396 904 CURVE SMOOTH",
"322 904 OFFCURVE",
"321 968 OFFCURVE",
"321 968 CURVE",
"202 968 LINE",
"202 968 OFFCURVE",
"196 802 OFFCURVE",
"396 802 CURVE SMOOTH"
);
}
);
width = 791;
},
{
anchors = (
{
name = bottom;
position = "{327, 0}";
},
{
name = ogonek;
position = "{614, 0}";
},
{
name = top;
position = "{327, 868}";
}
);
layerId = "B45F0BEB-E489-4392-AE53-309DD1ADE040";
paths = (
{
closed = 1;
nodes = (
"77 0 LINE",
"156 220 LINE",
"498 220 LINE",
"577 0 LINE",
"614 0 LINE",
"347 740 LINE",
"307 740 LINE",
"40 0 LINE"
);
},
{
closed = 1;
nodes = (
"327 697 LINE",
"487 252 LINE",
"167 252 LINE"
);
},
{
closed = 1;
nodes = (
"453 823 OFFCURVE",
"461 933 OFFCURVE",
"461 933 CURVE",
"430 933 LINE",
"430 933 OFFCURVE",
"423 852 OFFCURVE",
"327 852 CURVE SMOOTH",
"231 852 OFFCURVE",
"224 933 OFFCURVE",
"224 933 CURVE",
"193 933 LINE",
"193 933 OFFCURVE",
"201 823 OFFCURVE",
"327 823 CURVE SMOOTH"
);
}
);
width = 654;
},
{
anchors = (
{
name = bottom;
position = "{368, 0}";
},
{
name = ogonek;
position = "{691, 0}";
},
{
name = top;
position = "{368, 905}";
}
);
layerId = "9D6BE6F2-0D0F-4D93-9FAF-A0B52FAE1934";
paths = (
{
closed = 1;
nodes = (
"149 0 LINE",
"211 177 LINE",
"525 177 LINE",
"587 0 LINE",
"691 0 LINE",
"429 740 LINE",
"306 740 LINE",
"45 0 LINE"
);
},
{
closed = 1;
nodes = (
"368 628 LINE",
"495 265 LINE",
"241 265 LINE"
);
},
{
closed = 1;
nodes = (
"525 815 OFFCURVE",
"528 957 OFFCURVE",
"528 957 CURVE",
"457 957 LINE",
"457 957 OFFCURVE",
"452 878 OFFCURVE",
"368 878 CURVE SMOOTH",
"284 878 OFFCURVE",
"279 957 OFFCURVE",
"279 957 CURVE",
"208 957 LINE",
"208 957 OFFCURVE",
"211 815 OFFCURVE",
"368 815 CURVE SMOOTH"
);
}
);
width = 736;
}
);
leftKerningGroup = A;
rightKerningGroup = A;
unicode = 0102;
},
{
glyphname = Abreveacute;
lastChange = "2021-03-14 09:41:58 +0000";
layers = (
{
anchors = (
{
name = bottom;
position = "{396, 0}";
},
{
name = ogonek;
position = "{771, 0}";
},
{
name = top;
position = "{396, 1233}";
}
);
layerId = "D085834A-C5B8-45AD-B7CB-7C394966C9BB";
paths = (
{
closed = 1;
nodes = (
"220 0 LINE",
"259 124 LINE",
"532 124 LINE",
"571 0 LINE",
"771 0 LINE",
"525 740 LINE",
"266 740 LINE",
"20 0 LINE"
);
},
{
closed = 1;
nodes = (
"396 561 LINE",
"481 288 LINE",
"310 288 LINE"
);
},
{
closed = 1;
nodes = (
"596 802 OFFCURVE",
"590 968 OFFCURVE",
"590 968 CURVE",
"471 968 LINE",
"471 968 OFFCURVE",
"470 904 OFFCURVE",
"396 904 CURVE SMOOTH",
"322 904 OFFCURVE",
"321 968 OFFCURVE",
"321 968 CURVE",
"202 968 LINE",
"202 968 OFFCURVE",
"196 802 OFFCURVE",
"396 802 CURVE SMOOTH"
);
},
{
closed = 1;
nodes = (
"578 1182 LINE",
"408 1182 LINE",
"331 1003 LINE",
"464 1002 LINE"
);
}
);
width = 791;
},
{
anchors = (
{
name = bottom;
position = "{327, 0}";
},
{
name = ogonek;
position = "{614, 0}";
},
{
name = top;
position = "{327, 1141}";
}
);
layerId = "B45F0BEB-E489-4392-AE53-309DD1ADE040";
paths = (
{
closed = 1;
nodes = (
"77 0 LINE",
"156 220 LINE",
"498 220 LINE",
"577 0 LINE",
"614 0 LINE",
"347 740 LINE",
"307 740 LINE",
"40 0 LINE"
);
},
{
closed = 1;
nodes = (
"327 697 LINE",
"487 252 LINE",
"167 252 LINE"
);
},
{
closed = 1;
nodes = (
"453 823 OFFCURVE",
"461 933 OFFCURVE",
"461 933 CURVE",
"430 933 LINE",
"430 933 OFFCURVE",
"423 852 OFFCURVE",
"327 852 CURVE SMOOTH",
"231 852 OFFCURVE",
"224 933 OFFCURVE",
"224 933 CURVE",
"193 933 LINE",
"193 933 OFFCURVE",
"201 823 OFFCURVE",
"327 823 CURVE SMOOTH"
);
},
{
closed = 1;
nodes = (
"441 1108 LINE",
"400 1108 LINE",
"315 956 LINE",
"349 956 LINE"
);
}
);
width = 654;
},
{
anchors = (
{
name = bottom;
position = "{368, 0}";
},
{
name = ogonek;
position = "{691, 0}";
},
{
name = top;
position = "{368, 1141}";
}
);
layerId = "9D6BE6F2-0D0F-4D93-9FAF-A0B52FAE1934";
paths = (
{
closed = 1;
nodes = (
"149 0 LINE",
"211 177 LINE",
"525 177 LINE",
"587 0 LINE",
"691 0 LINE",
"429 740 LINE",
"306 740 LINE",
"45 0 LINE"
);
},
{
closed = 1;
nodes = (
"368 628 LINE",
"495 265 LINE",
"241 265 LINE"
);
},
{
closed = 1;
nodes = (
"525 815 OFFCURVE",
"528 957 OFFCURVE",
"528 957 CURVE",
"457 957 LINE",
"457 957 OFFCURVE",
"452 878 OFFCURVE",
"368 878 CURVE SMOOTH",
"284 878 OFFCURVE",
"279 957 OFFCURVE",
"279 957 CURVE",
"208 957 LINE",
"208 957 OFFCURVE",
"211 815 OFFCURVE",
"368 815 CURVE SMOOTH"
);
},
{
closed = 1;
nodes = (
"511 1166 LINE",
"413 1166 LINE",
"327 986 LINE",
"408 985 LINE"
);
}
);
width = 736;
}
);
leftKerningGroup = A;
rightKerningGroup = A;
unicode = 1EAE;
},
{
glyphname = Abrevedotbelow;
lastChange = "2021-05-04 15:46:38 +0000";
layers = (
{
anchors = (
{
name = bottom;
position = "{396, -274}";
},
{
name = ogonek;
position = "{771, 0}";
},
{
name = top;
position = "{396, 957}";
}
);
layerId = "D085834A-C5B8-45AD-B7CB-7C394966C9BB";
paths = (
{
closed = 1;
nodes = (
"220 0 LINE",
"259 124 LINE",
"532 124 LINE",
"571 0 LINE",
"771 0 LINE",
"525 740 LINE",
"266 740 LINE",
"20 0 LINE"
);
},
{
closed = 1;
nodes = (
"396 561 LINE",
"481 288 LINE",
"310 288 LINE"
);
},
{
closed = 1;
nodes = (
"446.9 -260 OFFCURVE",
"484.7 -219.5 OFFCURVE",
"484.7 -170.9 CURVE SMOOTH",
"484.7 -121.4 OFFCURVE",
"446.9 -81.8 OFFCURVE",
"395.6 -81.8 CURVE SMOOTH",
"343.4 -81.8 OFFCURVE",
"306.5 -121.4 OFFCURVE",
"306.5 -170.9 CURVE SMOOTH",
"306.5 -219.5 OFFCURVE",
"343.4 -260 OFFCURVE",
"395.6 -260 CURVE SMOOTH"
);
},
{
closed = 1;
nodes = (
"596 802 OFFCURVE",
"590 968 OFFCURVE",
"590 968 CURVE",
"471 968 LINE",
"471 968 OFFCURVE",
"470 904 OFFCURVE",
"396 904 CURVE SMOOTH",
"322 904 OFFCURVE",
"321 968 OFFCURVE",
"321 968 CURVE",
"202 968 LINE",
"202 968 OFFCURVE",
"196 802 OFFCURVE",
"396 802 CURVE SMOOTH"
);
}
);
width = 791;
},
{
anchors = (
{
name = bottom;
position = "{327, -200}";
},
{
name = ogonek;
position = "{614, 0}";
},
{
name = top;
position = "{327, 888}";
}
);
layerId = "B45F0BEB-E489-4392-AE53-309DD1ADE040";
paths = (
{
closed = 1;
nodes = (
"77 0 LINE",
"156 220 LINE",
"498 220 LINE",
"577 0 LINE",
"614 0 LINE",
"347 740 LINE",
"307 740 LINE",
"40 0 LINE"
);
},
{
closed = 1;
nodes = (
"327 697 LINE",
"487 252 LINE",
"167 252 LINE"
);
},
{
closed = 1;
nodes = (
"347 -192 OFFCURVE",
"364 -175 OFFCURVE",
"364 -154 CURVE SMOOTH",
"364 -134 OFFCURVE",
"347 -117 OFFCURVE",
"326 -117 CURVE SMOOTH",
"305 -117 OFFCURVE",
"289 -134 OFFCURVE",
"289 -154 CURVE SMOOTH",
"289 -175 OFFCURVE",
"305 -192 OFFCURVE",
"326 -192 CURVE SMOOTH"
);
},
{
closed = 1;
nodes = (
"453 823 OFFCURVE",
"461 933 OFFCURVE",
"461 933 CURVE",
"430 933 LINE",
"430 933 OFFCURVE",
"423 852 OFFCURVE",
"327 852 CURVE SMOOTH",
"231 852 OFFCURVE",
"224 933 OFFCURVE",
"224 933 CURVE",
"193 933 LINE",
"193 933 OFFCURVE",
"201 823 OFFCURVE",
"327 823 CURVE SMOOTH"
);
}
);
width = 654;
},
{
anchors = (
{
name = bottom;
position = "{368, -250}";
},
{
name = ogonek;
position = "{691, 0}";
},
{
name = top;
position = "{368, 915}";
}
);
layerId = "9D6BE6F2-0D0F-4D93-9FAF-A0B52FAE1934";
paths = (
{
closed = 1;
nodes = (
"149 0 LINE",
"211 177 LINE",
"525 177 LINE",
"587 0 LINE",
"691 0 LINE",
"429 740 LINE",
"306 740 LINE",
"45 0 LINE"
);
},
{
closed = 1;
nodes = (
"368 628 LINE",
"495 265 LINE",
"241 265 LINE"
);
},
{
closed = 1;
nodes = (
"405 -227 OFFCURVE",
"433 -198 OFFCURVE",
"433 -162 CURVE SMOOTH",
"433 -126 OFFCURVE",
"405 -97 OFFCURVE",
"368 -97 CURVE SMOOTH",
"330 -97 OFFCURVE",
"303 -126 OFFCURVE",
"303 -162 CURVE SMOOTH",
"303 -197 OFFCURVE",
"330 -227 OFFCURVE",
"368 -227 CURVE SMOOTH"
);
},
{
closed = 1;
nodes = (
"525 815 OFFCURVE",
"528 957 OFFCURVE",
"528 957 CURVE",
"457 957 LINE",
"457 957 OFFCURVE",
"452 878 OFFCURVE",
"368 878 CURVE SMOOTH",
"284 878 OFFCURVE",
"279 957 OFFCURVE",
"279 957 CURVE",
"208 957 LINE",
"208 957 OFFCURVE",
"211 815 OFFCURVE",
"368 815 CURVE SMOOTH"
);
}
);
width = 736;
}
);
leftKerningGroup = A;
rightKerningGroup = A;
unicode = 1EB6;
},
{
glyphname = Abrevegrave;
lastChange = "2021-03-14 09:41:58 +0000";
layers = (
{
anchors = (
{
name = bottom;
position = "{396, 0}";
},
{
name = ogonek;
position = "{771, 0}";
},
{
name = top;
position = "{396, 1233}";
}
);
layerId = "D085834A-C5B8-45AD-B7CB-7C394966C9BB";
paths = (
{
closed = 1;
nodes = (
"220 0 LINE",
"259 124 LINE",
"532 124 LINE",
"571 0 LINE",
"771 0 LINE",
"525 740 LINE",
"266 740 LINE",
"20 0 LINE"
);
},
{
closed = 1;
nodes = (
"396 561 LINE",
"481 288 LINE",
"310 288 LINE"
);
},
{
closed = 1;
nodes = (
"596 802 OFFCURVE",
"590 968 OFFCURVE",
"590 968 CURVE",
"471 968 LINE",
"471 968 OFFCURVE",
"470 904 OFFCURVE",
"396 904 CURVE SMOOTH",
"322 904 OFFCURVE",
"321 968 OFFCURVE",
"321 968 CURVE",
"202 968 LINE",
"202 968 OFFCURVE",
"196 802 OFFCURVE",
"396 802 CURVE SMOOTH"
);
},
{
closed = 1;
nodes = (
"464 1003 LINE",
"387 1182 LINE",
"217 1182 LINE",
"331 1002 LINE"
);
}
);
width = 791;
},
{
anchors = (
{
name = bottom;
position = "{327, 0}";
},
{
name = ogonek;
position = "{614, 0}";
},
{
name = top;
position = "{327, 1141}";
}
);
layerId = "B45F0BEB-E489-4392-AE53-309DD1ADE040";
paths = (
{
closed = 1;
nodes = (
"77 0 LINE",
"156 220 LINE",
"498 220 LINE",
"577 0 LINE",
"614 0 LINE",
"347 740 LINE",
"307 740 LINE",
"40 0 LINE"
);
},
{
closed = 1;
nodes = (
"327 697 LINE",
"487 252 LINE",
"167 252 LINE"
);
},
{
closed = 1;
nodes = (
"453 823 OFFCURVE",
"461 933 OFFCURVE",
"461 933 CURVE",
"430 933 LINE",
"430 933 OFFCURVE",
"423 852 OFFCURVE",
"327 852 CURVE SMOOTH",
"231 852 OFFCURVE",
"224 933 OFFCURVE",
"224 933 CURVE",
"193 933 LINE",
"193 933 OFFCURVE",
"201 823 OFFCURVE",
"327 823 CURVE SMOOTH"
);
},
{
closed = 1;
nodes = (
"341 956 LINE",
"256 1108 LINE",
"215 1108 LINE",
"307 956 LINE"
);
}
);
width = 654;
},
{
anchors = (
{
name = bottom;
position = "{368, 0}";
},
{
name = ogonek;
position = "{691, 0}";
},
{
name = top;
position = "{368, 1141}";
}
);
layerId = "9D6BE6F2-0D0F-4D93-9FAF-A0B52FAE1934";
paths = (
{
closed = 1;
nodes = (
"149 0 LINE",
"211 177 LINE",
"525 177 LINE",
"587 0 LINE",
"691 0 LINE",
"429 740 LINE",
"306 740 LINE",
"45 0 LINE"
);
},
{
closed = 1;
nodes = (
"368 628 LINE",
"495 265 LINE",
"241 265 LINE"
);
},
{
closed = 1;
nodes = (
"523 815 OFFCURVE",
"526 957 OFFCURVE",
"526 957 CURVE",
"455 957 LINE",
"455 957 OFFCURVE",
"450 878 OFFCURVE",
"366 878 CURVE SMOOTH",
"282 878 OFFCURVE",
"277 957 OFFCURVE",
"277 957 CURVE",
"206 957 LINE",
"206 957 OFFCURVE",
"209 815 OFFCURVE",
"366 815 CURVE SMOOTH"
);
},
{
closed = 1;
nodes = (
"411 986 LINE",
"325 1166 LINE",
"227 1166 LINE",
"330 985 LINE"
);
}
);
width = 736;
}
);
leftKerningGroup = A;
rightKerningGroup = A;
unicode = 1EB0;
},
{
glyphname = Abrevehookabove;
lastChange = "2021-03-14 09:41:58 +0000";
layers = (
{
anchors = (
{
name = bottom;
position = "{396, 0}";
},
{
name = ogonek;
position = "{771, 0}";
},
{
name = top;
position = "{396, 1247}";
}
);
layerId = "D085834A-C5B8-45AD-B7CB-7C394966C9BB";
paths = (
{
closed = 1;
nodes = (
"220 0 LINE",
"259 124 LINE",
"532 124 LINE",
"571 0 LINE",
"771 0 LINE",
"525 740 LINE",
"266 740 LINE",
"20 0 LINE"
);
},
{
closed = 1;
nodes = (
"396 561 LINE",
"481 288 LINE",
"310 288 LINE"
);
},
{
closed = 1;
nodes = (
"596 802 OFFCURVE",
"590 968 OFFCURVE",
"590 968 CURVE",
"471 968 LINE",
"471 968 OFFCURVE",
"470 904 OFFCURVE",
"396 904 CURVE SMOOTH",
"322 904 OFFCURVE",
"321 968 OFFCURVE",
"321 968 CURVE",
"202 968 LINE",
"202 968 OFFCURVE",
"196 802 OFFCURVE",
"396 802 CURVE SMOOTH"
);
},
{
closed = 1;
nodes = (
"448 988 LINE",
"448 1059 LINE",
"410 994 LINE",
"453 1018 LINE SMOOTH",
"497 1042 OFFCURVE",
"539 1071 OFFCURVE",
"539 1125 CURVE SMOOTH",
"539 1186 OFFCURVE",
"485 1239 OFFCURVE",
"397 1239 CURVE SMOOTH",
"299 1239 OFFCURVE",
"261 1169 OFFCURVE",
"263 1113 CURVE",
"364 1113 LINE",
"364 1113 OFFCURVE",
"364 1150 OFFCURVE",
"399 1150 CURVE SMOOTH",
"418 1150 OFFCURVE",
"431 1137 OFFCURVE",
"431 1121 CURVE SMOOTH",
"431 1099 OFFCURVE",
"415 1089 OFFCURVE",
"390 1076 CURVE SMOOTH",
"374 1068 LINE SMOOTH",
"354 1058 OFFCURVE",
"346 1041 OFFCURVE",
"346 1021 CURVE SMOOTH",
"346 988 LINE"
);
}
);
width = 791;
},
{
anchors = (
{
name = bottom;
position = "{327, 0}";
},
{
name = ogonek;
position = "{614, 0}";
},
{
name = top;
position = "{327, 1118}";
}
);
layerId = "B45F0BEB-E489-4392-AE53-309DD1ADE040";
paths = (
{
closed = 1;
nodes = (
"77 0 LINE",
"156 220 LINE",
"498 220 LINE",
"577 0 LINE",
"614 0 LINE",
"347 740 LINE",
"307 740 LINE",
"40 0 LINE"
);
},
{
closed = 1;
nodes = (
"327 697 LINE",
"487 252 LINE",
"167 252 LINE"
);
},
{
closed = 1;
nodes = (
"453 823 OFFCURVE",
"461 933 OFFCURVE",
"461 933 CURVE",
"430 933 LINE",
"430 933 OFFCURVE",
"423 852 OFFCURVE",
"327 852 CURVE SMOOTH",
"231 852 OFFCURVE",
"224 933 OFFCURVE",
"224 933 CURVE",
"193 933 LINE",
"193 933 OFFCURVE",
"201 823 OFFCURVE",
"327 823 CURVE SMOOTH"
);
},
{
closed = 1;
nodes = (
"343 942 LINE",
"343 993 LINE",
"320 966 LINE",
"344 977 LINE SMOOTH",
"399 1002 OFFCURVE",
"417 1032 OFFCURVE",
"417 1062 CURVE SMOOTH",
"417 1103 OFFCURVE",
"386 1133 OFFCURVE",
"335 1133 CURVE SMOOTH",
"284 1133 OFFCURVE",
"253 1103 OFFCURVE",
"253 1056 CURVE",
"282 1056 LINE",
"282 1079 OFFCURVE",
"293 1105 OFFCURVE",
"335 1105 CURVE SMOOTH",
"374 1105 OFFCURVE",
"387 1081 OFFCURVE",
"387 1061 CURVE SMOOTH",
"387 1035 OFFCURVE",
"368 1016 OFFCURVE",
"340 1002 CURVE SMOOTH",
"328 996 LINE SMOOTH",
"319 992 OFFCURVE",
"315 984 OFFCURVE",
"315 974 CURVE SMOOTH",
"315 942 LINE"
);
}
);
width = 654;
},
{
anchors = (
{
name = bottom;
position = "{368, 0}";
},
{
name = ogonek;
position = "{691, 0}";
},
{
name = top;
position = "{368, 1118}";
}
);
layerId = "9D6BE6F2-0D0F-4D93-9FAF-A0B52FAE1934";
paths = (
{
closed = 1;
nodes = (
"149 0 LINE",
"211 177 LINE",
"525 177 LINE",
"587 0 LINE",
"691 0 LINE",
"429 740 LINE",
"306 740 LINE",
"45 0 LINE"
);
},
{
closed = 1;
nodes = (
"368 628 LINE",
"495 265 LINE",
"241 265 LINE"
);
},
{
closed = 1;
nodes = (
"523 815 OFFCURVE",
"526 957 OFFCURVE",
"526 957 CURVE",
"455 957 LINE",
"455 957 OFFCURVE",
"450 878 OFFCURVE",
"366 878 CURVE SMOOTH",
"282 878 OFFCURVE",
"277 957 OFFCURVE",
"277 957 CURVE",
"206 957 LINE",
"206 957 OFFCURVE",
"209 815 OFFCURVE",
"366 815 CURVE SMOOTH"
);
},
{
closed = 1;
nodes = (
"399 978 LINE",
"399 1038 LINE",
"369 993 LINE",
"403 1009 LINE SMOOTH",
"459 1036 OFFCURVE",
"483 1068 OFFCURVE",
"483 1106 CURVE SMOOTH",
"483 1157 OFFCURVE",
"439 1199 OFFCURVE",
"369 1199 CURVE SMOOTH",
"292 1199 OFFCURVE",
"258 1147 OFFCURVE",
"259 1098 CURVE",
"325 1098 LINE",
"325 1109 OFFCURVE",
"330 1141 OFFCURVE",
"370 1141 CURVE SMOOTH",
"400 1141 OFFCURVE",
"414 1122 OFFCURVE",
"414 1104 CURVE SMOOTH",
"414 1085 OFFCURVE",
"400 1069 OFFCURVE",
"368 1053 CURVE SMOOTH",
"354 1046 LINE SMOOTH",
"338 1038 OFFCURVE",
"334 1023 OFFCURVE",
"334 1010 CURVE SMOOTH",
"334 978 LINE"
);
}
);
width = 736;
}
);
leftKerningGroup = A;
rightKerningGroup = A;
unicode = 1EB2;
},
{
glyphname = Abrevetilde;
lastChange = "2021-03-14 09:41:58 +0000";
layers = (
{
anchors = (
{
name = bottom;
position = "{396, 0}";
},
{
name = ogonek;
position = "{771, 0}";
},
{
name = top;
position = "{396, 1169}";
}
);
layerId = "D085834A-C5B8-45AD-B7CB-7C394966C9BB";
paths = (
{
closed = 1;
nodes = (
"220 0 LINE",
"259 124 LINE",
"532 124 LINE",
"571 0 LINE",
"771 0 LINE",
"525 740 LINE",
"266 740 LINE",
"20 0 LINE"
);
},
{
closed = 1;
nodes = (
"396 561 LINE",
"481 288 LINE",
"310 288 LINE"
);
},
{
closed = 1;
nodes = (
"596 802 OFFCURVE",
"590 968 OFFCURVE",
"590 968 CURVE",
"471 968 LINE",
"471 968 OFFCURVE",
"470 904 OFFCURVE",
"396 904 CURVE SMOOTH",
"322 904 OFFCURVE",
"321 968 OFFCURVE",
"321 968 CURVE",
"202 968 LINE",
"202 968 OFFCURVE",
"196 802 OFFCURVE",
"396 802 CURVE SMOOTH"
);
},
{
closed = 1;
nodes = (
"565 1015 OFFCURVE",
"582 1105 OFFCURVE",
"582 1174 CURVE",
"489 1174 LINE",
"489 1140 OFFCURVE",
"483 1121 OFFCURVE",
"464 1121 CURVE SMOOTH",
"430 1121 OFFCURVE",
"398 1180 OFFCURVE",
"325 1180 CURVE SMOOTH",
"234 1180 OFFCURVE",
"217 1090 OFFCURVE",
"217 1021 CURVE",
"310 1021 LINE",
"310 1055 OFFCURVE",
"316 1074 OFFCURVE",
"336 1074 CURVE SMOOTH",
"372 1074 OFFCURVE",
"401 1015 OFFCURVE",
"474 1015 CURVE SMOOTH"
);
}
);
width = 791;
},
{
anchors = (
{
name = bottom;
position = "{327, 0}";
},
{
name = ogonek;
position = "{614, 0}";
},
{
name = top;
position = "{327, 1061}";
}
);
layerId = "B45F0BEB-E489-4392-AE53-309DD1ADE040";
paths = (
{
closed = 1;
nodes = (
"77 0 LINE",
"156 220 LINE",
"498 220 LINE",
"577 0 LINE",
"614 0 LINE",
"347 740 LINE",
"307 740 LINE",
"40 0 LINE"
);
},
{
closed = 1;
nodes = (
"327 697 LINE",
"487 252 LINE",
"167 252 LINE"
);
},
{
closed = 1;
nodes = (
"453 823 OFFCURVE",
"461 933 OFFCURVE",
"461 933 CURVE",
"430 933 LINE",
"430 933 OFFCURVE",
"423 852 OFFCURVE",
"327 852 CURVE SMOOTH",
"231 852 OFFCURVE",
"224 933 OFFCURVE",
"224 933 CURVE",
"193 933 LINE",
"193 933 OFFCURVE",
"201 823 OFFCURVE",
"327 823 CURVE SMOOTH"
);
},
{
closed = 1;
nodes = (
"431 979 OFFCURVE",
"451 1026 OFFCURVE",
"451 1084 CURVE",
"421 1084 LINE",
"421 1037 OFFCURVE",
"411 1008 OFFCURVE",
"386 1008 CURVE SMOOTH",
"346 1008 OFFCURVE",
"332 1089 OFFCURVE",
"268 1089 CURVE SMOOTH",
"221 1089 OFFCURVE",
"202 1042 OFFCURVE",
"202 984 CURVE",
"232 984 LINE",
"232 1032 OFFCURVE",
"242 1060 OFFCURVE",
"268 1060 CURVE SMOOTH",
"311 1060 OFFCURVE",
"326 979 OFFCURVE",
"386 979 CURVE SMOOTH"
);
}
);
width = 654;
},
{
anchors = (
{
name = bottom;
position = "{368, 0}";
},
{
name = ogonek;
position = "{691, 0}";
},
{
name = top;
position = "{368, 1061}";
}
);
layerId = "9D6BE6F2-0D0F-4D93-9FAF-A0B52FAE1934";
paths = (
{
closed = 1;
nodes = (
"149 0 LINE",
"211 177 LINE",
"525 177 LINE",
"587 0 LINE",
"691 0 LINE",
"429 740 LINE",
"306 740 LINE",
"45 0 LINE"
);
},
{
closed = 1;
nodes = (
"368 628 LINE",
"495 265 LINE",
"241 265 LINE"
);
},
{
closed = 1;
nodes = (
"525 815 OFFCURVE",
"528 957 OFFCURVE",
"528 957 CURVE",
"457 957 LINE",
"457 957 OFFCURVE",
"452 878 OFFCURVE",
"368 878 CURVE SMOOTH",
"284 878 OFFCURVE",
"279 957 OFFCURVE",
"279 957 CURVE",
"208 957 LINE",
"208 957 OFFCURVE",
"211 815 OFFCURVE",
"368 815 CURVE SMOOTH"
);
},
{
closed = 1;
nodes = (
"506 1002 OFFCURVE",
"525 1070 OFFCURVE",
"525 1132 CURVE",
"461 1132 LINE",
"461 1095 OFFCURVE",
"451 1072 OFFCURVE",
"430 1072 CURVE SMOOTH",
"394 1072 OFFCURVE",
"374 1137 OFFCURVE",
"301 1137 CURVE SMOOTH",
"230 1137 OFFCURVE",
"211 1070 OFFCURVE",
"211 1008 CURVE",
"275 1008 LINE",
"275 1044 OFFCURVE",
"284 1068 OFFCURVE",
"307 1068 CURVE SMOOTH",
"344 1068 OFFCURVE",
"364 1002 OFFCURVE",
"436 1002 CURVE SMOOTH"
);
}
);
width = 736;
}
);
leftKerningGroup = A;
rightKerningGroup = A;
unicode = 1EB4;
},
{
glyphname = Acircumflex;
lastChange = "2021-03-14 09:41:58 +0000";
layers = (
{
anchors = (
{
name = bottom;
position = "{396, 0}";
},
{
name = ogonek;
position = "{771, 0}";
},
{
name = top;
position = "{600, 860}";
}
);
layerId = "D085834A-C5B8-45AD-B7CB-7C394966C9BB";
paths = (
{
closed = 1;
nodes = (
"220 0 LINE",
"259 124 LINE",
"532 124 LINE",
"571 0 LINE",
"771 0 LINE",
"525 740 LINE",
"266 740 LINE",
"20 0 LINE"
);
},
{
closed = 1;
nodes = (
"396 561 LINE",
"481 288 LINE",
"310 288 LINE"
);
},
{
closed = 1;
nodes = (
"329 799 LINE",
"397 880 LINE",
"464 799 LINE",
"605 799 LINE",
"470 958 LINE",
"323 958 LINE",
"188 799 LINE"
);
}
);
width = 791;
},
{
anchors = (
{
name = bottom;
position = "{327, 0}";
},
{
name = ogonek;
position = "{614, 0}";
},
{
name = top;
position = "{459, 849}";
}
);
layerId = "B45F0BEB-E489-4392-AE53-309DD1ADE040";
paths = (
{
closed = 1;
nodes = (
"77 0 LINE",
"156 220 LINE",
"498 220 LINE",
"577 0 LINE",
"614 0 LINE",
"347 740 LINE",
"307 740 LINE",
"40 0 LINE"
);
},
{
closed = 1;
nodes = (
"327 697 LINE",
"487 252 LINE",
"167 252 LINE"
);
},
{
closed = 1;
nodes = (
"235 818 LINE",
"328 932 LINE",
"420 818 LINE",
"457 818 LINE",
"346 956 LINE",
"309 956 LINE",
"198 818 LINE"
);
}
);
width = 654;
},
{
anchors = (
{
name = bottom;
position = "{368, 0}";
},
{
name = ogonek;
position = "{691, 0}";
},
{
name = top;
position = "{521, 864}";
}
);
layerId = "9D6BE6F2-0D0F-4D93-9FAF-A0B52FAE1934";
paths = (
{
closed = 1;
nodes = (
"149 0 LINE",
"211 177 LINE",
"525 177 LINE",
"587 0 LINE",
"691 0 LINE",
"429 740 LINE",
"306 740 LINE",
"45 0 LINE"
);
},
{
closed = 1;
nodes = (
"368 628 LINE",
"495 265 LINE",
"241 265 LINE"
);
},
{
closed = 1;
nodes = (
"293 816 LINE",
"368 908 LINE",
"444 816 LINE",
"530 816 LINE",
"409 963 LINE",
"328 963 LINE",
"207 816 LINE"
);
}
);
width = 736;
}
);
leftKerningGroup = A;
rightKerningGroup = A;
unicode = 00C2;
},
{
glyphname = Acircumflexacute;
lastChange = "2021-03-14 09:41:58 +0000";
layers = (
{
anchors = (
{
name = bottom;
position = "{396, 0}";
},
{
name = ogonek;
position = "{771, 0}";
},
{
name = top;
position = "{396, 740}";
}
);
layerId = "D085834A-C5B8-45AD-B7CB-7C394966C9BB";
paths = (
{
closed = 1;
nodes = (
"220 0 LINE",
"259 124 LINE",
"532 124 LINE",
"571 0 LINE",
"771 0 LINE",
"525 740 LINE",
"266 740 LINE",
"20 0 LINE"
);
},
{
closed = 1;
nodes = (
"396 561 LINE",
"481 288 LINE",
"310 288 LINE"
);
},
{
closed = 1;
nodes = (
"328 799 LINE",
"396 880 LINE",
"463 799 LINE",
"604 799 LINE",
"469 958 LINE",
"322 958 LINE",
"187 799 LINE"
);
},
{
closed = 1;
nodes = (
"781 1109 LINE",
"611 1109 LINE",
"534 930 LINE",
"667 929 LINE"
);
}
);
width = 791;
},
{
anchors = (
{
name = bottom;
position = "{327, 0}";
},
{
name = ogonek;
position = "{614, 0}";
},
{
name = top;
position = "{327, 740}";
}
);
layerId = "B45F0BEB-E489-4392-AE53-309DD1ADE040";
paths = (
{
closed = 1;
nodes = (
"77 0 LINE",
"156 220 LINE",
"498 220 LINE",
"577 0 LINE",
"614 0 LINE",
"347 740 LINE",
"307 740 LINE",
"40 0 LINE"
);
},
{
closed = 1;
nodes = (
"327 697 LINE",
"487 252 LINE",
"167 252 LINE"
);
},
{
closed = 1;
nodes = (
"237 818 LINE",
"330 932 LINE",
"422 818 LINE",
"459 818 LINE",
"348 956 LINE",
"311 956 LINE",
"200 818 LINE"
);
},
{
closed = 1;
nodes = (
"575 1089 LINE",
"534 1089 LINE",
"449 937 LINE",
"483 937 LINE"
);
}
);
width = 654;
},
{
anchors = (
{
name = bottom;
position = "{368, 0}";
},
{
name = ogonek;
position = "{691, 0}";
},
{
name = top;
position = "{368, 740}";
}
);
layerId = "9D6BE6F2-0D0F-4D93-9FAF-A0B52FAE1934";
paths = (
{
closed = 1;
nodes = (
"149 0 LINE",
"211 177 LINE",
"525 177 LINE",
"587 0 LINE",
"691 0 LINE",
"429 740 LINE",
"306 740 LINE",
"45 0 LINE"
);
},
{
closed = 1;
nodes = (
"368 628 LINE",
"495 265 LINE",
"241 265 LINE"
);
},
{
closed = 1;
nodes = (
"293 816 LINE",
"368 908 LINE",
"444 816 LINE",
"530 816 LINE",
"409 963 LINE",
"328 963 LINE",
"207 816 LINE"
);
},
{
closed = 1;
nodes = (
"664 1125 LINE",
"566 1125 LINE",
"480 945 LINE",
"561 944 LINE"
);
}
);
width = 736;
}
);
leftKerningGroup = A;
rightKerningGroup = A;
unicode = 1EA4;
},
{
glyphname = Acircumflexdotbelow;
lastChange = "2021-03-14 09:41:58 +0000";
layers = (
{
anchors = (
{
name = bottom;
position = "{396, -274}";
},
{
name = ogonek;
position = "{771, 0}";
},
{
name = top;
position = "{600, 860}";
}
);
layerId = "D085834A-C5B8-45AD-B7CB-7C394966C9BB";
paths = (
{
closed = 1;
nodes = (
"220 0 LINE",
"259 124 LINE",
"532 124 LINE",
"571 0 LINE",
"771 0 LINE",
"525 740 LINE",
"266 740 LINE",
"20 0 LINE"
);
},
{
closed = 1;
nodes = (
"396 561 LINE",
"481 288 LINE",
"310 288 LINE"
);
},
{
closed = 1;
nodes = (
"446.9 -260 OFFCURVE",
"484.7 -219.5 OFFCURVE",
"484.7 -170.9 CURVE SMOOTH",
"484.7 -121.4 OFFCURVE",
"446.9 -81.8 OFFCURVE",
"395.6 -81.8 CURVE SMOOTH",
"343.4 -81.8 OFFCURVE",
"306.5 -121.4 OFFCURVE",
"306.5 -170.9 CURVE SMOOTH",
"306.5 -219.5 OFFCURVE",
"343.4 -260 OFFCURVE",
"395.6 -260 CURVE SMOOTH"
);
},
{
closed = 1;
nodes = (
"329 799 LINE",
"397 880 LINE",
"464 799 LINE",
"605 799 LINE",
"470 958 LINE",
"323 958 LINE",
"188 799 LINE"
);
}
);
width = 791;
},
{
anchors = (
{
name = bottom;
position = "{327, -200}";
},
{
name = ogonek;
position = "{614, 0}";
},
{
name = top;
position = "{459, 849}";
}
);
layerId = "B45F0BEB-E489-4392-AE53-309DD1ADE040";
paths = (
{
closed = 1;
nodes = (
"77 0 LINE",
"156 220 LINE",
"498 220 LINE",
"577 0 LINE",
"614 0 LINE",
"347 740 LINE",
"307 740 LINE",
"40 0 LINE"
);
},
{
closed = 1;
nodes = (
"327 697 LINE",
"487 252 LINE",
"167 252 LINE"
);
},
{
closed = 1;
nodes = (
"347 -192 OFFCURVE",
"364 -175 OFFCURVE",
"364 -154 CURVE SMOOTH",
"364 -134 OFFCURVE",
"347 -117 OFFCURVE",
"326 -117 CURVE SMOOTH",
"305 -117 OFFCURVE",
"289 -134 OFFCURVE",
"289 -154 CURVE SMOOTH",
"289 -175 OFFCURVE",
"305 -192 OFFCURVE",
"326 -192 CURVE SMOOTH"
);
},
{
closed = 1;
nodes = (
"235 818 LINE",
"328 932 LINE",
"420 818 LINE",
"457 818 LINE",
"346 956 LINE",
"309 956 LINE",
"198 818 LINE"
);
}
);
width = 654;
},
{
anchors = (
{
name = bottom;
position = "{368, -250}";
},
{
name = ogonek;
position = "{691, 0}";
},
{
name = top;
position = "{521, 864}";
}
);
layerId = "9D6BE6F2-0D0F-4D93-9FAF-A0B52FAE1934";
paths = (
{
closed = 1;
nodes = (
"149 0 LINE",
"211 177 LINE",
"525 177 LINE",
"587 0 LINE",
"691 0 LINE",
"429 740 LINE",
"306 740 LINE",
"45 0 LINE"
);
},
{
closed = 1;
nodes = (
"368 628 LINE",
"495 265 LINE",
"241 265 LINE"
);
},
{
closed = 1;
nodes = (
"405 -227 OFFCURVE",
"433 -198 OFFCURVE",
"433 -162 CURVE SMOOTH",
"433 -126 OFFCURVE",
"405 -97 OFFCURVE",
"368 -97 CURVE SMOOTH",
"330 -97 OFFCURVE",
"303 -126 OFFCURVE",
"303 -162 CURVE SMOOTH",
"303 -197 OFFCURVE",
"330 -227 OFFCURVE",
"368 -227 CURVE SMOOTH"
);
},
{
closed = 1;
nodes = (
"293 816 LINE",
"368 908 LINE",
"444 816 LINE",
"530 816 LINE",
"409 963 LINE",
"328 963 LINE",
"207 816 LINE"
);
}
);
width = 736;
}
);
leftKerningGroup = A;
rightKerningGroup = A;
unicode = 1EAC;
},
{
glyphname = Acircumflexgrave;
lastChange = "2021-03-14 09:41:58 +0000";
layers = (
{
anchors = (
{
name = bottom;
position = "{396, 0}";
},
{
name = ogonek;
position = "{771, 0}";
},
{
name = top;
position = "{404, 1281}";
}
);
layerId = "D085834A-C5B8-45AD-B7CB-7C394966C9BB";
paths = (
{
closed = 1;
nodes = (
"220 0 LINE",
"259 124 LINE",
"532 124 LINE",
"571 0 LINE",
"771 0 LINE",
"525 740 LINE",
"266 740 LINE",
"20 0 LINE"
);
},
{
closed = 1;
nodes = (
"396 561 LINE",
"481 288 LINE",
"310 288 LINE"
);
},
{
closed = 1;
nodes = (
"329 799 LINE",
"397 880 LINE",
"464 799 LINE",
"605 799 LINE",
"470 958 LINE",
"323 958 LINE",
"188 799 LINE"
);
},
{
closed = 1;
nodes = (
"688 930 LINE",
"611 1109 LINE",
"441 1109 LINE",
"555 929 LINE"
);
}
);
width = 791;
},
{
anchors = (
{
name = bottom;
position = "{327, 0}";
},
{
name = ogonek;
position = "{614, 0}";
},
{
name = top;
position = "{352, 1100}";
}
);
layerId = "B45F0BEB-E489-4392-AE53-309DD1ADE040";
paths = (
{
closed = 1;
nodes = (
"77 0 LINE",
"156 220 LINE",
"498 220 LINE",
"577 0 LINE",
"614 0 LINE",
"347 740 LINE",
"307 740 LINE",
"40 0 LINE"
);
},
{
closed = 1;
nodes = (
"327 697 LINE",
"487 252 LINE",
"167 252 LINE"
);
},
{
closed = 1;
nodes = (
"235 818 LINE",
"328 932 LINE",
"420 818 LINE",
"457 818 LINE",
"346 956 LINE",
"309 956 LINE",
"198 818 LINE"
);
},
{
closed = 1;
nodes = (
"488 937 LINE",
"403 1089 LINE",
"362 1089 LINE",
"454 937 LINE"
);
}
);
width = 654;
},
{
anchors = (
{
name = bottom;
position = "{368, 0}";
},
{
name = ogonek;
position = "{691, 0}";
},
{
name = top;
position = "{383, 1100}";
}
);
layerId = "9D6BE6F2-0D0F-4D93-9FAF-A0B52FAE1934";
paths = (
{
closed = 1;
nodes = (
"149 0 LINE",
"211 177 LINE",
"525 177 LINE",
"587 0 LINE",
"691 0 LINE",
"429 740 LINE",
"306 740 LINE",
"45 0 LINE"
);
},
{
closed = 1;
nodes = (
"368 628 LINE",
"495 265 LINE",
"241 265 LINE"
);
},
{
closed = 1;
nodes = (
"293 816 LINE",
"368 908 LINE",
"444 816 LINE",
"530 816 LINE",
"409 963 LINE",
"328 963 LINE",
"207 816 LINE"
);
},
{
closed = 1;
nodes = (
"586 945 LINE",
"500 1125 LINE",
"402 1125 LINE",
"505 944 LINE"
);
}
);
width = 736;
}
);
leftKerningGroup = A;
rightKerningGroup = A;
unicode = 1EA6;
},
{
glyphname = Acircumflexhookabove;
lastChange = "2021-03-14 09:41:58 +0000";
layers = (
{
anchors = (
{
name = bottom;
position = "{396, 0}";
},
{
name = ogonek;
position = "{771, 0}";
},
{
name = top;
position = "{396, 740}";
}
);
layerId = "D085834A-C5B8-45AD-B7CB-7C394966C9BB";
paths = (
{
closed = 1;
nodes = (
"220 0 LINE",
"259 124 LINE",
"532 124 LINE",
"571 0 LINE",
"771 0 LINE",
"525 740 LINE",
"266 740 LINE",
"20 0 LINE"
);
},
{
closed = 1;
nodes = (
"396 561 LINE",
"481 288 LINE",
"310 288 LINE"
);
},
{
closed = 1;
nodes = (
"323 799 LINE",
"391 880 LINE",
"458 799 LINE",
"599 799 LINE",
"464 958 LINE",
"317 958 LINE",
"182 799 LINE"
);
},
{
closed = 1;
nodes = (
"666 907 LINE",
"666 978 LINE",
"628 913 LINE",
"671 937 LINE SMOOTH",
"715 961 OFFCURVE",
"757 990 OFFCURVE",
"757 1044 CURVE SMOOTH",
"757 1105 OFFCURVE",
"703 1158 OFFCURVE",
"615 1158 CURVE SMOOTH",
"517 1158 OFFCURVE",
"479 1088 OFFCURVE",
"481 1032 CURVE",
"582 1032 LINE",
"582 1032 OFFCURVE",
"582 1069 OFFCURVE",
"617 1069 CURVE SMOOTH",
"636 1069 OFFCURVE",
"649 1056 OFFCURVE",
"649 1040 CURVE SMOOTH",
"649 1018 OFFCURVE",
"633 1008 OFFCURVE",
"608 995 CURVE SMOOTH",
"592 987 LINE SMOOTH",
"572 977 OFFCURVE",
"564 960 OFFCURVE",
"564 940 CURVE SMOOTH",
"564 907 LINE"
);
}
);
width = 791;
},
{
anchors = (
{
name = bottom;
position = "{327, 0}";
},
{
name = ogonek;
position = "{614, 0}";
},
{
name = top;
position = "{327, 740}";
}
);
layerId = "B45F0BEB-E489-4392-AE53-309DD1ADE040";
paths = (
{
closed = 1;
nodes = (
"77 0 LINE",
"156 220 LINE",
"498 220 LINE",
"577 0 LINE",
"614 0 LINE",
"347 740 LINE",
"307 740 LINE",
"40 0 LINE"
);
},
{
closed = 1;
nodes = (
"327 697 LINE",
"487 252 LINE",
"167 252 LINE"
);
},
{
closed = 1;
nodes = (
"235 818 LINE",
"328 932 LINE",
"420 818 LINE",
"457 818 LINE",
"346 956 LINE",
"309 956 LINE",
"198 818 LINE"
);
},
{
closed = 1;
nodes = (
"475 923 LINE",
"475 974 LINE",
"452 947 LINE",
"476 958 LINE SMOOTH",
"531 983 OFFCURVE",
"549 1013 OFFCURVE",
"549 1043 CURVE SMOOTH",
"549 1084 OFFCURVE",
"518 1114 OFFCURVE",
"467 1114 CURVE SMOOTH",
"416 1114 OFFCURVE",
"385 1084 OFFCURVE",
"385 1037 CURVE",
"414 1037 LINE",
"414 1060 OFFCURVE",
"425 1086 OFFCURVE",
"467 1086 CURVE SMOOTH",
"506 1086 OFFCURVE",
"519 1062 OFFCURVE",
"519 1042 CURVE SMOOTH",
"519 1016 OFFCURVE",
"500 997 OFFCURVE",
"472 983 CURVE SMOOTH",
"460 977 LINE SMOOTH",
"451 973 OFFCURVE",
"447 965 OFFCURVE",
"447 955 CURVE SMOOTH",
"447 923 LINE"
);
}
);
width = 654;
},
{
anchors = (
{
name = bottom;
position = "{368, 0}";
},
{
name = ogonek;
position = "{691, 0}";
},
{
name = top;
position = "{368, 740}";
}
);
layerId = "9D6BE6F2-0D0F-4D93-9FAF-A0B52FAE1934";
paths = (
{
closed = 1;
nodes = (
"149 0 LINE",
"211 177 LINE",
"525 177 LINE",
"587 0 LINE",
"691 0 LINE",
"429 740 LINE",
"306 740 LINE",
"45 0 LINE"
);
},
{
closed = 1;
nodes = (
"368 628 LINE",
"495 265 LINE",
"241 265 LINE"
);
},
{
closed = 1;
nodes = (
"293 816 LINE",
"368 908 LINE",
"444 816 LINE",
"530 816 LINE",
"409 963 LINE",
"328 963 LINE",
"207 816 LINE"
);
},
{
closed = 1;
nodes = (
"554 937 LINE",
"554 997 LINE",
"524 952 LINE",
"558 968 LINE SMOOTH",
"614 995 OFFCURVE",
"638 1027 OFFCURVE",
"638 1065 CURVE SMOOTH",
"638 1116 OFFCURVE",
"594 1158 OFFCURVE",
"524 1158 CURVE SMOOTH",
"447 1158 OFFCURVE",
"413 1106 OFFCURVE",
"414 1057 CURVE",
"480 1057 LINE",
"480 1068 OFFCURVE",
"485 1100 OFFCURVE",
"525 1100 CURVE SMOOTH",
"555 1100 OFFCURVE",
"569 1081 OFFCURVE",
"569 1063 CURVE SMOOTH",
"569 1044 OFFCURVE",
"555 1028 OFFCURVE",
"523 1012 CURVE SMOOTH",
"509 1005 LINE SMOOTH",
"493 997 OFFCURVE",
"489 982 OFFCURVE",
"489 969 CURVE SMOOTH",
"489 937 LINE"
);
}
);
width = 736;
}
);
leftKerningGroup = A;
rightKerningGroup = A;
unicode = 1EA8;
},
{
glyphname = Acircumflextilde;
lastChange = "2021-05-04 15:55:52 +0000";
layers = (
{
anchors = (
{
name = bottom;
position = "{396, 0}";
},
{
name = ogonek;
position = "{771, 0}";
},
{
name = top;
position = "{396, 1174}";
}
);
layerId = "D085834A-C5B8-45AD-B7CB-7C394966C9BB";
paths = (
{
closed = 1;
nodes = (
"220 0 LINE",
"259 124 LINE",
"532 124 LINE",
"571 0 LINE",
"771 0 LINE",
"525 740 LINE",
"266 740 LINE",
"20 0 LINE"
);
},
{
closed = 1;
nodes = (
"396 561 LINE",
"481 288 LINE",
"310 288 LINE"
);
},
{
closed = 1;
nodes = (
"328 799 LINE",
"396 880 LINE",
"463 799 LINE",
"604 799 LINE",
"469 958 LINE",
"322 958 LINE",
"187 799 LINE"
);
},
{
closed = 1;
nodes = (
"561 992 OFFCURVE",
"578 1082 OFFCURVE",
"578 1151 CURVE",
"485 1151 LINE",
"485 1117 OFFCURVE",
"479 1098 OFFCURVE",
"460 1098 CURVE SMOOTH",
"426 1098 OFFCURVE",
"394 1157 OFFCURVE",
"321 1157 CURVE SMOOTH",
"230 1157 OFFCURVE",
"213 1067 OFFCURVE",
"213 998 CURVE",
"306 998 LINE",
"306 1032 OFFCURVE",
"312 1051 OFFCURVE",
"332 1051 CURVE SMOOTH",
"368 1051 OFFCURVE",
"397 992 OFFCURVE",
"470 992 CURVE SMOOTH"
);
}
);
width = 791;
},
{
anchors = (
{
name = bottom;
position = "{327, 0}";
},
{
name = ogonek;
position = "{614, 0}";
},
{
name = top;
position = "{327, 740}";
}
);
layerId = "B45F0BEB-E489-4392-AE53-309DD1ADE040";
paths = (
{
closed = 1;
nodes = (
"77 0 LINE",
"156 220 LINE",
"498 220 LINE",
"577 0 LINE",
"614 0 LINE",
"347 740 LINE",
"307 740 LINE",
"40 0 LINE"
);
},
{
closed = 1;
nodes = (
"327 697 LINE",
"487 252 LINE",
"167 252 LINE"
);
},
{
closed = 1;
nodes = (
"235 818 LINE",
"328 932 LINE",
"420 818 LINE",
"457 818 LINE",
"346 956 LINE",
"309 956 LINE",
"198 818 LINE"
);
},
{
closed = 1;
nodes = (
"432 996 OFFCURVE",
"452 1043 OFFCURVE",
"452 1101 CURVE",
"422 1101 LINE",
"422 1054 OFFCURVE",
"412 1025 OFFCURVE",
"387 1025 CURVE SMOOTH",
"347 1025 OFFCURVE",
"333 1106 OFFCURVE",
"269 1106 CURVE SMOOTH",
"222 1106 OFFCURVE",
"203 1059 OFFCURVE",
"203 1001 CURVE",
"233 1001 LINE",
"233 1049 OFFCURVE",
"243 1077 OFFCURVE",
"269 1077 CURVE SMOOTH",
"312 1077 OFFCURVE",
"327 996 OFFCURVE",
"387 996 CURVE SMOOTH"
);
}
);
width = 654;
},
{
anchors = (
{
name = bottom;
position = "{368, 0}";
},
{
name = ogonek;
position = "{691, 0}";
},
{
name = top;
position = "{367, 1098}";
}
);
layerId = "9D6BE6F2-0D0F-4D93-9FAF-A0B52FAE1934";
paths = (
{
closed = 1;
nodes = (
"149 0 LINE",
"211 177 LINE",
"525 177 LINE",
"587 0 LINE",
"691 0 LINE",
"429 740 LINE",
"306 740 LINE",
"45 0 LINE"
);
},
{
closed = 1;
nodes = (
"368 628 LINE",
"495 265 LINE",
"241 265 LINE"
);
},
{
closed = 1;
nodes = (
"292 816 LINE",
"367 908 LINE",
"443 816 LINE",
"529 816 LINE",
"408 963 LINE",
"327 963 LINE",
"206 816 LINE"
);
},
{
closed = 1;
nodes = (
"506 1002 OFFCURVE",
"525 1070 OFFCURVE",
"525 1132 CURVE",
"461 1132 LINE",
"461 1095 OFFCURVE",
"451 1072 OFFCURVE",
"430 1072 CURVE SMOOTH",
"394 1072 OFFCURVE",
"374 1137 OFFCURVE",
"301 1137 CURVE SMOOTH",
"230 1137 OFFCURVE",
"211 1070 OFFCURVE",
"211 1008 CURVE",
"275 1008 LINE",
"275 1044 OFFCURVE",
"284 1068 OFFCURVE",
"307 1068 CURVE SMOOTH",
"344 1068 OFFCURVE",
"364 1002 OFFCURVE",
"436 1002 CURVE SMOOTH"
);
}
);
width = 736;
}
);
leftKerningGroup = A;
rightKerningGroup = A;
unicode = 1EAA;
},
{
glyphname = Adieresis;
lastChange = "2021-03-14 09:41:58 +0000";
layers = (
{
anchors = (
{
name = bottom;
position = "{327, 0}";
},
{
name = ogonek;
position = "{614, 0}";
},
{
name = top;
position = "{327, 912}";
}
);
layerId = "B45F0BEB-E489-4392-AE53-309DD1ADE040";
paths = (
{
closed = 1;
nodes = (
"77 0 LINE",
"156 220 LINE",
"498 220 LINE",
"577 0 LINE",
"614 0 LINE",
"347 740 LINE",
"307 740 LINE",
"40 0 LINE"
);
},
{
closed = 1;
nodes = (
"327 697 LINE",
"487 252 LINE",
"167 252 LINE"
);
},
{
closed = 1;
nodes = (
"416.1 840.25 OFFCURVE",
"432.25 856.4 OFFCURVE",
"432.25 876.35 CURVE SMOOTH",
"432.25 895.35 OFFCURVE",
"416.1 911.5 OFFCURVE",
"396.15 911.5 CURVE SMOOTH",
"376.2 911.5 OFFCURVE",
"361 895.35 OFFCURVE",
"361 876.35 CURVE SMOOTH",
"361 856.4 OFFCURVE",
"376.2 840.25 OFFCURVE",
"396.15 840.25 CURVE SMOOTH"
);
},
{
closed = 1;
nodes = (
"277.1 840.25 OFFCURVE",
"293.25 856.4 OFFCURVE",
"293.25 876.35 CURVE SMOOTH",
"293.25 895.35 OFFCURVE",
"277.1 911.5 OFFCURVE",
"257.15 911.5 CURVE SMOOTH",
"237.2 911.5 OFFCURVE",
"222 895.35 OFFCURVE",
"222 876.35 CURVE SMOOTH",
"222 856.4 OFFCURVE",
"237.2 840.25 OFFCURVE",
"257.15 840.25 CURVE SMOOTH"
);
}
);
width = 654;
},
{
anchors = (
{
name = bottom;
position = "{396, 0}";
},
{
name = ogonek;
position = "{771, 0}";
},
{
name = top;
position = "{396, 983}";
}
);
layerId = "D085834A-C5B8-45AD-B7CB-7C394966C9BB";
paths = (
{
closed = 1;
nodes = (
"220 0 LINE",
"259 124 LINE",
"532 124 LINE",
"571 0 LINE",
"771 0 LINE",
"525 740 LINE",
"266 740 LINE",
"20 0 LINE"
);
},
{
closed = 1;
nodes = (
"396 561 LINE",
"481 288 LINE",
"310 288 LINE"
);
},
{
closed = 1;
nodes = (
"579.974 787.55 OFFCURVE",
"623.402 831.965 OFFCURVE",
"623.402 885.263 CURVE SMOOTH",
"623.402 939.548 OFFCURVE",
"579.974 982.976 OFFCURVE",
"521.036 982.976 CURVE SMOOTH",
"461.064 982.976 OFFCURVE",
"418.67 939.548 OFFCURVE",
"418.67 885.263 CURVE SMOOTH",
"418.67 831.965 OFFCURVE",
"461.064 787.55 OFFCURVE",
"521.036 787.55 CURVE SMOOTH"
);
},
{
closed = 1;
nodes = (
"328.974 787.55 OFFCURVE",
"372.402 831.965 OFFCURVE",
"372.402 885.263 CURVE SMOOTH",
"372.402 939.548 OFFCURVE",
"328.974 982.976 OFFCURVE",
"270.036 982.976 CURVE SMOOTH",
"210.064 982.976 OFFCURVE",
"167.67 939.548 OFFCURVE",
"167.67 885.263 CURVE SMOOTH",
"167.67 831.965 OFFCURVE",
"210.064 787.55 OFFCURVE",
"270.036 787.55 CURVE SMOOTH"
);
}
);
width = 791;
},
{
anchors = (
{
name = bottom;
position = "{368, 0}";
},
{
name = ogonek;
position = "{691, 0}";
},
{
name = top;
position = "{368, 944}";
}
);
layerId = "9D6BE6F2-0D0F-4D93-9FAF-A0B52FAE1934";
paths = (
{
closed = 1;
nodes = (
"149 0 LINE",
"211 177 LINE",
"525 177 LINE",
"587 0 LINE",
"691 0 LINE",
"429 740 LINE",
"306 740 LINE",
"45 0 LINE"
);
},
{
closed = 1;
nodes = (
"368 628 LINE",
"495 265 LINE",
"241 265 LINE"
);
},
{
closed = 1;
nodes = (
"498 820.5 OFFCURVE",
"524.6 848.05 OFFCURVE",
"524.6 882.25 CURVE SMOOTH",
"524.6 916.45 OFFCURVE",
"498 944 OFFCURVE",
"462.85 944 CURVE SMOOTH",
"426.75 944 OFFCURVE",
"401.1 916.45 OFFCURVE",
"401.1 882.25 CURVE SMOOTH",
"401.1 849 OFFCURVE",
"426.75 820.5 OFFCURVE",
"462.85 820.5 CURVE SMOOTH"
);
},
{
closed = 1;
nodes = (
"308 820.5 OFFCURVE",
"334.6 848.05 OFFCURVE",
"334.6 882.25 CURVE SMOOTH",
"334.6 916.45 OFFCURVE",
"308 944 OFFCURVE",
"272.85 944 CURVE SMOOTH",
"236.75 944 OFFCURVE",
"211.1 916.45 OFFCURVE",
"211.1 882.25 CURVE SMOOTH",
"211.1 849 OFFCURVE",
"236.75 820.5 OFFCURVE",
"272.85 820.5 CURVE SMOOTH"
);
}
);
width = 736;
}
);
leftKerningGroup = A;
rightKerningGroup = A;
unicode = 00C4;
},
{
glyphname = Adotbelow;
lastChange = "2021-03-14 09:41:58 +0000";
layers = (
{
anchors = (
{
name = bottom;
position = "{396, -274}";
},
{
name = ogonek;
position = "{771, 0}";
},
{
name = top;
position = "{396, 740}";
}
);
layerId = "D085834A-C5B8-45AD-B7CB-7C394966C9BB";
paths = (
{
closed = 1;
nodes = (
"220 0 LINE",
"259 124 LINE",
"532 124 LINE",
"571 0 LINE",
"771 0 LINE",
"525 740 LINE",
"266 740 LINE",
"20 0 LINE"
);
},
{
closed = 1;
nodes = (
"396 561 LINE",
"481 288 LINE",
"310 288 LINE"
);
},
{
closed = 1;
nodes = (
"446.9 -260 OFFCURVE",
"484.7 -219.5 OFFCURVE",
"484.7 -170.9 CURVE SMOOTH",
"484.7 -121.4 OFFCURVE",
"446.9 -81.8 OFFCURVE",
"395.6 -81.8 CURVE SMOOTH",
"343.4 -81.8 OFFCURVE",
"306.5 -121.4 OFFCURVE",
"306.5 -170.9 CURVE SMOOTH",
"306.5 -219.5 OFFCURVE",
"343.4 -260 OFFCURVE",
"395.6 -260 CURVE SMOOTH"
);
}
);
width = 791;
},
{
anchors = (
{
name = bottom;
position = "{327, -200}";
},
{
name = ogonek;
position = "{614, 0}";
},
{
name = top;
position = "{327, 740}";
}
);
layerId = "B45F0BEB-E489-4392-AE53-309DD1ADE040";
paths = (
{
closed = 1;
nodes = (
"77 0 LINE",
"156 220 LINE",
"498 220 LINE",
"577 0 LINE",
"614 0 LINE",
"347 740 LINE",
"307 740 LINE",
"40 0 LINE"
);
},
{
closed = 1;
nodes = (
"327 697 LINE",
"487 252 LINE",
"167 252 LINE"
);
},
{
closed = 1;
nodes = (
"347 -192 OFFCURVE",
"364 -175 OFFCURVE",
"364 -154 CURVE SMOOTH",
"364 -134 OFFCURVE",
"347 -117 OFFCURVE",
"326 -117 CURVE SMOOTH",
"305 -117 OFFCURVE",
"289 -134 OFFCURVE",
"289 -154 CURVE SMOOTH",
"289 -175 OFFCURVE",
"305 -192 OFFCURVE",
"326 -192 CURVE SMOOTH"
);
}
);
width = 654;
},
{
anchors = (
{
name = bottom;
position = "{368, -250}";
},
{
name = ogonek;
position = "{691, 0}";
},
{
name = top;
position = "{368, 740}";
}
);
layerId = "9D6BE6F2-0D0F-4D93-9FAF-A0B52FAE1934";
paths = (
{
closed = 1;
nodes = (
"149 0 LINE",
"211 177 LINE",
"525 177 LINE",
"587 0 LINE",
"691 0 LINE",
"429 740 LINE",
"306 740 LINE",
"45 0 LINE"
);
},
{
closed = 1;
nodes = (
"368 628 LINE",
"495 265 LINE",
"241 265 LINE"
);
},
{
closed = 1;
nodes = (
"405 -227 OFFCURVE",
"433 -198 OFFCURVE",
"433 -162 CURVE SMOOTH",
"433 -126 OFFCURVE",
"405 -97 OFFCURVE",
"368 -97 CURVE SMOOTH",
"330 -97 OFFCURVE",
"303 -126 OFFCURVE",
"303 -162 CURVE SMOOTH",
"303 -197 OFFCURVE",
"330 -227 OFFCURVE",
"368 -227 CURVE SMOOTH"
);
}
);
width = 736;
}
);
leftKerningGroup = A;
rightKerningGroup = A;
unicode = 1EA0;
},
{
glyphname = Agrave;
lastChange = "2021-03-14 09:41:58 +0000";
layers = (
{
anchors = (
{
name = bottom;
position = "{396, 0}";
},
{
name = ogonek;
position = "{771, 0}";
},
{
name = top;
position = "{321, 1050}";
}
);
layerId = "D085834A-C5B8-45AD-B7CB-7C394966C9BB";
paths = (
{
closed = 1;
nodes = (
"220 0 LINE",
"259 124 LINE",
"532 124 LINE",
"571 0 LINE",
"771 0 LINE",
"525 740 LINE",
"266 740 LINE",
"20 0 LINE"
);
},
{
closed = 1;
nodes = (
"396 561 LINE",
"481 288 LINE",
"310 288 LINE"
);
},
{
closed = 1;
nodes = (
"464 810 LINE",
"387 989 LINE",
"217 989 LINE",
"331 809 LINE"
);
}
);
width = 791;
},
{
anchors = (
{
name = bottom;
position = "{327, 0}";
},
{
name = ogonek;
position = "{614, 0}";
},
{
name = top;
position = "{278, 982}";
}
);
layerId = "B45F0BEB-E489-4392-AE53-309DD1ADE040";
paths = (
{
closed = 1;
nodes = (
"77 0 LINE",
"156 220 LINE",
"498 220 LINE",
"577 0 LINE",
"614 0 LINE",
"347 740 LINE",
"307 740 LINE",
"40 0 LINE"
);
},
{
closed = 1;
nodes = (
"327 697 LINE",
"487 252 LINE",
"167 252 LINE"
);
},
{
closed = 1;
nodes = (
"341 828 LINE",
"256 980 LINE",
"215 980 LINE",
"307 828 LINE"
);
}
);
width = 654;
},
{
anchors = (
{
name = bottom;
position = "{368, 0}";
},
{
name = ogonek;
position = "{691, 0}";
},
{
name = top;
position = "{315, 1009}";
}
);
layerId = "9D6BE6F2-0D0F-4D93-9FAF-A0B52FAE1934";
paths = (
{
closed = 1;
nodes = (
"149 0 LINE",
"211 177 LINE",
"525 177 LINE",
"587 0 LINE",
"691 0 LINE",
"429 740 LINE",
"306 740 LINE",
"45 0 LINE"
);
},
{
closed = 1;
nodes = (
"368 628 LINE",
"495 265 LINE",
"241 265 LINE"
);
},
{
closed = 1;
nodes = (
"413 821 LINE",
"327 1001 LINE",
"229 1001 LINE",
"332 820 LINE"
);
}
);
width = 736;
}
);
leftKerningGroup = A;
rightKerningGroup = A;
unicode = 00C0;
},
{
glyphname = Ahookabove;
lastChange = "2021-03-14 09:41:58 +0000";
layers = (
{
anchors = (
{
name = bottom;
position = "{396, 0}";
},
{
name = ogonek;
position = "{771, 0}";
},
{
name = top;
position = "{401, 1071}";
}
);
layerId = "D085834A-C5B8-45AD-B7CB-7C394966C9BB";
paths = (
{
closed = 1;
nodes = (
"220 0 LINE",
"259 124 LINE",
"532 124 LINE",
"571 0 LINE",
"771 0 LINE",
"525 740 LINE",
"266 740 LINE",
"20 0 LINE"
);
},
{
closed = 1;
nodes = (
"396 561 LINE",
"481 288 LINE",
"310 288 LINE"
);
},
{
closed = 1;
nodes = (
"448 795 LINE",
"448 866 LINE",
"410 801 LINE",
"453 825 LINE SMOOTH",
"497 849 OFFCURVE",
"539 878 OFFCURVE",
"539 932 CURVE SMOOTH",
"539 993 OFFCURVE",
"485 1046 OFFCURVE",
"397 1046 CURVE SMOOTH",
"299 1046 OFFCURVE",
"261 976 OFFCURVE",
"263 920 CURVE",
"364 920 LINE",
"364 920 OFFCURVE",
"364 957 OFFCURVE",
"399 957 CURVE SMOOTH",
"418 957 OFFCURVE",
"431 944 OFFCURVE",
"431 928 CURVE SMOOTH",
"431 906 OFFCURVE",
"415 896 OFFCURVE",
"390 883 CURVE SMOOTH",
"374 875 LINE SMOOTH",
"354 865 OFFCURVE",
"346 848 OFFCURVE",
"346 828 CURVE SMOOTH",
"346 795 LINE"
);
}
);
width = 791;
},
{
anchors = (
{
name = bottom;
position = "{327, 0}";
},
{
name = ogonek;
position = "{614, 0}";
},
{
name = top;
position = "{333, 1012}";
}
);
layerId = "B45F0BEB-E489-4392-AE53-309DD1ADE040";
paths = (
{
closed = 1;
nodes = (
"77 0 LINE",
"156 220 LINE",
"498 220 LINE",
"577 0 LINE",
"614 0 LINE",
"347 740 LINE",
"307 740 LINE",
"40 0 LINE"
);
},
{
closed = 1;
nodes = (
"327 697 LINE",
"487 252 LINE",
"167 252 LINE"
);
},
{
closed = 1;
nodes = (
"343 814 LINE",
"343 865 LINE",
"320 838 LINE",
"344 849 LINE SMOOTH",
"399 874 OFFCURVE",
"417 904 OFFCURVE",
"417 934 CURVE SMOOTH",
"417 975 OFFCURVE",
"386 1005 OFFCURVE",
"335 1005 CURVE SMOOTH",
"284 1005 OFFCURVE",
"253 975 OFFCURVE",
"253 928 CURVE",
"282 928 LINE",
"282 951 OFFCURVE",
"293 977 OFFCURVE",
"335 977 CURVE SMOOTH",
"374 977 OFFCURVE",
"387 953 OFFCURVE",
"387 933 CURVE SMOOTH",
"387 907 OFFCURVE",
"368 888 OFFCURVE",
"340 874 CURVE SMOOTH",
"328 868 LINE SMOOTH",
"319 864 OFFCURVE",
"315 856 OFFCURVE",
"315 846 CURVE SMOOTH",
"315 814 LINE"
);
}
);
width = 654;
},
{
anchors = (
{
name = bottom;
position = "{368, 0}";
},
{
name = ogonek;
position = "{691, 0}";
},
{
name = top;
position = "{374, 1038}";
}
);
layerId = "9D6BE6F2-0D0F-4D93-9FAF-A0B52FAE1934";
paths = (
{
closed = 1;
nodes = (
"149 0 LINE",
"211 177 LINE",
"525 177 LINE",
"587 0 LINE",
"691 0 LINE",
"429 740 LINE",
"306 740 LINE",
"45 0 LINE"
);
},
{
closed = 1;
nodes = (
"368 628 LINE",
"495 265 LINE",
"241 265 LINE"
);
},
{
closed = 1;
nodes = (
"401 813 LINE",
"401 873 LINE",
"371 828 LINE",
"405 844 LINE SMOOTH",
"461 871 OFFCURVE",
"485 903 OFFCURVE",
"485 941 CURVE SMOOTH",
"485 992 OFFCURVE",
"441 1034 OFFCURVE",
"371 1034 CURVE SMOOTH",
"294 1034 OFFCURVE",
"260 982 OFFCURVE",
"261 933 CURVE",
"327 933 LINE",
"327 944 OFFCURVE",
"332 976 OFFCURVE",
"372 976 CURVE SMOOTH",
"402 976 OFFCURVE",
"416 957 OFFCURVE",
"416 939 CURVE SMOOTH",
"416 920 OFFCURVE",
"402 904 OFFCURVE",
"370 888 CURVE SMOOTH",
"356 881 LINE SMOOTH",
"340 873 OFFCURVE",
"336 858 OFFCURVE",
"336 845 CURVE SMOOTH",
"336 813 LINE"
);
}
);
width = 736;
}
);
leftKerningGroup = A;
rightKerningGroup = A;
unicode = 1EA2;
},
{
glyphname = Amacron;
lastChange = "2021-05-04 15:56:33 +0000";
layers = (
{
anchors = (
{
name = bottom;
position = "{327, 0}";
},
{
name = ogonek;
position = "{614, 0}";
},
{
name = top;
position = "{327, 941}";
}
);
layerId = "B45F0BEB-E489-4392-AE53-309DD1ADE040";
paths = (
{
closed = 1;
nodes = (
"77 0 LINE",
"156 220 LINE",
"498 220 LINE",
"577 0 LINE",
"614 0 LINE",
"347 740 LINE",
"307 740 LINE",
"40 0 LINE"
);
},
{
closed = 1;
nodes = (
"327 697 LINE",
"487 252 LINE",
"167 252 LINE"
);
},
{
closed = 1;
nodes = (
"467 848 LINE",
"467 878 LINE",
"187 878 LINE",
"187 848 LINE"
);
}
);
width = 654;
},
{
anchors = (
{
name = bottom;
position = "{396, 0}";
},
{
name = ogonek;
position = "{771, 0}";
},
{
name = top;
position = "{396, 940}";
}
);
layerId = "D085834A-C5B8-45AD-B7CB-7C394966C9BB";
paths = (
{
closed = 1;
nodes = (
"220 0 LINE",
"259 124 LINE",
"532 124 LINE",
"571 0 LINE",
"771 0 LINE",
"525 740 LINE",
"266 740 LINE",
"20 0 LINE"
);
},
{
closed = 1;
nodes = (
"396 561 LINE",
"481 288 LINE",
"310 288 LINE"
);
},
{
closed = 1;
nodes = (
"566 818 LINE",
"566 920 LINE",
"226 920 LINE",
"226 818 LINE"
);
}
);
width = 791;
},
{
anchors = (
{
name = bottom;
position = "{368, 0}";
},
{
name = ogonek;
position = "{691, 0}";
},
{
name = top;
position = "{368, 941}";
}
);
layerId = "9D6BE6F2-0D0F-4D93-9FAF-A0B52FAE1934";
paths = (
{
closed = 1;
nodes = (
"149 0 LINE",
"211 177 LINE",
"525 177 LINE",
"587 0 LINE",
"691 0 LINE",
"429 740 LINE",
"306 740 LINE",
"45 0 LINE"
);
},
{
closed = 1;
nodes = (
"368 628 LINE",
"495 265 LINE",
"241 265 LINE"
);
},
{
closed = 1;
nodes = (
"520 836 LINE",
"520 908 LINE",
"216 908 LINE",
"216 836 LINE"
);
}
);
width = 736;
}
);
leftKerningGroup = A;
rightKerningGroup = A;
unicode = 0100;
},
{
glyphname = Aogonek;
lastChange = "2021-03-14 09:41:58 +0000";
layers = (
{
anchors = (
{
name = bottom;
position = "{327, 0}";
},
{
name = ogonek;
position = "{614, 0}";
},
{
name = top;
position = "{327, 740}";
}
);
layerId = "B45F0BEB-E489-4392-AE53-309DD1ADE040";
paths = (
{
closed = 1;
nodes = (
"77 0 LINE",
"156 220 LINE",
"498 220 LINE",
"577 0 LINE",
"614 0 LINE",
"347 740 LINE",
"307 740 LINE",
"40 0 LINE"
);
},
{
closed = 1;
nodes = (
"327 697 LINE",
"487 252 LINE",
"167 252 LINE"
);
},
{
closed = 1;
nodes = (
"638 -149 OFFCURVE",
"658 -143 OFFCURVE",
"658 -143 CURVE",
"658 -115 LINE",
"658 -115 OFFCURVE",
"638 -120 OFFCURVE",
"618 -120 CURVE SMOOTH",
"577 -120 OFFCURVE",
"556 -100 OFFCURVE",
"556 -71 CURVE SMOOTH",
"556 -23 OFFCURVE",
"614 0 OFFCURVE",
"614 0 CURVE",
"594 12 LINE",
"594 12 OFFCURVE",
"525 -13 OFFCURVE",
"525 -75 CURVE SMOOTH",
"525 -119 OFFCURVE",
"559 -149 OFFCURVE",
"614 -149 CURVE SMOOTH"
);
}
);
width = 654;
},
{
anchors = (
{
name = bottom;
position = "{396, 0}";
},
{
name = ogonek;
position = "{771, 0}";
},
{
name = top;
position = "{396, 740}";
}
);
layerId = "D085834A-C5B8-45AD-B7CB-7C394966C9BB";
paths = (
{
closed = 1;
nodes = (
"220 0 LINE",
"259 124 LINE",
"532 124 LINE",
"571 0 LINE",
"771 0 LINE",
"525 740 LINE",
"266 740 LINE",
"20 0 LINE"
);
},
{
closed = 1;
nodes = (
"396 561 LINE",
"481 288 LINE",
"310 288 LINE"
);
},
{
closed = 1;
nodes = (
"780 -194 OFFCURVE",
"806 -189 OFFCURVE",
"806 -189 CURVE",
"806 -87 LINE",
"806 -87 OFFCURVE",
"790 -90 OFFCURVE",
"774 -90 CURVE SMOOTH",
"736 -90 OFFCURVE",
"722 -73 OFFCURVE",
"722 -55 CURVE SMOOTH",
"722 -19 OFFCURVE",
"771 0 OFFCURVE",
"771 0 CURVE",
"712 29 LINE",
"712 29 OFFCURVE",
"591 9 OFFCURVE",
"591 -87 CURVE SMOOTH",
"591 -144 OFFCURVE",
"635 -194 OFFCURVE",
"745 -194 CURVE SMOOTH"
);
}
);
width = 791;
},
{
anchors = (
{
name = bottom;
position = "{368, 0}";
},
{
name = ogonek;
position = "{691, 0}";
},
{
name = top;
position = "{368, 740}";
}
);
layerId = "9D6BE6F2-0D0F-4D93-9FAF-A0B52FAE1934";
paths = (
{
closed = 1;
nodes = (
"149 0 LINE",
"211 177 LINE",
"525 177 LINE",
"587 0 LINE",
"691 0 LINE",
"429 740 LINE",
"306 740 LINE",
"45 0 LINE"
);
},
{
closed = 1;
nodes = (
"368 628 LINE",
"495 265 LINE",
"241 265 LINE"
);
},
{
closed = 1;
nodes = (
"708 -170 OFFCURVE",
"731 -164 OFFCURVE",
"731 -164 CURVE",
"731 -101 LINE",
"731 -101 OFFCURVE",
"712 -106 OFFCURVE",
"694 -106 CURVE SMOOTH",
"656 -106 OFFCURVE",
"637 -87 OFFCURVE",
"637 -63 CURVE SMOOTH",
"637 -21 OFFCURVE",
"691 0 OFFCURVE",
"691 0 CURVE",
"653 21 LINE",
"653 21 OFFCURVE",
"559 -2 OFFCURVE",
"559 -80 CURVE SMOOTH",
"559 -130 OFFCURVE",
"599 -170 OFFCURVE",
"678 -170 CURVE SMOOTH"
);
}
);
width = 736;
}
);
leftKerningGroup = A;
rightKerningGroup = A;
unicode = 0104;
},
{
glyphname = Aring;
lastChange = "2021-03-14 09:41:58 +0000";
layers = (
{
anchors = (
{
name = bottom;
position = "{327, 0}";
},
{
name = ogonek;
position = "{614, 0}";
},
{
name = top;
position = "{327, 1058}";
}
);
layerId = "B45F0BEB-E489-4392-AE53-309DD1ADE040";
paths = (
{
closed = 1;
nodes = (
"77 0 LINE",
"156 220 LINE",
"498 220 LINE",
"577 0 LINE",
"614 0 LINE",
"347 740 LINE",
"307 740 LINE",
"40 0 LINE"
);
},
{
closed = 1;
nodes = (
"327 697 LINE",
"487 252 LINE",
"167 252 LINE"
);
},
{
closed = 1;
nodes = (
"379 824 OFFCURVE",
"420 866 OFFCURVE",
"420 917 CURVE SMOOTH",
"420 969 OFFCURVE",
"379 1011 OFFCURVE",
"327 1011 CURVE SMOOTH",
"275 1011 OFFCURVE",
"234 969 OFFCURVE",
"234 917 CURVE SMOOTH",
"234 866 OFFCURVE",
"275 824 OFFCURVE",
"327 824 CURVE SMOOTH"
);
},
{
closed = 1;
nodes = (
"292 854 OFFCURVE",
"264 882 OFFCURVE",
"264 917 CURVE SMOOTH",
"264 952 OFFCURVE",
"292 981 OFFCURVE",
"327 981 CURVE SMOOTH",
"362 981 OFFCURVE",
"390 952 OFFCURVE",
"390 917 CURVE SMOOTH",
"390 882 OFFCURVE",
"362 854 OFFCURVE",
"327 854 CURVE SMOOTH"
);
}
);
width = 654;
},
{
anchors = (
{
name = bottom;
position = "{396, 0}";
},
{
name = ogonek;
position = "{771, 0}";
},
{
name = top;
position = "{396, 1132}";
}
);
layerId = "D085834A-C5B8-45AD-B7CB-7C394966C9BB";
paths = (
{
closed = 1;
nodes = (
"220 0 LINE",
"259 124 LINE",
"532 124 LINE",
"571 0 LINE",
"771 0 LINE",
"525 740 LINE",
"266 740 LINE",
"20 0 LINE"
);
},
{
closed = 1;
nodes = (
"396 561 LINE",
"481 288 LINE",
"310 288 LINE"
);
},
{
closed = 1;
nodes = (
"474 788 OFFCURVE",
"537 851 OFFCURVE",
"537 929 CURVE SMOOTH",
"537 1006 OFFCURVE",
"474 1069 OFFCURVE",
"396 1069 CURVE SMOOTH",
"318 1069 OFFCURVE",
"255 1006 OFFCURVE",
"255 929 CURVE SMOOTH",
"255 851 OFFCURVE",
"318 788 OFFCURVE",
"396 788 CURVE SMOOTH"
);
},
{
closed = 1;
nodes = (
"368 878 OFFCURVE",
"345 900 OFFCURVE",
"345 929 CURVE SMOOTH",
"345 957 OFFCURVE",
"368 979 OFFCURVE",
"396 979 CURVE SMOOTH",
"424 979 OFFCURVE",
"447 957 OFFCURVE",
"447 929 CURVE SMOOTH",
"447 900 OFFCURVE",
"424 878 OFFCURVE",
"396 878 CURVE SMOOTH"
);
}
);
width = 791;
},
{
anchors = (
{
name = bottom;
position = "{368, 0}";
},
{
name = ogonek;
position = "{691, 0}";
},
{
name = top;
position = "{368, 1063}";
}
);
layerId = "9D6BE6F2-0D0F-4D93-9FAF-A0B52FAE1934";
paths = (
{
closed = 1;
nodes = (
"149 0 LINE",
"211 177 LINE",
"525 177 LINE",
"587 0 LINE",
"691 0 LINE",
"429 740 LINE",
"306 740 LINE",
"45 0 LINE"
);
},
{
closed = 1;
nodes = (
"368 628 LINE",
"495 265 LINE",
"241 265 LINE"
);
},
{
closed = 1;
nodes = (
"438 812 OFFCURVE",
"496 869 OFFCURVE",
"496 940 CURVE SMOOTH",
"496 1011 OFFCURVE",
"438 1068 OFFCURVE",
"368 1068 CURVE SMOOTH",
"297 1068 OFFCURVE",
"239 1011 OFFCURVE",
"239 940 CURVE SMOOTH",
"239 869 OFFCURVE",
"297 812 OFFCURVE",
"368 812 CURVE SMOOTH"
);
},
{
closed = 1;
nodes = (
"334 880 OFFCURVE",
"307 907 OFFCURVE",
"307 940 CURVE SMOOTH",
"307 973 OFFCURVE",
"334 1000 OFFCURVE",
"368 1000 CURVE SMOOTH",
"401 1000 OFFCURVE",
"428 973 OFFCURVE",
"428 940 CURVE SMOOTH",
"428 907 OFFCURVE",
"401 880 OFFCURVE",
"368 880 CURVE SMOOTH"
);
}
);
width = 736;
}
);
leftKerningGroup = A;
rightKerningGroup = A;
unicode = 00C5;
},
{
glyphname = Atilde;
lastChange = "2021-03-14 09:41:58 +0000";
layers = (
{
anchors = (
{
name = bottom;
position = "{396, 0}";
},
{
name = ogonek;
position = "{771, 0}";
},
{
name = top;
position = "{396, 972}";
}
);
layerId = "D085834A-C5B8-45AD-B7CB-7C394966C9BB";
paths = (
{
closed = 1;
nodes = (
"220 0 LINE",
"259 124 LINE",
"532 124 LINE",
"571 0 LINE",
"771 0 LINE",
"525 740 LINE",
"266 740 LINE",
"20 0 LINE"
);
},
{
closed = 1;
nodes = (
"396 561 LINE",
"481 288 LINE",
"310 288 LINE"
);
},
{
closed = 1;
nodes = (
"565 822 OFFCURVE",
"582 912 OFFCURVE",
"582 981 CURVE",
"489 981 LINE",
"489 947 OFFCURVE",
"483 928 OFFCURVE",
"464 928 CURVE SMOOTH",
"430 928 OFFCURVE",
"398 987 OFFCURVE",
"325 987 CURVE SMOOTH",
"234 987 OFFCURVE",
"217 897 OFFCURVE",
"217 828 CURVE",
"310 828 LINE",
"310 862 OFFCURVE",
"316 881 OFFCURVE",
"336 881 CURVE SMOOTH",
"372 881 OFFCURVE",
"401 822 OFFCURVE",
"474 822 CURVE SMOOTH"
);
}
);
width = 791;
},
{
anchors = (
{
name = bottom;
position = "{327, 0}";
},
{
name = ogonek;
position = "{614, 0}";
},
{
name = top;
position = "{327, 935}";
}
);
layerId = "B45F0BEB-E489-4392-AE53-309DD1ADE040";
paths = (
{
closed = 1;
nodes = (
"77 0 LINE",
"156 220 LINE",
"498 220 LINE",
"577 0 LINE",
"614 0 LINE",
"347 740 LINE",
"307 740 LINE",
"40 0 LINE"
);
},
{
closed = 1;
nodes = (
"327 697 LINE",
"487 252 LINE",
"167 252 LINE"
);
},
{
closed = 1;
nodes = (
"432 831 OFFCURVE",
"452 878 OFFCURVE",
"452 936 CURVE",
"422 936 LINE",
"422 889 OFFCURVE",
"412 860 OFFCURVE",
"387 860 CURVE SMOOTH",
"347 860 OFFCURVE",
"333 941 OFFCURVE",
"269 941 CURVE SMOOTH",
"222 941 OFFCURVE",
"203 894 OFFCURVE",
"203 836 CURVE",
"233 836 LINE",
"233 884 OFFCURVE",
"243 912 OFFCURVE",
"269 912 CURVE SMOOTH",
"312 912 OFFCURVE",
"327 831 OFFCURVE",
"387 831 CURVE SMOOTH"
);
}
);
width = 654;
},
{
anchors = (
{
name = bottom;
position = "{368, 0}";
},
{
name = ogonek;
position = "{691, 0}";
},
{
name = top;
position = "{368, 952}";
}
);
layerId = "9D6BE6F2-0D0F-4D93-9FAF-A0B52FAE1934";
paths = (
{
closed = 1;
nodes = (
"149 0 LINE",
"211 177 LINE",
"525 177 LINE",
"587 0 LINE",
"691 0 LINE",
"429 740 LINE",
"306 740 LINE",
"45 0 LINE"
);
},
{
closed = 1;
nodes = (
"368 628 LINE",
"495 265 LINE",
"241 265 LINE"
);
},
{
closed = 1;
nodes = (
"506 827 OFFCURVE",
"525 895 OFFCURVE",
"525 957 CURVE",
"461 957 LINE",
"461 920 OFFCURVE",
"451 897 OFFCURVE",
"430 897 CURVE SMOOTH",
"394 897 OFFCURVE",
"374 962 OFFCURVE",
"301 962 CURVE SMOOTH",
"230 962 OFFCURVE",
"211 895 OFFCURVE",
"211 833 CURVE",
"275 833 LINE",
"275 869 OFFCURVE",
"284 893 OFFCURVE",
"307 893 CURVE SMOOTH",
"344 893 OFFCURVE",
"364 827 OFFCURVE",
"436 827 CURVE SMOOTH"
);
}
);
width = 736;
}
);
leftKerningGroup = A;
rightKerningGroup = A;
unicode = 00C3;
},
{
glyphname = AE;
lastChange = "2021-03-31 02:59:57 +0000";
layers = (
{
anchors = (
{
name = bottom;
position = "{648, 0}";
},
{
name = ogonek;
position = "{868, 0}";
},
{
name = top;
position = "{649, 740}";
},
{
name = topleft;
position = "{376, 700}";
}
);
layerId = "B45F0BEB-E489-4392-AE53-309DD1ADE040";
paths = (
{
closed = 1;
nodes = (
"82 0 LINE",
"460 724 LINE",
"460 740 LINE",
"432 740 LINE",
"45 0 LINE"
);
},
{
closed = 1;
nodes = (
"466 220 LINE",
"466 252 LINE",
"190 252 LINE",
"190 220 LINE"
);
},
{
closed = 1;
nodes = (
"813 362 LINE",
"813 396 LINE",
"448 396 LINE",
"448 362 LINE"
);
},
{
closed = 1;
nodes = (
"862 706 LINE",
"862 740 LINE",
"448 740 LINE",
"448 706 LINE"
);
},
{
closed = 1;
nodes = (
"868 0 LINE",
"868 34 LINE",
"448 34 LINE",
"448 0 LINE"
);
},
{
closed = 1;
nodes = (
"480 0 LINE",
"480 740 LINE",
"445 740 LINE",
"445 0 LINE"
);
}
);
width = 943;
},
{
anchors = (
{
name = bottom;
position = "{685, 0}";
},
{
name = ogonek;
position = "{1001, 0}";
},
{
name = top;
position = "{728, 740}";
},
{
name = topleft;
position = "{420, 736}";
}
);
layerId = "D085834A-C5B8-45AD-B7CB-7C394966C9BB";
paths = (
{
closed = 1;
nodes = (
"220 0 LINE",
"473 613 LINE",
"473 740 LINE",
"326 740 LINE",
"20 0 LINE"
);
},
{
closed = 1;
nodes = (
"562 124 LINE",
"562 285 LINE",
"163 285 LINE",
"163 124 LINE"
);
},
{
closed = 1;
nodes = (
"951 296 LINE",
"951 454 LINE",
"460 454 LINE",
"460 296 LINE"
);
},
{
closed = 1;
nodes = (
"996 574 LINE",
"996 740 LINE",
"460 740 LINE",
"460 574 LINE"
);
},
{
closed = 1;
nodes = (
"1001 0 LINE",
"1001 166 LINE",
"460 166 LINE",
"460 0 LINE"
);
},
{
closed = 1;
nodes = (
"652 0 LINE",
"652 740 LINE",
"460 740 LINE",
"460 0 LINE"
);
}
);
width = 1056;
},
{
anchors = (
{
name = bottom;
position = "{725, 0}";
},
{
name = ogonek;
position = "{955, 0}";
},
{
name = top;
position = "{725, 740}";
},
{
name = topleft;
position = "{422, 700}";
}
);
layerId = "9D6BE6F2-0D0F-4D93-9FAF-A0B52FAE1934";
paths = (
{
closed = 1;
nodes = (
"149 0 LINE",
"498 675 LINE",
"498 740 LINE",
"426 740 LINE",
"45 0 LINE"
);
},
{
closed = 1;
nodes = (
"564 177 LINE",
"564 265 LINE",
"207 265 LINE",
"207 177 LINE"
);
},
{
closed = 1;
nodes = (
"904 334 LINE",
"904 420 LINE",
"491 420 LINE",
"491 334 LINE"
);
},
{
closed = 1;
nodes = (
"950 654 LINE",
"950 740 LINE",
"491 740 LINE",
"491 654 LINE"
);
},
{
closed = 1;
nodes = (
"955 0 LINE",
"955 86 LINE",
"491 86 LINE",
"491 0 LINE"
);
},
{
closed = 1;
nodes = (
"578 0 LINE",
"578 740 LINE",
"480 740 LINE",
"480 0 LINE"
);
}
);
width = 1020;
}
);
leftKerningGroup = A;
leftMetricsKey = A;
rightKerningGroup = E;
rightMetricsKey = E;
unicode = 00C6;
},
{
glyphname = B;
lastChange = "2021-05-14 08:51:38 +0000";
layers = (
{
anchors = (
{
name = bottom;
position = "{156, 0}";
},
{
name = ogonek;
position = "{252, 0}";
},
{
name = top;
position = "{156, 740}";
},
{
name = topleft;
position = "{30, 736}";
}
);
layerId = "D085834A-C5B8-45AD-B7CB-7C394966C9BB";
paths = (
{
closed = 1;
nodes = (
"448 0 LINE SMOOTH",
"623 0 OFFCURVE",
"693 106 OFFCURVE",
"693 212 CURVE SMOOTH",
"693 331 OFFCURVE",
"604 381 OFFCURVE",
"546 393 CURVE",
"546 402 LINE",
"606 419 OFFCURVE",
"661 470 OFFCURVE",
"661 559 CURVE SMOOTH",
"661 660 OFFCURVE",
"585 740 OFFCURVE",
"440 740 CURVE SMOOTH",
"240 740 LINE",
"240 581 LINE",
"400 581 LINE SMOOTH",
"451 581 OFFCURVE",
"476 556 OFFCURVE",
"476 517 CURVE SMOOTH",
"476 477 OFFCURVE",
"451 452 OFFCURVE",
"400 452 CURVE SMOOTH",
"240 452 LINE",
"240 309 LINE",
"414 309 LINE SMOOTH",
"472 309 OFFCURVE",
"500 280 OFFCURVE",
"500 235 CURVE SMOOTH",
"500 189 OFFCURVE",
"472 159 OFFCURVE",
"414 159 CURVE SMOOTH",
"240 159 LINE",
"240 0 LINE"
);
},
{
closed = 1;
nodes = (
"252 0 LINE",
"252 740 LINE",
"60 740 LINE",
"60 0 LINE"
);
}
);
width = 733;
},
{
anchors = (
{
name = bottom;
position = "{108, 0}";
},
{
name = ogonek;
position = "{125, 0}";
},
{
name = top;
position = "{108, 740}";
},
{
name = topleft;
position = "{18, 740}";
}
);
layerId = "B45F0BEB-E489-4392-AE53-309DD1ADE040";
paths = (
{
closed = 1;
nodes = (
"358 0 LINE SMOOTH",
"509 0 OFFCURVE",
"581 99 OFFCURVE",
"581 195 CURVE SMOOTH",
"581 277 OFFCURVE",
"529 349 OFFCURVE",
"435 373 CURVE",
"435 377 LINE",
"513 401 OFFCURVE",
"555 475 OFFCURVE",
"555 551 CURVE SMOOTH",
"555 645 OFFCURVE",
"491 740 OFFCURVE",
"358 740 CURVE SMOOTH",
"98 740 LINE",
"98 706 LINE",
"358 706 LINE SMOOTH",
"467 706 OFFCURVE",
"522 627 OFFCURVE",
"522 549 CURVE SMOOTH",
"522 470 OFFCURVE",
"467 390 OFFCURVE",
"358 390 CURVE SMOOTH",
"98 390 LINE",
"98 358 LINE",
"358 358 LINE SMOOTH",
"484 358 OFFCURVE",
"546 276 OFFCURVE",
"546 196 CURVE SMOOTH",
"546 115 OFFCURVE",
"484 34 OFFCURVE",
"358 34 CURVE SMOOTH",
"98 34 LINE",
"98 0 LINE"
);
},
{
closed = 1;
nodes = (
"125 0 LINE",
"125 740 LINE",
"90 740 LINE",
"90 0 LINE"
);
}
);
width = 636;
},
{
anchors = (
{
name = bottom;
position = "{129, 0}";
},
{
name = ogonek;
position = "{178, 0}";
},
{
name = top;
position = "{129, 740}";
},
{
name = topleft;
position = "{25, 700}";
}
);
layerId = "9D6BE6F2-0D0F-4D93-9FAF-A0B52FAE1934";
paths = (
{
closed = 1;
nodes = (
"372 0 LINE SMOOTH",
"549 0 OFFCURVE",
"619 105 OFFCURVE",
"619 208 CURVE SMOOTH",
"619 323 OFFCURVE",
"534 369 OFFCURVE",
"486 384 CURVE",
"486 390 LINE",
"515 401 OFFCURVE",
"591 444 OFFCURVE",
"591 554 CURVE SMOOTH",
"591 654 OFFCURVE",
"506 740 OFFCURVE",
"365 740 CURVE SMOOTH",
"150 740 LINE",
"150 655 LINE",
"361 655 LINE SMOOTH",
"456 655 OFFCURVE",
"495 596 OFFCURVE",
"495 537 CURVE SMOOTH",
"495 478 OFFCURVE",
"456 419 OFFCURVE",
"361 419 CURVE SMOOTH",
"150 419 LINE",
"150 340 LINE",
"369 340 LINE SMOOTH",
"478 340 OFFCURVE",
"521 276 OFFCURVE",
"521 213 CURVE SMOOTH",
"521 149 OFFCURVE",
"478 85 OFFCURVE",
"369 85 CURVE SMOOTH",
"150 85 LINE",
"150 0 LINE"
);
},
{
closed = 1;
nodes = (
"178 0 LINE",
"178 740 LINE",
"80 740 LINE",
"80 0 LINE"
);
}
);
width = 674;
}
);
leftKerningGroup = l;
leftMetricsKey = l;
rightKerningGroup = B;
unicode = 0042;
},
{
glyphname = C;
lastChange = "2021-03-16 13:57:34 +0000";
layers = (
{
anchors = (
{
name = bottom;
position = "{408, 8}";
},
{
name = top;
position = "{408, 738}";
}
);
layerId = "D085834A-C5B8-45AD-B7CB-7C394966C9BB";
paths = (
{
closed = 1;
nodes = (
"728 -10 OFFCURVE",
"753 267 OFFCURVE",
"753 267 CURVE",
"563 267 LINE",
"563 267 OFFCURVE",
"547 161 OFFCURVE",
"410 161 CURVE SMOOTH",
"289 161 OFFCURVE",
"229 267 OFFCURVE",
"229 371 CURVE SMOOTH",
"229 475 OFFCURVE",
"289 580 OFFCURVE",
"410 580 CURVE SMOOTH",
"547 580 OFFCURVE",
"563 473 OFFCURVE",
"563 473 CURVE",
"753 473 LINE",
"753 473 OFFCURVE",
"728 750 OFFCURVE",
"408 750 CURVE SMOOTH",
"157 750 OFFCURVE",
"30 559 OFFCURVE",
"30 371 CURVE SMOOTH",
"30 181 OFFCURVE",
"157 -10 OFFCURVE",
"408 -10 CURVE SMOOTH"
);
}
);
width = 783;
},
{
anchors = (
{
name = bottom;
position = "{412, 0}";
},
{
name = top;
position = "{395, 740}";
}
);
layerId = "B45F0BEB-E489-4392-AE53-309DD1ADE040";
paths = (
{
closed = 1;
nodes = (
"664 -10 OFFCURVE",
"693 234 OFFCURVE",
"693 234 CURVE",
"656 234 LINE",
"656 234 OFFCURVE",
"630 24 OFFCURVE",
"395 24 CURVE SMOOTH",
"196 24 OFFCURVE",
"95 198 OFFCURVE",
"95 371 CURVE SMOOTH",
"95 542 OFFCURVE",
"196 716 OFFCURVE",
"395 716 CURVE SMOOTH",
"630 716 OFFCURVE",
"656 506 OFFCURVE",
"656 506 CURVE",
"693 506 LINE",
"693 506 OFFCURVE",
"664 750 OFFCURVE",
"395 750 CURVE SMOOTH",
"172 750 OFFCURVE",
"60 560 OFFCURVE",
"60 371 CURVE SMOOTH",
"60 180 OFFCURVE",
"172 -10 OFFCURVE",
"395 -10 CURVE SMOOTH"
);
}
);
width = 753;
},
{
anchors = (
{
name = bottom;
position = "{416, -4}";
},
{
name = top;
position = "{405, 740}";
}
);
guideLines = (
{
position = "{66, 713}";
},
{
position = "{57, -7}";
}
);
layerId = "9D6BE6F2-0D0F-4D93-9FAF-A0B52FAE1934";
paths = (
{
closed = 1;
nodes = (
"693 -10 OFFCURVE",
"720 247 OFFCURVE",
"720 247 CURVE",
"622 247 LINE",
"622 247 OFFCURVE",
"600 81 OFFCURVE",
"406 81 CURVE SMOOTH",
"239 81 OFFCURVE",
"155 226 OFFCURVE",
"155 370 CURVE SMOOTH",
"155 514 OFFCURVE",
"239 659 OFFCURVE",
"406 659 CURVE SMOOTH",
"600 659 OFFCURVE",
"622 494 OFFCURVE",
"622 494 CURVE",
"720 494 LINE",
"720 494 OFFCURVE",
"693 750 OFFCURVE",
"405 750 CURVE SMOOTH",
"172 750 OFFCURVE",
"55 560 OFFCURVE",
"55 370 CURVE SMOOTH",
"55 181 OFFCURVE",
"172 -10 OFFCURVE",
"405 -10 CURVE SMOOTH"
);
}
);
width = 775;
}
);
leftKerningGroup = O;
leftMetricsKey = O;
rightKerningGroup = O;
rightMetricsKey = O;
unicode = 0043;
},
{
glyphname = Cacute;
lastChange = "2021-03-14 09:41:58 +0000";
layers = (
{
anchors = (
{
name = bottom;
position = "{412, 0}";
},
{
name = top;
position = "{446, 980}";
}
);
layerId = "B45F0BEB-E489-4392-AE53-309DD1ADE040";
paths = (
{
closed = 1;
nodes = (
"664 -10 OFFCURVE",
"693 234 OFFCURVE",
"693 234 CURVE",
"656 234 LINE",
"656 234 OFFCURVE",
"630 24 OFFCURVE",
"395 24 CURVE SMOOTH",
"196 24 OFFCURVE",
"95 198 OFFCURVE",
"95 371 CURVE SMOOTH",
"95 542 OFFCURVE",
"196 716 OFFCURVE",
"395 716 CURVE SMOOTH",
"630 716 OFFCURVE",
"656 506 OFFCURVE",
"656 506 CURVE",
"693 506 LINE",
"693 506 OFFCURVE",
"664 750 OFFCURVE",
"395 750 CURVE SMOOTH",
"172 750 OFFCURVE",
"60 560 OFFCURVE",
"60 371 CURVE SMOOTH",
"60 180 OFFCURVE",
"172 -10 OFFCURVE",
"395 -10 CURVE SMOOTH"
);
},
{
closed = 1;
nodes = (
"509 980 LINE",
"468 980 LINE",
"383 828 LINE",
"417 828 LINE"
);
}
);
width = 753;
},
{
anchors = (
{
name = bottom;
position = "{408, 8}";
},
{
name = top;
position = "{473, 1006}";
}
);
layerId = "D085834A-C5B8-45AD-B7CB-7C394966C9BB";
paths = (
{
closed = 1;
nodes = (
"728 -10 OFFCURVE",
"753 267 OFFCURVE",
"753 267 CURVE",
"563 267 LINE",
"563 267 OFFCURVE",
"547 161 OFFCURVE",
"410 161 CURVE SMOOTH",
"289 161 OFFCURVE",
"229 267 OFFCURVE",
"229 371 CURVE SMOOTH",
"229 475 OFFCURVE",
"289 580 OFFCURVE",
"410 580 CURVE SMOOTH",
"547 580 OFFCURVE",
"563 473 OFFCURVE",
"563 473 CURVE",
"753 473 LINE",
"753 473 OFFCURVE",
"728 750 OFFCURVE",
"408 750 CURVE SMOOTH",
"157 750 OFFCURVE",
"30 559 OFFCURVE",
"30 371 CURVE SMOOTH",
"30 181 OFFCURVE",
"157 -10 OFFCURVE",
"408 -10 CURVE SMOOTH"
);
},
{
closed = 1;
nodes = (
"590 987 LINE",
"420 987 LINE",
"343 808 LINE",
"476 807 LINE"
);
}
);
width = 783;
},
{
anchors = (
{
name = bottom;
position = "{416, -4}";
},
{
name = top;
position = "{458, 991}";
}
);
layerId = "9D6BE6F2-0D0F-4D93-9FAF-A0B52FAE1934";
paths = (
{
closed = 1;
nodes = (
"693 -10 OFFCURVE",
"720 247 OFFCURVE",
"720 247 CURVE",
"622 247 LINE",
"622 247 OFFCURVE",
"600 81 OFFCURVE",
"406 81 CURVE SMOOTH",
"239 81 OFFCURVE",
"155 226 OFFCURVE",
"155 370 CURVE SMOOTH",
"155 514 OFFCURVE",
"239 659 OFFCURVE",
"406 659 CURVE SMOOTH",
"600 659 OFFCURVE",
"622 494 OFFCURVE",
"622 494 CURVE",
"720 494 LINE",
"720 494 OFFCURVE",
"693 750 OFFCURVE",
"405 750 CURVE SMOOTH",
"172 750 OFFCURVE",
"55 560 OFFCURVE",
"55 370 CURVE SMOOTH",
"55 181 OFFCURVE",
"172 -10 OFFCURVE",
"405 -10 CURVE SMOOTH"
);
},
{
closed = 1;
nodes = (
"548 1001 LINE",
"450 1001 LINE",
"364 821 LINE",
"445 820 LINE"
);
}
);
width = 775;
}
);
leftKerningGroup = O;
rightKerningGroup = O;
unicode = 0106;
},
{
glyphname = Ccaron;
lastChange = "2021-03-14 09:41:58 +0000";
layers = (
{
anchors = (
{
name = bottom;
position = "{412, 0}";
},
{
name = top;
position = "{395, 970}";
}
);
layerId = "B45F0BEB-E489-4392-AE53-309DD1ADE040";
paths = (
{
closed = 1;
nodes = (
"664 -10 OFFCURVE",
"693 234 OFFCURVE",
"693 234 CURVE",
"656 234 LINE",
"656 234 OFFCURVE",
"630 24 OFFCURVE",
"395 24 CURVE SMOOTH",
"196 24 OFFCURVE",
"95 198 OFFCURVE",
"95 371 CURVE SMOOTH",
"95 542 OFFCURVE",
"196 716 OFFCURVE",
"395 716 CURVE SMOOTH",
"630 716 OFFCURVE",
"656 506 OFFCURVE",
"656 506 CURVE",
"693 506 LINE",
"693 506 OFFCURVE",
"664 750 OFFCURVE",
"395 750 CURVE SMOOTH",
"172 750 OFFCURVE",
"60 560 OFFCURVE",
"60 371 CURVE SMOOTH",
"60 180 OFFCURVE",
"172 -10 OFFCURVE",
"395 -10 CURVE SMOOTH"
);
},
{
closed = 1;
nodes = (
"413 818 LINE",
"524 970 LINE",
"487 970 LINE",
"385 833 LINE",
"405 833 LINE",
"302 970 LINE",
"265 970 LINE",
"376 818 LINE"
);
}
);
width = 753;
},
{
anchors = (
{
name = bottom;
position = "{408, 8}";
},
{
name = top;
position = "{408, 968}";
}
);
layerId = "D085834A-C5B8-45AD-B7CB-7C394966C9BB";
paths = (
{
closed = 1;
nodes = (
"728 -10 OFFCURVE",
"753 267 OFFCURVE",
"753 267 CURVE",
"563 267 LINE",
"563 267 OFFCURVE",
"547 161 OFFCURVE",
"410 161 CURVE SMOOTH",
"289 161 OFFCURVE",
"229 267 OFFCURVE",
"229 371 CURVE SMOOTH",
"229 475 OFFCURVE",
"289 580 OFFCURVE",
"410 580 CURVE SMOOTH",
"547 580 OFFCURVE",
"563 473 OFFCURVE",
"563 473 CURVE",
"753 473 LINE",
"753 473 OFFCURVE",
"728 750 OFFCURVE",
"408 750 CURVE SMOOTH",
"157 750 OFFCURVE",
"30 559 OFFCURVE",
"30 371 CURVE SMOOTH",
"30 181 OFFCURVE",
"157 -10 OFFCURVE",
"408 -10 CURVE SMOOTH"
);
},
{
closed = 1;
nodes = (
"481 798 LINE",
"616 987 LINE",
"475 987 LINE",
"383 847 LINE",
"433 848 LINE",
"340 987 LINE",
"199 987 LINE",
"334 798 LINE"
);
}
);
width = 783;
},
{
anchors = (
{
name = bottom;
position = "{416, -4}";
},
{
name = top;
position = "{405, 970}";
}
);
layerId = "9D6BE6F2-0D0F-4D93-9FAF-A0B52FAE1934";
paths = (
{
closed = 1;
nodes = (
"693 -10 OFFCURVE",
"720 247 OFFCURVE",
"720 247 CURVE",
"622 247 LINE",
"622 247 OFFCURVE",
"600 81 OFFCURVE",
"406 81 CURVE SMOOTH",
"239 81 OFFCURVE",
"155 226 OFFCURVE",
"155 370 CURVE SMOOTH",
"155 514 OFFCURVE",
"239 659 OFFCURVE",
"406 659 CURVE SMOOTH",
"600 659 OFFCURVE",
"622 494 OFFCURVE",
"622 494 CURVE",
"720 494 LINE",
"720 494 OFFCURVE",
"693 750 OFFCURVE",
"405 750 CURVE SMOOTH",
"172 750 OFFCURVE",
"55 560 OFFCURVE",
"55 370 CURVE SMOOTH",
"55 181 OFFCURVE",
"172 -10 OFFCURVE",
"405 -10 CURVE SMOOTH"
);
},
{
closed = 1;
nodes = (
"446 805 LINE",
"567 972 LINE",
"481 972 LINE",
"379 828 LINE",
"431 828 LINE",
"330 972 LINE",
"244 972 LINE",
"365 805 LINE"
);
}
);
width = 775;
}
);
leftKerningGroup = O;
rightKerningGroup = O;
unicode = 010C;
},
{
glyphname = Ccedilla;
lastChange = "2021-05-04 16:09:08 +0000";
layers = (
{
anchors = (
{
name = bottom;
position = "{419, -249}";
},
{
name = top;
position = "{395, 740}";
}
);
layerId = "B45F0BEB-E489-4392-AE53-309DD1ADE040";
paths = (
{
closed = 1;
nodes = (
"664 -10 OFFCURVE",
"693 234 OFFCURVE",
"693 234 CURVE",
"656 234 LINE",
"656 234 OFFCURVE",
"630 24 OFFCURVE",
"395 24 CURVE SMOOTH",
"196 24 OFFCURVE",
"95 198 OFFCURVE",
"95 371 CURVE SMOOTH",
"95 542 OFFCURVE",
"196 716 OFFCURVE",
"395 716 CURVE SMOOTH",
"630 716 OFFCURVE",
"656 506 OFFCURVE",
"656 506 CURVE",
"693 506 LINE",
"693 506 OFFCURVE",
"664 750 OFFCURVE",
"395 750 CURVE SMOOTH",
"172 750 OFFCURVE",
"60 560 OFFCURVE",
"60 371 CURVE SMOOTH",
"60 180 OFFCURVE",
"172 -10 OFFCURVE",
"395 -10 CURVE SMOOTH"
);
},
{
closed = 1;
nodes = (
"488 -249 OFFCURVE",
"519 -198 OFFCURVE",
"519 -155 CURVE SMOOTH",
"519 -112 OFFCURVE",
"489 -71 OFFCURVE",
"426 -71 CURVE SMOOTH",
"369 -71 OFFCURVE",
"350 -107 OFFCURVE",
"350 -107 CURVE",
"371 -107 LINE",
"427 0 LINE",
"395 0 LINE",
"341 -103 LINE",
"360 -122 LINE",
"360 -122 OFFCURVE",
"384 -102 OFFCURVE",
"421 -102 CURVE SMOOTH",
"465 -102 OFFCURVE",
"486 -129 OFFCURVE",
"486 -157 CURVE SMOOTH",
"486 -185 OFFCURVE",
"465 -218 OFFCURVE",
"411 -218 CURVE SMOOTH",
"381 -218 OFFCURVE",
"349 -209 OFFCURVE",
"349 -209 CURVE",
"349 -241 LINE",
"349 -241 OFFCURVE",
"378 -249 OFFCURVE",
"411 -249 CURVE SMOOTH"
);
}
);
width = 753;
},
{
anchors = (
{
name = bottom;
position = "{450, -242}";
},
{
name = top;
position = "{408, 738}";
}
);
layerId = "D085834A-C5B8-45AD-B7CB-7C394966C9BB";
paths = (
{
closed = 1;
nodes = (
"728 -10 OFFCURVE",
"753 267 OFFCURVE",
"753 267 CURVE",
"563 267 LINE",
"563 267 OFFCURVE",
"547 161 OFFCURVE",
"410 161 CURVE SMOOTH",
"289 161 OFFCURVE",
"229 267 OFFCURVE",
"229 371 CURVE SMOOTH",
"229 475 OFFCURVE",
"289 580 OFFCURVE",
"410 580 CURVE SMOOTH",
"547 580 OFFCURVE",
"563 473 OFFCURVE",
"563 473 CURVE",
"753 473 LINE",
"753 473 OFFCURVE",
"728 750 OFFCURVE",
"408 750 CURVE SMOOTH",
"157 750 OFFCURVE",
"30 559 OFFCURVE",
"30 371 CURVE SMOOTH",
"30 181 OFFCURVE",
"157 -10 OFFCURVE",
"408 -10 CURVE SMOOTH"
);
},
{
closed = 1;
nodes = (
"501 -263 OFFCURVE",
"556 -203 OFFCURVE",
"556 -136 CURVE SMOOTH",
"556 -75 OFFCURVE",
"513 -28 OFFCURVE",
"446 -28 CURVE SMOOTH",
"370 -28 OFFCURVE",
"355 -92 OFFCURVE",
"355 -92 CURVE",
"382 -92 LINE",
"475 31 LINE",
"360 31 LINE",
"292 -62 LINE",
"356 -127 LINE",
"356 -127 OFFCURVE",
"382 -108 OFFCURVE",
"410 -108 CURVE SMOOTH",
"431 -108 OFFCURVE",
"445 -118 OFFCURVE",
"445 -134 CURVE SMOOTH",
"445 -150 OFFCURVE",
"431 -169 OFFCURVE",
"373 -169 CURVE SMOOTH",
"341 -169 OFFCURVE",
"294 -163 OFFCURVE",
"294 -163 CURVE",
"294 -255 LINE",
"294 -255 OFFCURVE",
"342 -263 OFFCURVE",
"383 -263 CURVE SMOOTH"
);
}
);
width = 783;
},
{
anchors = (
{
name = bottom;
position = "{433, -253}";
},
{
name = top;
position = "{405, 740}";
}
);
layerId = "9D6BE6F2-0D0F-4D93-9FAF-A0B52FAE1934";
paths = (
{
closed = 1;
nodes = (
"693 -10 OFFCURVE",
"720 247 OFFCURVE",
"720 247 CURVE",
"622 247 LINE",
"622 247 OFFCURVE",
"600 81 OFFCURVE",
"406 81 CURVE SMOOTH",
"239 81 OFFCURVE",
"155 226 OFFCURVE",
"155 370 CURVE SMOOTH",
"155 514 OFFCURVE",
"239 659 OFFCURVE",
"406 659 CURVE SMOOTH",
"600 659 OFFCURVE",
"622 494 OFFCURVE",
"622 494 CURVE",
"720 494 LINE",
"720 494 OFFCURVE",
"693 750 OFFCURVE",
"405 750 CURVE SMOOTH",
"172 750 OFFCURVE",
"55 560 OFFCURVE",
"55 370 CURVE SMOOTH",
"55 181 OFFCURVE",
"172 -10 OFFCURVE",
"405 -10 CURVE SMOOTH"
);
},
{
closed = 1;
nodes = (
"489 -259 OFFCURVE",
"528 -202 OFFCURVE",
"528 -149 CURVE SMOOTH",
"528 -98 OFFCURVE",
"492 -67 OFFCURVE",
"430 -67 CURVE SMOOTH",
"364 -67 OFFCURVE",
"347 -103 OFFCURVE",
"347 -103 CURVE",
"372 -103 LINE",
"443 10 LINE",
"376 10 LINE",
"316 -89 LINE",
"353 -126 LINE",
"353 -126 OFFCURVE",
"376 -107 OFFCURVE",
"409 -107 CURVE SMOOTH",
"444 -107 OFFCURVE",
"462 -127 OFFCURVE",
"462 -150 CURVE SMOOTH",
"462 -173 OFFCURVE",
"445 -201 OFFCURVE",
"388 -201 CURVE SMOOTH",
"361 -201 OFFCURVE",
"322 -195 OFFCURVE",
"322 -195 CURVE",
"322 -253 LINE",
"322 -253 OFFCURVE",
"360 -259 OFFCURVE",
"392 -259 CURVE SMOOTH"
);
}
);
width = 775;
}
);
leftKerningGroup = O;
rightKerningGroup = O;
unicode = 00C7;
},
{
glyphname = Cdotaccent;
lastChange = "2021-03-14 09:41:58 +0000";
layers = (
{
anchors = (
{
name = bottom;
position = "{412, 0}";
},
{
name = top;
position = "{395, 957}";
}
);
layerId = "B45F0BEB-E489-4392-AE53-309DD1ADE040";
paths = (
{
closed = 1;
nodes = (
"664 -10 OFFCURVE",
"693 234 OFFCURVE",
"693 234 CURVE",
"656 234 LINE",
"656 234 OFFCURVE",
"630 24 OFFCURVE",
"395 24 CURVE SMOOTH",
"196 24 OFFCURVE",
"95 198 OFFCURVE",
"95 371 CURVE SMOOTH",
"95 542 OFFCURVE",
"196 716 OFFCURVE",
"395 716 CURVE SMOOTH",
"630 716 OFFCURVE",
"656 506 OFFCURVE",
"656 506 CURVE",
"693 506 LINE",
"693 506 OFFCURVE",
"664 750 OFFCURVE",
"395 750 CURVE SMOOTH",
"172 750 OFFCURVE",
"60 560 OFFCURVE",
"60 371 CURVE SMOOTH",
"60 180 OFFCURVE",
"172 -10 OFFCURVE",
"395 -10 CURVE SMOOTH"
);
},
{
closed = 1;
nodes = (
"414.1 845.25 OFFCURVE",
"430.25 861.4 OFFCURVE",
"430.25 881.35 CURVE SMOOTH",
"430.25 900.35 OFFCURVE",
"414.1 916.5 OFFCURVE",
"394.15 916.5 CURVE SMOOTH",
"374.2 916.5 OFFCURVE",
"359 900.35 OFFCURVE",
"359 881.35 CURVE SMOOTH",
"359 861.4 OFFCURVE",
"374.2 845.25 OFFCURVE",
"394.15 845.25 CURVE SMOOTH"
);
}
);
width = 753;
},
{
anchors = (
{
name = bottom;
position = "{408, 8}";
},
{
name = top;
position = "{408, 1024}";
}
);
layerId = "D085834A-C5B8-45AD-B7CB-7C394966C9BB";
paths = (
{
closed = 1;
nodes = (
"728 -10 OFFCURVE",
"753 267 OFFCURVE",
"753 267 CURVE",
"563 267 LINE",
"563 267 OFFCURVE",
"547 161 OFFCURVE",
"410 161 CURVE SMOOTH",
"289 161 OFFCURVE",
"229 267 OFFCURVE",
"229 371 CURVE SMOOTH",
"229 475 OFFCURVE",
"289 580 OFFCURVE",
"410 580 CURVE SMOOTH",
"547 580 OFFCURVE",
"563 473 OFFCURVE",
"563 473 CURVE",
"753 473 LINE",
"753 473 OFFCURVE",
"728 750 OFFCURVE",
"408 750 CURVE SMOOTH",
"157 750 OFFCURVE",
"30 559 OFFCURVE",
"30 371 CURVE SMOOTH",
"30 181 OFFCURVE",
"157 -10 OFFCURVE",
"408 -10 CURVE SMOOTH"
);
},
{
closed = 1;
nodes = (
"471.1 790.5 OFFCURVE",
"517.3 837.75 OFFCURVE",
"517.3 894.45 CURVE SMOOTH",
"517.3 952.2 OFFCURVE",
"471.1 998.4 OFFCURVE",
"408.4 998.4 CURVE SMOOTH",
"344.6 998.4 OFFCURVE",
"299.5 952.2 OFFCURVE",
"299.5 894.45 CURVE SMOOTH",
"299.5 837.75 OFFCURVE",
"344.6 790.5 OFFCURVE",
"408.4 790.5 CURVE SMOOTH"
);
}
);
width = 783;
},
{
anchors = (
{
name = bottom;
position = "{416, -4}";
},
{
name = top;
position = "{405, 957}";
}
);
layerId = "9D6BE6F2-0D0F-4D93-9FAF-A0B52FAE1934";
paths = (
{
closed = 1;
nodes = (
"693 -10 OFFCURVE",
"720 247 OFFCURVE",
"720 247 CURVE",
"622 247 LINE",
"622 247 OFFCURVE",
"600 81 OFFCURVE",
"406 81 CURVE SMOOTH",
"239 81 OFFCURVE",
"155 226 OFFCURVE",
"155 370 CURVE SMOOTH",
"155 514 OFFCURVE",
"239 659 OFFCURVE",
"406 659 CURVE SMOOTH",
"600 659 OFFCURVE",
"622 494 OFFCURVE",
"622 494 CURVE",
"720 494 LINE",
"720 494 OFFCURVE",
"693 750 OFFCURVE",
"405 750 CURVE SMOOTH",
"172 750 OFFCURVE",
"55 560 OFFCURVE",
"55 370 CURVE SMOOTH",
"55 181 OFFCURVE",
"172 -10 OFFCURVE",
"405 -10 CURVE SMOOTH"
);
},
{
closed = 1;
nodes = (
"440 840.5 OFFCURVE",
"466.6 868.05 OFFCURVE",
"466.6 902.25 CURVE SMOOTH",
"466.6 936.45 OFFCURVE",
"440 964 OFFCURVE",
"404.85 964 CURVE SMOOTH",
"368.75 964 OFFCURVE",
"343.1 936.45 OFFCURVE",
"343.1 902.25 CURVE SMOOTH",
"343.1 869 OFFCURVE",
"368.75 840.5 OFFCURVE",
"404.85 840.5 CURVE SMOOTH"
);
}
);
width = 775;
}
);
leftKerningGroup = O;
rightKerningGroup = O;
unicode = 010A;
},
{
glyphname = D;
lastChange = "2021-05-14 08:51:38 +0000";
layers = (
{
anchors = (
{
name = bottom;
position = "{383, 0}";
},
{
name = center;
position = "{383, 370}";
},
{
name = ogonek;
position = "{252, 0}";
},
{
name = top;
position = "{366, 740}";
},
{
name = topleft;
position = "{30, 736}";
}
);
layerId = "D085834A-C5B8-45AD-B7CB-7C394966C9BB";
paths = (
{
closed = 1;
nodes = (
"366 0 LINE SMOOTH",
"612 0 OFFCURVE",
"736 185 OFFCURVE",
"736 370 CURVE SMOOTH",
"736 555 OFFCURVE",
"612 740 OFFCURVE",
"366 740 CURVE SMOOTH",
"233 740 LINE",
"233 572 LINE",
"357 572 LINE SMOOTH",
"486 572 OFFCURVE",
"543 471 OFFCURVE",
"543 372 CURVE SMOOTH",
"543 272 OFFCURVE",
"486 171 OFFCURVE",
"357 171 CURVE SMOOTH",
"233 171 LINE",
"233 0 LINE"
);
},
{
closed = 1;
nodes = (
"252 0 LINE",
"252 740 LINE",
"60 740 LINE",
"60 0 LINE"
);
}
);
width = 766;
},
{
anchors = (
{
name = bottom;
position = "{353, 0}";
},
{
name = center;
position = "{353, 370}";
},
{
name = ogonek;
position = "{125, 0}";
},
{
name = top;
position = "{303, 740}";
},
{
name = topleft;
position = "{18, 740}";
}
);
guideLines = (
{
angle = 180;
position = "{317, 34}";
}
);
layerId = "B45F0BEB-E489-4392-AE53-309DD1ADE040";
paths = (
{
closed = 1;
nodes = (
"303 0 LINE SMOOTH",
"534 0 OFFCURVE",
"648 185 OFFCURVE",
"648 370 CURVE SMOOTH",
"648 555 OFFCURVE",
"534 740 OFFCURVE",
"303 740 CURVE SMOOTH",
"109 740 LINE",
"109 706 LINE",
"303 706 LINE SMOOTH",
"509 706 OFFCURVE",
"612 538 OFFCURVE",
"612 370 CURVE SMOOTH",
"612 202 OFFCURVE",
"509 34 OFFCURVE",
"303 34 CURVE SMOOTH",
"109 34 LINE",
"109 0 LINE"
);
},
{
closed = 1;
nodes = (
"125 0 LINE",
"125 740 LINE",
"90 740 LINE",
"90 0 LINE"
);
}
);
width = 708;
},
{
anchors = (
{
name = bottom;
position = "{359, 0}";
},
{
name = center;
position = "{359, 370}";
},
{
name = ogonek;
position = "{178, 0}";
},
{
name = top;
position = "{320, 740}";
},
{
name = topleft;
position = "{25, 700}";
}
);
guideLines = (
{
angle = 180;
position = "{327, 34}";
}
);
layerId = "9D6BE6F2-0D0F-4D93-9FAF-A0B52FAE1934";
paths = (
{
closed = 1;
nodes = (
"320 0 LINE SMOOTH",
"556 0 OFFCURVE",
"673 185 OFFCURVE",
"673 370 CURVE SMOOTH",
"673 555 OFFCURVE",
"556 740 OFFCURVE",
"320 740 CURVE SMOOTH",
"150 740 LINE",
"150 654 LINE",
"316 654 LINE SMOOTH",
"489 654 OFFCURVE",
"575 512 OFFCURVE",
"575 370 CURVE SMOOTH",
"575 228 OFFCURVE",
"489 86 OFFCURVE",
"316 86 CURVE SMOOTH",
"150 86 LINE",
"150 0 LINE"
);
},
{
closed = 1;
nodes = (
"178 0 LINE",
"178 740 LINE",
"80 740 LINE",
"80 0 LINE"
);
}
);
width = 728;
}
);
leftKerningGroup = h;
leftMetricsKey = l;
rightKerningGroup = O;
rightMetricsKey = O;
unicode = 0044;
},
{
glyphname = Eth;
lastChange = "2021-03-14 09:41:58 +0000";
layers = (
{
anchors = (
{
name = bottom;
position = "{398, 0}";
},
{
name = center;
position = "{398, 370}";
},
{
name = ogonek;
position = "{170, 0}";
},
{
name = top;
position = "{348, 740}";
},
{
name = topleft;
position = "{63, 740}";
}
);
layerId = "B45F0BEB-E489-4392-AE53-309DD1ADE040";
paths = (
{
closed = 1;
nodes = (
"343 354 LINE",
"343 386 LINE",
"30 386 LINE",
"30 354 LINE"
);
},
{
closed = 1;
nodes = (
"348 0 LINE SMOOTH",
"579 0 OFFCURVE",
"693 185 OFFCURVE",
"693 370 CURVE SMOOTH",
"693 555 OFFCURVE",
"579 740 OFFCURVE",
"348 740 CURVE SMOOTH",
"154 740 LINE",
"154 706 LINE",
"348 706 LINE SMOOTH",
"554 706 OFFCURVE",
"657 538 OFFCURVE",
"657 370 CURVE SMOOTH",
"657 202 OFFCURVE",
"554 34 OFFCURVE",
"348 34 CURVE SMOOTH",
"154 34 LINE",
"154 0 LINE"
);
},
{
closed = 1;
nodes = (
"170 0 LINE",
"170 740 LINE",
"135 740 LINE",
"135 0 LINE"
);
}
);
width = 753;
},
{
anchors = (
{
name = bottom;
position = "{399, 0}";
},
{
name = center;
position = "{399, 370}";
},
{
name = ogonek;
position = "{268, 0}";
},
{
name = top;
position = "{382, 740}";
},
{
name = topleft;
position = "{46, 736}";
}
);
layerId = "D085834A-C5B8-45AD-B7CB-7C394966C9BB";
paths = (
{
closed = 1;
nodes = (
"395 296 LINE",
"395 444 LINE",
"5 444 LINE",
"5 296 LINE"
);
},
{
closed = 1;
nodes = (
"382 0 LINE SMOOTH",
"628 0 OFFCURVE",
"752 185 OFFCURVE",
"752 370 CURVE SMOOTH",
"752 555 OFFCURVE",
"628 740 OFFCURVE",
"382 740 CURVE SMOOTH",
"249 740 LINE",
"249 572 LINE",
"373 572 LINE SMOOTH",
"502 572 OFFCURVE",
"559 471 OFFCURVE",
"559 372 CURVE SMOOTH",
"559 272 OFFCURVE",
"502 171 OFFCURVE",
"373 171 CURVE SMOOTH",
"249 171 LINE",
"249 0 LINE"
);
},
{
closed = 1;
nodes = (
"268 0 LINE",
"268 740 LINE",
"76 740 LINE",
"76 0 LINE"
);
}
);
width = 782;
},
{
anchors = (
{
name = bottom;
position = "{419, 0}";
},
{
name = center;
position = "{419, 370}";
},
{
name = ogonek;
position = "{238, 0}";
},
{
name = top;
position = "{380, 740}";
},
{
name = topleft;
position = "{85, 700}";
}
);
layerId = "9D6BE6F2-0D0F-4D93-9FAF-A0B52FAE1934";
paths = (
{
closed = 1;
nodes = (
"394 326 LINE",
"394 414 LINE",
"40 414 LINE",
"40 326 LINE"
);
},
{
closed = 1;
nodes = (
"380 0 LINE SMOOTH",
"616 0 OFFCURVE",
"733 185 OFFCURVE",
"733 370 CURVE SMOOTH",
"733 555 OFFCURVE",
"616 740 OFFCURVE",
"380 740 CURVE SMOOTH",
"210 740 LINE",
"210 654 LINE",
"376 654 LINE SMOOTH",
"549 654 OFFCURVE",
"635 512 OFFCURVE",
"635 370 CURVE SMOOTH",
"635 228 OFFCURVE",
"549 86 OFFCURVE",
"376 86 CURVE SMOOTH",
"210 86 LINE",
"210 0 LINE"
);
},
{
closed = 1;
nodes = (
"238 0 LINE",
"238 740 LINE",
"140 740 LINE",
"140 0 LINE"
);
}
);
width = 788;
}
);
rightKerningGroup = O;
unicode = 00D0;
},
{
glyphname = Dcaron;
lastChange = "2021-03-14 09:41:58 +0000";
layers = (
{
anchors = (
{
name = bottom;
position = "{353, 0}";
},
{
name = center;
position = "{353, 370}";
},
{
name = ogonek;
position = "{125, 0}";
},
{
name = top;
position = "{303, 970}";
},
{
name = topleft;
position = "{18, 740}";
}
);
layerId = "B45F0BEB-E489-4392-AE53-309DD1ADE040";
paths = (
{
closed = 1;
nodes = (
"303 0 LINE SMOOTH",
"534 0 OFFCURVE",
"648 185 OFFCURVE",
"648 370 CURVE SMOOTH",
"648 555 OFFCURVE",
"534 740 OFFCURVE",
"303 740 CURVE SMOOTH",
"109 740 LINE",
"109 706 LINE",
"303 706 LINE SMOOTH",
"509 706 OFFCURVE",
"612 538 OFFCURVE",
"612 370 CURVE SMOOTH",
"612 202 OFFCURVE",
"509 34 OFFCURVE",
"303 34 CURVE SMOOTH",
"109 34 LINE",
"109 0 LINE"
);
},
{
closed = 1;
nodes = (
"125 0 LINE",
"125 740 LINE",
"90 740 LINE",
"90 0 LINE"
);
},
{
closed = 1;
nodes = (
"321 818 LINE",
"432 970 LINE",
"395 970 LINE",
"293 833 LINE",
"313 833 LINE",
"210 970 LINE",
"173 970 LINE",
"284 818 LINE"
);
}
);
width = 708;
},
{
anchors = (
{
name = bottom;
position = "{383, 0}";
},
{
name = center;
position = "{383, 370}";
},
{
name = ogonek;
position = "{252, 0}";
},
{
name = top;
position = "{366, 970}";
},
{
name = topleft;
position = "{30, 736}";
}
);
layerId = "D085834A-C5B8-45AD-B7CB-7C394966C9BB";
paths = (
{
closed = 1;
nodes = (
"366 0 LINE SMOOTH",
"612 0 OFFCURVE",
"736 185 OFFCURVE",
"736 370 CURVE SMOOTH",
"736 555 OFFCURVE",
"612 740 OFFCURVE",
"366 740 CURVE SMOOTH",
"233 740 LINE",
"233 572 LINE",
"357 572 LINE SMOOTH",
"486 572 OFFCURVE",
"543 471 OFFCURVE",
"543 372 CURVE SMOOTH",
"543 272 OFFCURVE",
"486 171 OFFCURVE",
"357 171 CURVE SMOOTH",
"233 171 LINE",
"233 0 LINE"
);
},
{
closed = 1;
nodes = (
"252 0 LINE",
"252 740 LINE",
"60 740 LINE",
"60 0 LINE"
);
},
{
closed = 1;
nodes = (
"439 800 LINE",
"574 989 LINE",
"433 989 LINE",
"341 849 LINE",
"391 850 LINE",
"298 989 LINE",
"157 989 LINE",
"292 800 LINE"
);
}
);
width = 766;
},
{
anchors = (
{
name = bottom;
position = "{369, 0}";
},
{
name = center;
position = "{369, 370}";
},
{
name = ogonek;
position = "{188, 0}";
},
{
name = top;
position = "{330, 970}";
},
{
name = topleft;
position = "{35, 700}";
}
);
layerId = "9D6BE6F2-0D0F-4D93-9FAF-A0B52FAE1934";
paths = (
{
closed = 1;
nodes = (
"330 0 LINE SMOOTH",
"566 0 OFFCURVE",
"683 185 OFFCURVE",
"683 370 CURVE SMOOTH",
"683 555 OFFCURVE",
"566 740 OFFCURVE",
"330 740 CURVE SMOOTH",
"160 740 LINE",
"160 654 LINE",
"326 654 LINE SMOOTH",
"499 654 OFFCURVE",
"585 512 OFFCURVE",
"585 370 CURVE SMOOTH",
"585 228 OFFCURVE",
"499 86 OFFCURVE",
"326 86 CURVE SMOOTH",
"160 86 LINE",
"160 0 LINE"
);
},
{
closed = 1;
nodes = (
"188 0 LINE",
"188 740 LINE",
"90 740 LINE",
"90 0 LINE"
);
},
{
closed = 1;
nodes = (
"371 805 LINE",
"492 972 LINE",
"406 972 LINE",
"304 828 LINE",
"356 828 LINE",
"255 972 LINE",
"169 972 LINE",
"290 805 LINE"
);
}
);
width = 738;
}
);
leftKerningGroup = h;
rightKerningGroup = O;
unicode = 010E;
},
{
glyphname = Dcroat;
lastChange = "2021-03-14 09:41:58 +0000";
layers = (
{
anchors = (
{
name = bottom;
position = "{399, 0}";
},
{
name = center;
position = "{399, 370}";
},
{
name = ogonek;
position = "{268, 0}";
},
{
name = top;
position = "{382, 740}";
},
{
name = topleft;
position = "{46, 736}";
}
);
layerId = "D085834A-C5B8-45AD-B7CB-7C394966C9BB";
paths = (
{
closed = 1;
nodes = (
"395 296 LINE",
"395 444 LINE",
"5 444 LINE",
"5 296 LINE"
);
},
{
closed = 1;
nodes = (
"382 0 LINE SMOOTH",
"628 0 OFFCURVE",
"752 185 OFFCURVE",
"752 370 CURVE SMOOTH",
"752 555 OFFCURVE",
"628 740 OFFCURVE",
"382 740 CURVE SMOOTH",
"249 740 LINE",
"249 572 LINE",
"373 572 LINE SMOOTH",
"502 572 OFFCURVE",
"559 471 OFFCURVE",
"559 372 CURVE SMOOTH",
"559 272 OFFCURVE",
"502 171 OFFCURVE",
"373 171 CURVE SMOOTH",
"249 171 LINE",
"249 0 LINE"
);
},
{
closed = 1;
nodes = (
"268 0 LINE",
"268 740 LINE",
"76 740 LINE",
"76 0 LINE"
);
}
);
width = 782;
},
{
anchors = (
{
name = bottom;
position = "{398, 0}";
},
{
name = center;
position = "{398, 370}";
},
{
name = ogonek;
position = "{170, 0}";
},
{
name = top;
position = "{348, 740}";
},
{
name = topleft;
position = "{63, 740}";
}
);
layerId = "B45F0BEB-E489-4392-AE53-309DD1ADE040";
paths = (
{
closed = 1;
nodes = (
"343 354 LINE",
"343 386 LINE",
"30 386 LINE",
"30 354 LINE"
);
},
{
closed = 1;
nodes = (
"348 0 LINE SMOOTH",
"579 0 OFFCURVE",
"693 185 OFFCURVE",
"693 370 CURVE SMOOTH",
"693 555 OFFCURVE",
"579 740 OFFCURVE",
"348 740 CURVE SMOOTH",
"154 740 LINE",
"154 706 LINE",
"348 706 LINE SMOOTH",
"554 706 OFFCURVE",
"657 538 OFFCURVE",
"657 370 CURVE SMOOTH",
"657 202 OFFCURVE",
"554 34 OFFCURVE",
"348 34 CURVE SMOOTH",
"154 34 LINE",
"154 0 LINE"
);
},
{
closed = 1;
nodes = (
"170 0 LINE",
"170 740 LINE",
"135 740 LINE",
"135 0 LINE"
);
}
);
width = 753;
},
{
anchors = (
{
name = bottom;
position = "{419, 0}";
},
{
name = center;
position = "{419, 370}";
},
{
name = ogonek;
position = "{238, 0}";
},
{
name = top;
position = "{380, 740}";
},
{
name = topleft;
position = "{85, 700}";
}
);
layerId = "9D6BE6F2-0D0F-4D93-9FAF-A0B52FAE1934";
paths = (
{
closed = 1;
nodes = (
"394 326 LINE",
"394 414 LINE",
"40 414 LINE",
"40 326 LINE"
);
},
{
closed = 1;
nodes = (
"380 0 LINE SMOOTH",
"616 0 OFFCURVE",
"733 185 OFFCURVE",
"733 370 CURVE SMOOTH",
"733 555 OFFCURVE",
"616 740 OFFCURVE",
"380 740 CURVE SMOOTH",
"210 740 LINE",
"210 654 LINE",
"376 654 LINE SMOOTH",
"549 654 OFFCURVE",
"635 512 OFFCURVE",
"635 370 CURVE SMOOTH",
"635 228 OFFCURVE",
"549 86 OFFCURVE",
"376 86 CURVE SMOOTH",
"210 86 LINE",
"210 0 LINE"
);
},
{
closed = 1;
nodes = (
"238 0 LINE",
"238 740 LINE",
"140 740 LINE",
"140 0 LINE"
);
}
);
width = 788;
}
);
rightKerningGroup = O;
rightMetricsKey = O;
unicode = 0110;
},
{
glyphname = E;
lastChange = "2021-05-14 08:51:20 +0000";
layers = (
{
anchors = (
{
name = bottom;
position = "{285, 0}";
},
{
name = ogonek;
position = "{601, 0}";
},
{
name = top;
position = "{328, 740}";
},
{
name = topleft;
position = "{20, 736}";
}
);
layerId = "D085834A-C5B8-45AD-B7CB-7C394966C9BB";
paths = (
{
closed = 1;
nodes = (
"551 296 LINE",
"551 454 LINE",
"60 454 LINE",
"60 296 LINE"
);
},
{
closed = 1;
nodes = (
"596 574 LINE",
"596 740 LINE",
"60 740 LINE",
"60 574 LINE"
);
},
{
closed = 1;
nodes = (
"601 0 LINE",
"601 166 LINE",
"60 166 LINE",
"60 0 LINE"
);
},
{
closed = 1;
nodes = (
"252 0 LINE",
"252 740 LINE",
"60 740 LINE",
"60 0 LINE"
);
}
);
width = 656;
},
{
anchors = (
{
name = bottom;
position = "{293, 0}";
},
{
name = ogonek;
position = "{513, 0}";
},
{
name = top;
position = "{294, 740}";
},
{
name = topleft;
position = "{21, 700}";
}
);
layerId = "B45F0BEB-E489-4392-AE53-309DD1ADE040";
paths = (
{
closed = 1;
nodes = (
"458 362 LINE",
"458 396 LINE",
"93 396 LINE",
"93 362 LINE"
);
},
{
closed = 1;
nodes = (
"507 706 LINE",
"507 740 LINE",
"93 740 LINE",
"93 706 LINE"
);
},
{
closed = 1;
nodes = (
"513 0 LINE",
"513 34 LINE",
"93 34 LINE",
"93 0 LINE"
);
},
{
closed = 1;
nodes = (
"125 0 LINE",
"125 740 LINE",
"90 740 LINE",
"90 0 LINE"
);
}
);
width = 588;
},
{
anchors = (
{
name = bottom;
position = "{325, 0}";
},
{
name = ogonek;
position = "{555, 0}";
},
{
name = top;
position = "{325, 740}";
},
{
name = topleft;
position = "{22, 700}";
}
);
layerId = "9D6BE6F2-0D0F-4D93-9FAF-A0B52FAE1934";
paths = (
{
closed = 1;
nodes = (
"504 334 LINE",
"504 420 LINE",
"91 420 LINE",
"91 334 LINE"
);
},
{
closed = 1;
nodes = (
"550 654 LINE",
"550 740 LINE",
"91 740 LINE",
"91 654 LINE"
);
},
{
closed = 1;
nodes = (
"555 0 LINE",
"555 86 LINE",
"91 86 LINE",
"91 0 LINE"
);
},
{
closed = 1;
nodes = (
"178 0 LINE",
"178 740 LINE",
"80 740 LINE",
"80 0 LINE"
);
}
);
width = 620;
}
);
leftKerningGroup = l;
leftMetricsKey = l;
rightKerningGroup = E;
unicode = 0045;
},
{
glyphname = Eacute;
lastChange = "2021-03-14 09:41:58 +0000";
layers = (
{
anchors = (
{
name = bottom;
position = "{285, 0}";
},
{
name = ogonek;
position = "{601, 0}";
},
{
name = top;
position = "{393, 1008}";
},
{
name = topleft;
position = "{20, 736}";
}
);
layerId = "D085834A-C5B8-45AD-B7CB-7C394966C9BB";
paths = (
{
closed = 1;
nodes = (
"551 296 LINE",
"551 454 LINE",
"60 454 LINE",
"60 296 LINE"
);
},
{
closed = 1;
nodes = (
"596 574 LINE",
"596 740 LINE",
"60 740 LINE",
"60 574 LINE"
);
},
{
closed = 1;
nodes = (
"601 0 LINE",
"601 166 LINE",
"60 166 LINE",
"60 0 LINE"
);
},
{
closed = 1;
nodes = (
"252 0 LINE",
"252 740 LINE",
"60 740 LINE",
"60 0 LINE"
);
},
{
closed = 1;
nodes = (
"510 989 LINE",
"340 989 LINE",
"263 810 LINE",
"396 809 LINE"
);
}
);
width = 656;
},
{
anchors = (
{
name = bottom;
position = "{293, 0}";
},
{
name = ogonek;
position = "{513, 0}";
},
{
name = top;
position = "{345, 980}";
},
{
name = topleft;
position = "{21, 700}";
}
);
layerId = "B45F0BEB-E489-4392-AE53-309DD1ADE040";
paths = (
{
closed = 1;
nodes = (
"458 362 LINE",
"458 396 LINE",
"93 396 LINE",
"93 362 LINE"
);
},
{
closed = 1;
nodes = (
"507 706 LINE",
"507 740 LINE",
"93 740 LINE",
"93 706 LINE"
);
},
{
closed = 1;
nodes = (
"513 0 LINE",
"513 34 LINE",
"93 34 LINE",
"93 0 LINE"
);
},
{
closed = 1;
nodes = (
"125 0 LINE",
"125 740 LINE",
"90 740 LINE",
"90 0 LINE"
);
},
{
closed = 1;
nodes = (
"408 980 LINE",
"367 980 LINE",
"282 828 LINE",
"316 828 LINE"
);
}
);
width = 588;
},
{
anchors = (
{
name = bottom;
position = "{335, 0}";
},
{
name = ogonek;
position = "{565, 0}";
},
{
name = top;
position = "{388, 991}";
},
{
name = topleft;
position = "{32, 700}";
}
);
layerId = "9D6BE6F2-0D0F-4D93-9FAF-A0B52FAE1934";
paths = (
{
closed = 1;
nodes = (
"514 334 LINE",
"514 420 LINE",
"101 420 LINE",
"101 334 LINE"
);
},
{
closed = 1;
nodes = (
"560 654 LINE",
"560 740 LINE",
"101 740 LINE",
"101 654 LINE"
);
},
{
closed = 1;
nodes = (
"565 0 LINE",
"565 86 LINE",
"101 86 LINE",
"101 0 LINE"
);
},
{
closed = 1;
nodes = (
"188 0 LINE",
"188 740 LINE",
"90 740 LINE",
"90 0 LINE"
);
},
{
closed = 1;
nodes = (
"478 1001 LINE",
"380 1001 LINE",
"294 821 LINE",
"375 820 LINE"
);
}
);
width = 630;
}
);
leftKerningGroup = l;
rightKerningGroup = E;
unicode = 00C9;
},
{
glyphname = Ecaron;
lastChange = "2021-03-14 09:41:58 +0000";
layers = (
{
anchors = (
{
name = bottom;
position = "{293, 0}";
},
{
name = ogonek;
position = "{513, 0}";
},
{
name = top;
position = "{294, 970}";
},
{
name = topleft;
position = "{21, 700}";
}
);
layerId = "B45F0BEB-E489-4392-AE53-309DD1ADE040";
paths = (
{
closed = 1;
nodes = (
"458 362 LINE",
"458 396 LINE",
"93 396 LINE",
"93 362 LINE"
);
},
{
closed = 1;
nodes = (
"507 706 LINE",
"507 740 LINE",
"93 740 LINE",
"93 706 LINE"
);
},
{
closed = 1;
nodes = (
"513 0 LINE",
"513 34 LINE",
"93 34 LINE",
"93 0 LINE"
);
},
{
closed = 1;
nodes = (
"125 0 LINE",
"125 740 LINE",
"90 740 LINE",
"90 0 LINE"
);
},
{
closed = 1;
nodes = (
"312 818 LINE",
"423 970 LINE",
"386 970 LINE",
"284 833 LINE",
"304 833 LINE",
"201 970 LINE",
"164 970 LINE",
"275 818 LINE"
);
}
);
width = 588;
},
{
anchors = (
{
name = bottom;
position = "{285, 0}";
},
{
name = ogonek;
position = "{601, 0}";
},
{
name = top;
position = "{328, 970}";
},
{
name = topleft;
position = "{20, 736}";
}
);
layerId = "D085834A-C5B8-45AD-B7CB-7C394966C9BB";
paths = (
{
closed = 1;
nodes = (
"551 296 LINE",
"551 454 LINE",
"60 454 LINE",
"60 296 LINE"
);
},
{
closed = 1;
nodes = (
"596 574 LINE",
"596 740 LINE",
"60 740 LINE",
"60 574 LINE"
);
},
{
closed = 1;
nodes = (
"601 0 LINE",
"601 166 LINE",
"60 166 LINE",
"60 0 LINE"
);
},
{
closed = 1;
nodes = (
"252 0 LINE",
"252 740 LINE",
"60 740 LINE",
"60 0 LINE"
);
},
{
closed = 1;
nodes = (
"401 800 LINE",
"536 989 LINE",
"395 989 LINE",
"303 849 LINE",
"353 850 LINE",
"260 989 LINE",
"119 989 LINE",
"254 800 LINE"
);
}
);
width = 656;
},
{
anchors = (
{
name = bottom;
position = "{335, 0}";
},
{
name = ogonek;
position = "{565, 0}";
},
{
name = top;
position = "{335, 970}";
},
{
name = topleft;
position = "{32, 700}";
}
);
layerId = "9D6BE6F2-0D0F-4D93-9FAF-A0B52FAE1934";
paths = (
{
closed = 1;
nodes = (
"514 334 LINE",
"514 420 LINE",
"101 420 LINE",
"101 334 LINE"
);
},
{
closed = 1;
nodes = (
"560 654 LINE",
"560 740 LINE",
"101 740 LINE",
"101 654 LINE"
);
},
{
closed = 1;
nodes = (
"565 0 LINE",
"565 86 LINE",
"101 86 LINE",
"101 0 LINE"
);
},
{
closed = 1;
nodes = (
"188 0 LINE",
"188 740 LINE",
"90 740 LINE",
"90 0 LINE"
);
},
{
closed = 1;
nodes = (
"376 805 LINE",
"497 972 LINE",
"411 972 LINE",
"309 828 LINE",
"361 828 LINE",
"260 972 LINE",
"174 972 LINE",
"295 805 LINE"
);
}
);
width = 630;
}
);
leftKerningGroup = l;
rightKerningGroup = E;
unicode = 011A;
},
{
glyphname = Ecircumflex;
lastChange = "2021-03-14 09:41:58 +0000";
layers = (
{
anchors = (
{
name = bottom;
position = "{285, 0}";
},
{
name = ogonek;
position = "{601, 0}";
},
{
name = top;
position = "{532, 860}";
},
{
name = topleft;
position = "{20, 736}";
}
);
layerId = "D085834A-C5B8-45AD-B7CB-7C394966C9BB";
paths = (
{
closed = 1;
nodes = (
"551 296 LINE",
"551 454 LINE",
"60 454 LINE",
"60 296 LINE"
);
},
{
closed = 1;
nodes = (
"596 574 LINE",
"596 740 LINE",
"60 740 LINE",
"60 574 LINE"
);
},
{
closed = 1;
nodes = (
"601 0 LINE",
"601 166 LINE",
"60 166 LINE",
"60 0 LINE"
);
},
{
closed = 1;
nodes = (
"252 0 LINE",
"252 740 LINE",
"60 740 LINE",
"60 0 LINE"
);
},
{
closed = 1;
nodes = (
"261 799 LINE",
"329 880 LINE",
"396 799 LINE",
"537 799 LINE",
"402 958 LINE",
"255 958 LINE",
"120 799 LINE"
);
}
);
width = 656;
},
{
anchors = (
{
name = bottom;
position = "{293, 0}";
},
{
name = ogonek;
position = "{513, 0}";
},
{
name = top;
position = "{426, 849}";
},
{
name = topleft;
position = "{21, 700}";
}
);
layerId = "B45F0BEB-E489-4392-AE53-309DD1ADE040";
paths = (
{
closed = 1;
nodes = (
"458 362 LINE",
"458 396 LINE",
"93 396 LINE",
"93 362 LINE"
);
},
{
closed = 1;
nodes = (
"507 706 LINE",
"507 740 LINE",
"93 740 LINE",
"93 706 LINE"
);
},
{
closed = 1;
nodes = (
"513 0 LINE",
"513 34 LINE",
"93 34 LINE",
"93 0 LINE"
);
},
{
closed = 1;
nodes = (
"125 0 LINE",
"125 740 LINE",
"90 740 LINE",
"90 0 LINE"
);
},
{
closed = 1;
nodes = (
"202 818 LINE",
"295 932 LINE",
"387 818 LINE",
"424 818 LINE",
"313 956 LINE",
"276 956 LINE",
"165 818 LINE"
);
}
);
width = 588;
},
{
anchors = (
{
name = bottom;
position = "{335, 0}";
},
{
name = ogonek;
position = "{565, 0}";
},
{
name = top;
position = "{488, 864}";
},
{
name = topleft;
position = "{32, 700}";
}
);
layerId = "9D6BE6F2-0D0F-4D93-9FAF-A0B52FAE1934";
paths = (
{
closed = 1;
nodes = (
"514 334 LINE",
"514 420 LINE",
"101 420 LINE",
"101 334 LINE"
);
},
{
closed = 1;
nodes = (
"560 654 LINE",
"560 740 LINE",
"101 740 LINE",
"101 654 LINE"
);
},
{
closed = 1;
nodes = (
"565 0 LINE",
"565 86 LINE",
"101 86 LINE",
"101 0 LINE"
);
},
{
closed = 1;
nodes = (
"188 0 LINE",
"188 740 LINE",
"90 740 LINE",
"90 0 LINE"
);
},
{
closed = 1;
nodes = (
"260 816 LINE",
"335 908 LINE",
"411 816 LINE",
"497 816 LINE",
"376 963 LINE",
"295 963 LINE",
"174 816 LINE"
);
}
);
width = 630;
}
);
leftKerningGroup = l;
rightKerningGroup = E;
unicode = 00CA;
},
{
glyphname = Ecircumflexacute;
lastChange = "2021-03-14 09:41:58 +0000";
layers = (
{
anchors = (
{
name = bottom;
position = "{285, 0}";
},
{
name = ogonek;
position = "{601, 0}";
},
{
name = top;
position = "{328, 740}";
},
{
name = topleft;
position = "{20, 736}";
}
);
layerId = "D085834A-C5B8-45AD-B7CB-7C394966C9BB";
paths = (
{
closed = 1;
nodes = (
"551 296 LINE",
"551 454 LINE",
"60 454 LINE",
"60 296 LINE"
);
},
{
closed = 1;
nodes = (
"596 574 LINE",
"596 740 LINE",
"60 740 LINE",
"60 574 LINE"
);
},
{
closed = 1;
nodes = (
"601 0 LINE",
"601 166 LINE",
"60 166 LINE",
"60 0 LINE"
);
},
{
closed = 1;
nodes = (
"252 0 LINE",
"252 740 LINE",
"60 740 LINE",
"60 0 LINE"
);
},
{
closed = 1;
nodes = (
"260 799 LINE",
"328 880 LINE",
"395 799 LINE",
"536 799 LINE",
"401 958 LINE",
"254 958 LINE",
"119 799 LINE"
);
},
{
closed = 1;
nodes = (
"713 1109 LINE",
"543 1109 LINE",
"466 930 LINE",
"599 929 LINE"
);
}
);
width = 656;
},
{
anchors = (
{
name = bottom;
position = "{293, 0}";
},
{
name = ogonek;
position = "{513, 0}";
},
{
name = top;
position = "{294, 740}";
},
{
name = topleft;
position = "{21, 700}";
}
);
layerId = "B45F0BEB-E489-4392-AE53-309DD1ADE040";
paths = (
{
closed = 1;
nodes = (
"458 362 LINE",
"458 396 LINE",
"93 396 LINE",
"93 362 LINE"
);
},
{
closed = 1;
nodes = (
"507 706 LINE",
"507 740 LINE",
"93 740 LINE",
"93 706 LINE"
);
},
{
closed = 1;
nodes = (
"513 0 LINE",
"513 34 LINE",
"93 34 LINE",
"93 0 LINE"
);
},
{
closed = 1;
nodes = (
"125 0 LINE",
"125 740 LINE",
"90 740 LINE",
"90 0 LINE"
);
},
{
closed = 1;
nodes = (
"204 818 LINE",
"297 932 LINE",
"389 818 LINE",
"426 818 LINE",
"315 956 LINE",
"278 956 LINE",
"167 818 LINE"
);
},
{
closed = 1;
nodes = (
"542 1089 LINE",
"501 1089 LINE",
"416 937 LINE",
"450 937 LINE"
);
}
);
width = 588;
},
{
anchors = (
{
name = bottom;
position = "{335, 0}";
},
{
name = ogonek;
position = "{565, 0}";
},
{
name = top;
position = "{335, 740}";
},
{
name = topleft;
position = "{32, 700}";
}
);
layerId = "9D6BE6F2-0D0F-4D93-9FAF-A0B52FAE1934";
paths = (
{
closed = 1;
nodes = (
"514 334 LINE",
"514 420 LINE",
"101 420 LINE",
"101 334 LINE"
);
},
{
closed = 1;
nodes = (
"560 654 LINE",
"560 740 LINE",
"101 740 LINE",
"101 654 LINE"
);
},
{
closed = 1;
nodes = (
"565 0 LINE",
"565 86 LINE",
"101 86 LINE",
"101 0 LINE"
);
},
{
closed = 1;
nodes = (
"188 0 LINE",
"188 740 LINE",
"90 740 LINE",
"90 0 LINE"
);
},
{
closed = 1;
nodes = (
"260 816 LINE",
"335 908 LINE",
"411 816 LINE",
"497 816 LINE",
"376 963 LINE",
"295 963 LINE",
"174 816 LINE"
);
},
{
closed = 1;
nodes = (
"631 1125 LINE",
"533 1125 LINE",
"447 945 LINE",
"528 944 LINE"
);
}
);
width = 630;
}
);
leftKerningGroup = l;
rightKerningGroup = E;
unicode = 1EBE;
},
{
glyphname = Ecircumflexdotbelow;
lastChange = "2021-03-14 09:41:58 +0000";
layers = (
{
anchors = (
{
name = bottom;
position = "{285, -274}";
},
{
name = ogonek;
position = "{601, 0}";
},
{
name = top;
position = "{532, 860}";
},
{
name = topleft;
position = "{20, 736}";
}
);
layerId = "D085834A-C5B8-45AD-B7CB-7C394966C9BB";
paths = (
{
closed = 1;
nodes = (
"551 296 LINE",
"551 454 LINE",
"60 454 LINE",
"60 296 LINE"
);
},
{
closed = 1;
nodes = (
"596 574 LINE",
"596 740 LINE",
"60 740 LINE",
"60 574 LINE"
);
},
{
closed = 1;
nodes = (
"601 0 LINE",
"601 166 LINE",
"60 166 LINE",
"60 0 LINE"
);
},
{
closed = 1;
nodes = (
"252 0 LINE",
"252 740 LINE",
"60 740 LINE",
"60 0 LINE"
);
},
{
closed = 1;
nodes = (
"335.9 -260 OFFCURVE",
"373.7 -219.5 OFFCURVE",
"373.7 -170.9 CURVE SMOOTH",
"373.7 -121.4 OFFCURVE",
"335.9 -81.8 OFFCURVE",
"284.6 -81.8 CURVE SMOOTH",
"232.4 -81.8 OFFCURVE",
"195.5 -121.4 OFFCURVE",
"195.5 -170.9 CURVE SMOOTH",
"195.5 -219.5 OFFCURVE",
"232.4 -260 OFFCURVE",
"284.6 -260 CURVE SMOOTH"
);
},
{
closed = 1;
nodes = (
"261 799 LINE",
"329 880 LINE",
"396 799 LINE",
"537 799 LINE",
"402 958 LINE",
"255 958 LINE",
"120 799 LINE"
);
}
);
width = 656;
},
{
anchors = (
{
name = bottom;
position = "{293, -200}";
},
{
name = ogonek;
position = "{513, 0}";
},
{
name = top;
position = "{426, 849}";
},
{
name = topleft;
position = "{21, 700}";
}
);
layerId = "B45F0BEB-E489-4392-AE53-309DD1ADE040";
paths = (
{
closed = 1;
nodes = (
"458 362 LINE",
"458 396 LINE",
"93 396 LINE",
"93 362 LINE"
);
},
{
closed = 1;
nodes = (
"507 706 LINE",
"507 740 LINE",
"93 740 LINE",
"93 706 LINE"
);
},
{
closed = 1;
nodes = (
"513 0 LINE",
"513 34 LINE",
"93 34 LINE",
"93 0 LINE"
);
},
{
closed = 1;
nodes = (
"125 0 LINE",
"125 740 LINE",
"90 740 LINE",
"90 0 LINE"
);
},
{
closed = 1;
nodes = (
"313 -192 OFFCURVE",
"330 -175 OFFCURVE",
"330 -154 CURVE SMOOTH",
"330 -134 OFFCURVE",
"313 -117 OFFCURVE",
"292 -117 CURVE SMOOTH",
"271 -117 OFFCURVE",
"255 -134 OFFCURVE",
"255 -154 CURVE SMOOTH",
"255 -175 OFFCURVE",
"271 -192 OFFCURVE",
"292 -192 CURVE SMOOTH"
);
},
{
closed = 1;
nodes = (
"202 818 LINE",
"295 932 LINE",
"387 818 LINE",
"424 818 LINE",
"313 956 LINE",
"276 956 LINE",
"165 818 LINE"
);
}
);
width = 588;
},
{
anchors = (
{
name = bottom;
position = "{335, -250}";
},
{
name = ogonek;
position = "{565, 0}";
},
{
name = top;
position = "{488, 864}";
},
{
name = topleft;
position = "{32, 700}";
}
);
layerId = "9D6BE6F2-0D0F-4D93-9FAF-A0B52FAE1934";
paths = (
{
closed = 1;
nodes = (
"514 334 LINE",
"514 420 LINE",
"101 420 LINE",
"101 334 LINE"
);
},
{
closed = 1;
nodes = (
"560 654 LINE",
"560 740 LINE",
"101 740 LINE",
"101 654 LINE"
);
},
{
closed = 1;
nodes = (
"565 0 LINE",
"565 86 LINE",
"101 86 LINE",
"101 0 LINE"
);
},
{
closed = 1;
nodes = (
"188 0 LINE",
"188 740 LINE",
"90 740 LINE",
"90 0 LINE"
);
},
{
closed = 1;
nodes = (
"372 -227 OFFCURVE",
"400 -198 OFFCURVE",
"400 -162 CURVE SMOOTH",
"400 -126 OFFCURVE",
"372 -97 OFFCURVE",
"335 -97 CURVE SMOOTH",
"297 -97 OFFCURVE",
"270 -126 OFFCURVE",
"270 -162 CURVE SMOOTH",
"270 -197 OFFCURVE",
"297 -227 OFFCURVE",
"335 -227 CURVE SMOOTH"
);
},
{
closed = 1;
nodes = (
"260 816 LINE",
"335 908 LINE",
"411 816 LINE",
"497 816 LINE",
"376 963 LINE",
"295 963 LINE",
"174 816 LINE"
);
}
);
width = 630;
}
);
leftKerningGroup = l;
rightKerningGroup = E;
unicode = 1EC6;
},
{
glyphname = Ecircumflexgrave;
lastChange = "2021-03-14 09:41:58 +0000";
layers = (
{
anchors = (
{
name = bottom;
position = "{285, 0}";
},
{
name = ogonek;
position = "{601, 0}";
},
{
name = top;
position = "{336, 1281}";
},
{
name = topleft;
position = "{20, 736}";
}
);
layerId = "D085834A-C5B8-45AD-B7CB-7C394966C9BB";
paths = (
{
closed = 1;
nodes = (
"551 296 LINE",
"551 454 LINE",
"60 454 LINE",
"60 296 LINE"
);
},
{
closed = 1;
nodes = (
"596 574 LINE",
"596 740 LINE",
"60 740 LINE",
"60 574 LINE"
);
},
{
closed = 1;
nodes = (
"601 0 LINE",
"601 166 LINE",
"60 166 LINE",
"60 0 LINE"
);
},
{
closed = 1;
nodes = (
"252 0 LINE",
"252 740 LINE",
"60 740 LINE",
"60 0 LINE"
);
},
{
closed = 1;
nodes = (
"261 799 LINE",
"329 880 LINE",
"396 799 LINE",
"537 799 LINE",
"402 958 LINE",
"255 958 LINE",
"120 799 LINE"
);
},
{
closed = 1;
nodes = (
"620 930 LINE",
"543 1109 LINE",
"373 1109 LINE",
"487 929 LINE"
);
}
);
width = 656;
},
{
anchors = (
{
name = bottom;
position = "{293, 0}";
},
{
name = ogonek;
position = "{513, 0}";
},
{
name = top;
position = "{319, 1100}";
},
{
name = topleft;
position = "{21, 700}";
}
);
layerId = "B45F0BEB-E489-4392-AE53-309DD1ADE040";
paths = (
{
closed = 1;
nodes = (
"458 362 LINE",
"458 396 LINE",
"93 396 LINE",
"93 362 LINE"
);
},
{
closed = 1;
nodes = (
"507 706 LINE",
"507 740 LINE",
"93 740 LINE",
"93 706 LINE"
);
},
{
closed = 1;
nodes = (
"513 0 LINE",
"513 34 LINE",
"93 34 LINE",
"93 0 LINE"
);
},
{
closed = 1;
nodes = (
"125 0 LINE",
"125 740 LINE",
"90 740 LINE",
"90 0 LINE"
);
},
{
closed = 1;
nodes = (
"202 818 LINE",
"295 932 LINE",
"387 818 LINE",
"424 818 LINE",
"313 956 LINE",
"276 956 LINE",
"165 818 LINE"
);
},
{
closed = 1;
nodes = (
"455 937 LINE",
"370 1089 LINE",
"329 1089 LINE",
"421 937 LINE"
);
}
);
width = 588;
},
{
anchors = (
{
name = bottom;
position = "{335, 0}";
},
{
name = ogonek;
position = "{565, 0}";
},
{
name = top;
position = "{350, 1100}";
},
{
name = topleft;
position = "{32, 700}";
}
);
layerId = "9D6BE6F2-0D0F-4D93-9FAF-A0B52FAE1934";
paths = (
{
closed = 1;
nodes = (
"514 334 LINE",
"514 420 LINE",
"101 420 LINE",
"101 334 LINE"
);
},
{
closed = 1;
nodes = (
"560 654 LINE",
"560 740 LINE",
"101 740 LINE",
"101 654 LINE"
);
},
{
closed = 1;
nodes = (
"565 0 LINE",
"565 86 LINE",
"101 86 LINE",
"101 0 LINE"
);
},
{
closed = 1;
nodes = (
"188 0 LINE",
"188 740 LINE",
"90 740 LINE",
"90 0 LINE"
);
},
{
closed = 1;
nodes = (
"260 816 LINE",
"335 908 LINE",
"411 816 LINE",
"497 816 LINE",
"376 963 LINE",
"295 963 LINE",
"174 816 LINE"
);
},
{
closed = 1;
nodes = (
"553 945 LINE",
"467 1125 LINE",
"369 1125 LINE",
"472 944 LINE"
);
}
);
width = 630;
}
);
leftKerningGroup = l;
rightKerningGroup = E;
unicode = 1EC0;
},
{
glyphname = Ecircumflexhookabove;
lastChange = "2021-03-14 09:41:58 +0000";
layers = (
{
anchors = (
{
name = bottom;
position = "{285, 0}";
},
{
name = ogonek;
position = "{601, 0}";
},
{
name = top;
position = "{328, 740}";
},
{
name = topleft;
position = "{20, 736}";
}
);
layerId = "D085834A-C5B8-45AD-B7CB-7C394966C9BB";
paths = (
{
closed = 1;
nodes = (
"551 296 LINE",
"551 454 LINE",
"60 454 LINE",
"60 296 LINE"
);
},
{
closed = 1;
nodes = (
"596 574 LINE",
"596 740 LINE",
"60 740 LINE",
"60 574 LINE"
);
},
{
closed = 1;
nodes = (
"601 0 LINE",
"601 166 LINE",
"60 166 LINE",
"60 0 LINE"
);
},
{
closed = 1;
nodes = (
"252 0 LINE",
"252 740 LINE",
"60 740 LINE",
"60 0 LINE"
);
},
{
closed = 1;
nodes = (
"255 799 LINE",
"323 880 LINE",
"390 799 LINE",
"531 799 LINE",
"396 958 LINE",
"249 958 LINE",
"114 799 LINE"
);
},
{
closed = 1;
nodes = (
"598 907 LINE",
"598 978 LINE",
"560 913 LINE",
"603 937 LINE SMOOTH",
"647 961 OFFCURVE",
"689 990 OFFCURVE",
"689 1044 CURVE SMOOTH",
"689 1105 OFFCURVE",
"635 1158 OFFCURVE",
"547 1158 CURVE SMOOTH",
"449 1158 OFFCURVE",
"411 1088 OFFCURVE",
"413 1032 CURVE",
"514 1032 LINE",
"514 1032 OFFCURVE",
"514 1069 OFFCURVE",
"549 1069 CURVE SMOOTH",
"568 1069 OFFCURVE",
"581 1056 OFFCURVE",
"581 1040 CURVE SMOOTH",
"581 1018 OFFCURVE",
"565 1008 OFFCURVE",
"540 995 CURVE SMOOTH",
"524 987 LINE SMOOTH",
"504 977 OFFCURVE",
"496 960 OFFCURVE",
"496 940 CURVE SMOOTH",
"496 907 LINE"
);
}
);
width = 656;
},
{
anchors = (
{
name = bottom;
position = "{293, 0}";
},
{
name = ogonek;
position = "{513, 0}";
},
{
name = top;
position = "{294, 740}";
},
{
name = topleft;
position = "{21, 700}";
}
);
layerId = "B45F0BEB-E489-4392-AE53-309DD1ADE040";
paths = (
{
closed = 1;
nodes = (
"458 362 LINE",
"458 396 LINE",
"93 396 LINE",
"93 362 LINE"
);
},
{
closed = 1;
nodes = (
"507 706 LINE",
"507 740 LINE",
"93 740 LINE",
"93 706 LINE"
);
},
{
closed = 1;
nodes = (
"513 0 LINE",
"513 34 LINE",
"93 34 LINE",
"93 0 LINE"
);
},
{
closed = 1;
nodes = (
"125 0 LINE",
"125 740 LINE",
"90 740 LINE",
"90 0 LINE"
);
},
{
closed = 1;
nodes = (
"202 818 LINE",
"295 932 LINE",
"387 818 LINE",
"424 818 LINE",
"313 956 LINE",
"276 956 LINE",
"165 818 LINE"
);
},
{
closed = 1;
nodes = (
"442 923 LINE",
"442 974 LINE",
"419 947 LINE",
"443 958 LINE SMOOTH",
"498 983 OFFCURVE",
"516 1013 OFFCURVE",
"516 1043 CURVE SMOOTH",
"516 1084 OFFCURVE",
"485 1114 OFFCURVE",
"434 1114 CURVE SMOOTH",
"383 1114 OFFCURVE",
"352 1084 OFFCURVE",
"352 1037 CURVE",
"381 1037 LINE",
"381 1060 OFFCURVE",
"392 1086 OFFCURVE",
"434 1086 CURVE SMOOTH",
"473 1086 OFFCURVE",
"486 1062 OFFCURVE",
"486 1042 CURVE SMOOTH",
"486 1016 OFFCURVE",
"467 997 OFFCURVE",
"439 983 CURVE SMOOTH",
"427 977 LINE SMOOTH",
"418 973 OFFCURVE",
"414 965 OFFCURVE",
"414 955 CURVE SMOOTH",
"414 923 LINE"
);
}
);
width = 588;
},
{
anchors = (
{
name = bottom;
position = "{335, 0}";
},
{
name = ogonek;
position = "{565, 0}";
},
{
name = top;
position = "{335, 740}";
},
{
name = topleft;
position = "{32, 700}";
}
);
layerId = "9D6BE6F2-0D0F-4D93-9FAF-A0B52FAE1934";
paths = (
{
closed = 1;
nodes = (
"514 334 LINE",
"514 420 LINE",
"101 420 LINE",
"101 334 LINE"
);
},
{
closed = 1;
nodes = (
"560 654 LINE",
"560 740 LINE",
"101 740 LINE",
"101 654 LINE"
);
},
{
closed = 1;
nodes = (
"565 0 LINE",
"565 86 LINE",
"101 86 LINE",
"101 0 LINE"
);
},
{
closed = 1;
nodes = (
"188 0 LINE",
"188 740 LINE",
"90 740 LINE",
"90 0 LINE"
);
},
{
closed = 1;
nodes = (
"260 816 LINE",
"335 908 LINE",
"411 816 LINE",
"497 816 LINE",
"376 963 LINE",
"295 963 LINE",
"174 816 LINE"
);
},
{
closed = 1;
nodes = (
"521 937 LINE",
"521 997 LINE",
"491 952 LINE",
"525 968 LINE SMOOTH",
"581 995 OFFCURVE",
"605 1027 OFFCURVE",
"605 1065 CURVE SMOOTH",
"605 1116 OFFCURVE",
"561 1158 OFFCURVE",
"491 1158 CURVE SMOOTH",
"414 1158 OFFCURVE",
"380 1106 OFFCURVE",
"381 1057 CURVE",
"447 1057 LINE",
"447 1068 OFFCURVE",
"452 1100 OFFCURVE",
"492 1100 CURVE SMOOTH",
"522 1100 OFFCURVE",
"536 1081 OFFCURVE",
"536 1063 CURVE SMOOTH",
"536 1044 OFFCURVE",
"522 1028 OFFCURVE",
"490 1012 CURVE SMOOTH",
"476 1005 LINE SMOOTH",
"460 997 OFFCURVE",
"456 982 OFFCURVE",
"456 969 CURVE SMOOTH",
"456 937 LINE"
);
}
);
width = 630;
}
);
leftKerningGroup = l;
rightKerningGroup = E;
unicode = 1EC2;
},
{
glyphname = Ecircumflextilde;
lastChange = "2021-05-04 15:55:57 +0000";
layers = (
{
anchors = (
{
name = bottom;
position = "{285, 0}";
},
{
name = ogonek;
position = "{601, 0}";
},
{
name = top;
position = "{328, 1174}";
},
{
name = topleft;
position = "{20, 736}";
}
);
layerId = "D085834A-C5B8-45AD-B7CB-7C394966C9BB";
paths = (
{
closed = 1;
nodes = (
"551 296 LINE",
"551 454 LINE",
"60 454 LINE",
"60 296 LINE"
);
},
{
closed = 1;
nodes = (
"596 574 LINE",
"596 740 LINE",
"60 740 LINE",
"60 574 LINE"
);
},
{
closed = 1;
nodes = (
"601 0 LINE",
"601 166 LINE",
"60 166 LINE",
"60 0 LINE"
);
},
{
closed = 1;
nodes = (
"252 0 LINE",
"252 740 LINE",
"60 740 LINE",
"60 0 LINE"
);
},
{
closed = 1;
nodes = (
"260 799 LINE",
"328 880 LINE",
"395 799 LINE",
"536 799 LINE",
"401 958 LINE",
"254 958 LINE",
"119 799 LINE"
);
},
{
closed = 1;
nodes = (
"493 992 OFFCURVE",
"510 1082 OFFCURVE",
"510 1151 CURVE",
"417 1151 LINE",
"417 1117 OFFCURVE",
"411 1098 OFFCURVE",
"392 1098 CURVE SMOOTH",
"358 1098 OFFCURVE",
"326 1157 OFFCURVE",
"253 1157 CURVE SMOOTH",
"162 1157 OFFCURVE",
"145 1067 OFFCURVE",
"145 998 CURVE",
"238 998 LINE",
"238 1032 OFFCURVE",
"244 1051 OFFCURVE",
"264 1051 CURVE SMOOTH",
"300 1051 OFFCURVE",
"329 992 OFFCURVE",
"402 992 CURVE SMOOTH"
);
}
);
width = 656;
},
{
anchors = (
{
name = bottom;
position = "{293, 0}";
},
{
name = ogonek;
position = "{513, 0}";
},
{
name = top;
position = "{294, 740}";
},
{
name = topleft;
position = "{21, 700}";
}
);
layerId = "B45F0BEB-E489-4392-AE53-309DD1ADE040";
paths = (
{
closed = 1;
nodes = (
"458 362 LINE",
"458 396 LINE",
"93 396 LINE",
"93 362 LINE"
);
},
{
closed = 1;
nodes = (
"507 706 LINE",
"507 740 LINE",
"93 740 LINE",
"93 706 LINE"
);
},
{
closed = 1;
nodes = (
"513 0 LINE",
"513 34 LINE",
"93 34 LINE",
"93 0 LINE"
);
},
{
closed = 1;
nodes = (
"125 0 LINE",
"125 740 LINE",
"90 740 LINE",
"90 0 LINE"
);
},
{
closed = 1;
nodes = (
"202 818 LINE",
"295 932 LINE",
"387 818 LINE",
"424 818 LINE",
"313 956 LINE",
"276 956 LINE",
"165 818 LINE"
);
},
{
closed = 1;
nodes = (
"399 996 OFFCURVE",
"419 1043 OFFCURVE",
"419 1101 CURVE",
"389 1101 LINE",
"389 1054 OFFCURVE",
"379 1025 OFFCURVE",
"354 1025 CURVE SMOOTH",
"314 1025 OFFCURVE",
"300 1106 OFFCURVE",
"236 1106 CURVE SMOOTH",
"189 1106 OFFCURVE",
"170 1059 OFFCURVE",
"170 1001 CURVE",
"200 1001 LINE",
"200 1049 OFFCURVE",
"210 1077 OFFCURVE",
"236 1077 CURVE SMOOTH",
"279 1077 OFFCURVE",
"294 996 OFFCURVE",
"354 996 CURVE SMOOTH"
);
}
);
width = 588;
},
{
anchors = (
{
name = bottom;
position = "{335, 0}";
},
{
name = ogonek;
position = "{565, 0}";
},
{
name = top;
position = "{334, 1098}";
},
{
name = topleft;
position = "{32, 700}";
}
);
layerId = "9D6BE6F2-0D0F-4D93-9FAF-A0B52FAE1934";
paths = (
{
closed = 1;
nodes = (
"514 334 LINE",
"514 420 LINE",
"101 420 LINE",
"101 334 LINE"
);
},
{
closed = 1;
nodes = (
"560 654 LINE",
"560 740 LINE",
"101 740 LINE",
"101 654 LINE"
);
},
{
closed = 1;
nodes = (
"565 0 LINE",
"565 86 LINE",
"101 86 LINE",
"101 0 LINE"
);
},
{
closed = 1;
nodes = (
"188 0 LINE",
"188 740 LINE",
"90 740 LINE",
"90 0 LINE"
);
},
{
closed = 1;
nodes = (
"259 816 LINE",
"334 908 LINE",
"410 816 LINE",
"496 816 LINE",
"375 963 LINE",
"294 963 LINE",
"173 816 LINE"
);
},
{
closed = 1;
nodes = (
"473 1002 OFFCURVE",
"492 1070 OFFCURVE",
"492 1132 CURVE",
"428 1132 LINE",
"428 1095 OFFCURVE",
"418 1072 OFFCURVE",
"397 1072 CURVE SMOOTH",
"361 1072 OFFCURVE",
"341 1137 OFFCURVE",
"268 1137 CURVE SMOOTH",
"197 1137 OFFCURVE",
"178 1070 OFFCURVE",
"178 1008 CURVE",
"242 1008 LINE",
"242 1044 OFFCURVE",
"251 1068 OFFCURVE",
"274 1068 CURVE SMOOTH",
"311 1068 OFFCURVE",
"331 1002 OFFCURVE",
"403 1002 CURVE SMOOTH"
);
}
);
width = 630;
}
);
leftKerningGroup = l;
rightKerningGroup = E;
unicode = 1EC4;
},
{
glyphname = Edieresis;
lastChange = "2021-03-14 09:41:58 +0000";
layers = (
{
anchors = (
{
name = bottom;
position = "{293, 0}";
},
{
name = ogonek;
position = "{513, 0}";
},
{
name = top;
position = "{294, 912}";
},
{
name = topleft;
position = "{21, 700}";
}
);
layerId = "B45F0BEB-E489-4392-AE53-309DD1ADE040";
paths = (
{
closed = 1;
nodes = (
"458 362 LINE",
"458 396 LINE",
"93 396 LINE",
"93 362 LINE"
);
},
{
closed = 1;
nodes = (
"507 706 LINE",
"507 740 LINE",
"93 740 LINE",
"93 706 LINE"
);
},
{
closed = 1;
nodes = (
"513 0 LINE",
"513 34 LINE",
"93 34 LINE",
"93 0 LINE"
);
},
{
closed = 1;
nodes = (
"125 0 LINE",
"125 740 LINE",
"90 740 LINE",
"90 0 LINE"
);
},
{
closed = 1;
nodes = (
"383.1 840.25 OFFCURVE",
"399.25 856.4 OFFCURVE",
"399.25 876.35 CURVE SMOOTH",
"399.25 895.35 OFFCURVE",
"383.1 911.5 OFFCURVE",
"363.15 911.5 CURVE SMOOTH",
"343.2 911.5 OFFCURVE",
"328 895.35 OFFCURVE",
"328 876.35 CURVE SMOOTH",
"328 856.4 OFFCURVE",
"343.2 840.25 OFFCURVE",
"363.15 840.25 CURVE SMOOTH"
);
},
{
closed = 1;
nodes = (
"244.1 840.25 OFFCURVE",
"260.25 856.4 OFFCURVE",
"260.25 876.35 CURVE SMOOTH",
"260.25 895.35 OFFCURVE",
"244.1 911.5 OFFCURVE",
"224.15 911.5 CURVE SMOOTH",
"204.2 911.5 OFFCURVE",
"189 895.35 OFFCURVE",
"189 876.35 CURVE SMOOTH",
"189 856.4 OFFCURVE",
"204.2 840.25 OFFCURVE",
"224.15 840.25 CURVE SMOOTH"
);
}
);
width = 588;
},
{
anchors = (
{
name = bottom;
position = "{285, 0}";
},
{
name = ogonek;
position = "{601, 0}";
},
{
name = top;
position = "{328, 983}";
},
{
name = topleft;
position = "{20, 736}";
}
);
layerId = "D085834A-C5B8-45AD-B7CB-7C394966C9BB";
paths = (
{
closed = 1;
nodes = (
"551 296 LINE",
"551 454 LINE",
"60 454 LINE",
"60 296 LINE"
);
},
{
closed = 1;
nodes = (
"596 574 LINE",
"596 740 LINE",
"60 740 LINE",
"60 574 LINE"
);
},
{
closed = 1;
nodes = (
"601 0 LINE",
"601 166 LINE",
"60 166 LINE",
"60 0 LINE"
);
},
{
closed = 1;
nodes = (
"252 0 LINE",
"252 740 LINE",
"60 740 LINE",
"60 0 LINE"
);
},
{
closed = 1;
nodes = (
"511.974 787.55 OFFCURVE",
"555.402 831.965 OFFCURVE",
"555.402 885.263 CURVE SMOOTH",
"555.402 939.548 OFFCURVE",
"511.974 982.976 OFFCURVE",
"453.036 982.976 CURVE SMOOTH",
"393.064 982.976 OFFCURVE",
"350.67 939.548 OFFCURVE",
"350.67 885.263 CURVE SMOOTH",
"350.67 831.965 OFFCURVE",
"393.064 787.55 OFFCURVE",
"453.036 787.55 CURVE SMOOTH"
);
},
{
closed = 1;
nodes = (
"260.974 787.55 OFFCURVE",
"304.402 831.965 OFFCURVE",
"304.402 885.263 CURVE SMOOTH",
"304.402 939.548 OFFCURVE",
"260.974 982.976 OFFCURVE",
"202.036 982.976 CURVE SMOOTH",
"142.064 982.976 OFFCURVE",
"99.67 939.548 OFFCURVE",
"99.67 885.263 CURVE SMOOTH",
"99.67 831.965 OFFCURVE",
"142.064 787.55 OFFCURVE",
"202.036 787.55 CURVE SMOOTH"
);
}
);
width = 656;
},
{
anchors = (
{
name = bottom;
position = "{335, 0}";
},
{
name = ogonek;
position = "{565, 0}";
},
{
name = top;
position = "{335, 944}";
},
{
name = topleft;
position = "{32, 700}";
}
);
layerId = "9D6BE6F2-0D0F-4D93-9FAF-A0B52FAE1934";
paths = (
{
closed = 1;
nodes = (
"514 334 LINE",
"514 420 LINE",
"101 420 LINE",
"101 334 LINE"
);
},
{
closed = 1;
nodes = (
"560 654 LINE",
"560 740 LINE",
"101 740 LINE",
"101 654 LINE"
);
},
{
closed = 1;
nodes = (
"565 0 LINE",
"565 86 LINE",
"101 86 LINE",
"101 0 LINE"
);
},
{
closed = 1;
nodes = (
"188 0 LINE",
"188 740 LINE",
"90 740 LINE",
"90 0 LINE"
);
},
{
closed = 1;
nodes = (
"465 820.5 OFFCURVE",
"491.6 848.05 OFFCURVE",
"491.6 882.25 CURVE SMOOTH",
"491.6 916.45 OFFCURVE",
"465 944 OFFCURVE",
"429.85 944 CURVE SMOOTH",
"393.75 944 OFFCURVE",
"368.1 916.45 OFFCURVE",
"368.1 882.25 CURVE SMOOTH",
"368.1 849 OFFCURVE",
"393.75 820.5 OFFCURVE",
"429.85 820.5 CURVE SMOOTH"
);
},
{
closed = 1;
nodes = (
"275 820.5 OFFCURVE",
"301.6 848.05 OFFCURVE",
"301.6 882.25 CURVE SMOOTH",
"301.6 916.45 OFFCURVE",
"275 944 OFFCURVE",
"239.85 944 CURVE SMOOTH",
"203.75 944 OFFCURVE",
"178.1 916.45 OFFCURVE",
"178.1 882.25 CURVE SMOOTH",
"178.1 849 OFFCURVE",
"203.75 820.5 OFFCURVE",
"239.85 820.5 CURVE SMOOTH"
);
}
);
width = 630;
}
);
leftKerningGroup = l;
rightKerningGroup = E;
unicode = 00CB;
},
{
glyphname = Edotaccent;
lastChange = "2021-03-14 09:41:58 +0000";
layers = (
{
anchors = (
{
name = bottom;
position = "{293, 0}";
},
{
name = ogonek;
position = "{513, 0}";
},
{
name = top;
position = "{294, 957}";
},
{
name = topleft;
position = "{21, 700}";
}
);
layerId = "B45F0BEB-E489-4392-AE53-309DD1ADE040";
paths = (
{
closed = 1;
nodes = (
"458 362 LINE",
"458 396 LINE",
"93 396 LINE",
"93 362 LINE"
);
},
{
closed = 1;
nodes = (
"507 706 LINE",
"507 740 LINE",
"93 740 LINE",
"93 706 LINE"
);
},
{
closed = 1;
nodes = (
"513 0 LINE",
"513 34 LINE",
"93 34 LINE",
"93 0 LINE"
);
},
{
closed = 1;
nodes = (
"125 0 LINE",
"125 740 LINE",
"90 740 LINE",
"90 0 LINE"
);
},
{
closed = 1;
nodes = (
"313.1 845.25 OFFCURVE",
"329.25 861.4 OFFCURVE",
"329.25 881.35 CURVE SMOOTH",
"329.25 900.35 OFFCURVE",
"313.1 916.5 OFFCURVE",
"293.15 916.5 CURVE SMOOTH",
"273.2 916.5 OFFCURVE",
"258 900.35 OFFCURVE",
"258 881.35 CURVE SMOOTH",
"258 861.4 OFFCURVE",
"273.2 845.25 OFFCURVE",
"293.15 845.25 CURVE SMOOTH"
);
}
);
width = 588;
},
{
anchors = (
{
name = bottom;
position = "{285, 0}";
},
{
name = ogonek;
position = "{601, 0}";
},
{
name = top;
position = "{328, 1026}";
},
{
name = topleft;
position = "{20, 736}";
}
);
layerId = "D085834A-C5B8-45AD-B7CB-7C394966C9BB";
paths = (
{
closed = 1;
nodes = (
"551 296 LINE",
"551 454 LINE",
"60 454 LINE",
"60 296 LINE"
);
},
{
closed = 1;
nodes = (
"596 574 LINE",
"596 740 LINE",
"60 740 LINE",
"60 574 LINE"
);
},
{
closed = 1;
nodes = (
"601 0 LINE",
"601 166 LINE",
"60 166 LINE",
"60 0 LINE"
);
},
{
closed = 1;
nodes = (
"252 0 LINE",
"252 740 LINE",
"60 740 LINE",
"60 0 LINE"
);
},
{
closed = 1;
nodes = (
"391.1 792.5 OFFCURVE",
"437.3 839.75 OFFCURVE",
"437.3 896.45 CURVE SMOOTH",
"437.3 954.2 OFFCURVE",
"391.1 1000.4 OFFCURVE",
"328.4 1000.4 CURVE SMOOTH",
"264.6 1000.4 OFFCURVE",
"219.5 954.2 OFFCURVE",
"219.5 896.45 CURVE SMOOTH",
"219.5 839.75 OFFCURVE",
"264.6 792.5 OFFCURVE",
"328.4 792.5 CURVE SMOOTH"
);
}
);
width = 656;
},
{
anchors = (
{
name = bottom;
position = "{335, 0}";
},
{
name = ogonek;
position = "{565, 0}";
},
{
name = top;
position = "{335, 957}";
},
{
name = topleft;
position = "{32, 700}";
}
);
layerId = "9D6BE6F2-0D0F-4D93-9FAF-A0B52FAE1934";
paths = (
{
closed = 1;
nodes = (
"514 334 LINE",
"514 420 LINE",
"101 420 LINE",
"101 334 LINE"
);
},
{
closed = 1;
nodes = (
"560 654 LINE",
"560 740 LINE",
"101 740 LINE",
"101 654 LINE"
);
},
{
closed = 1;
nodes = (
"565 0 LINE",
"565 86 LINE",
"101 86 LINE",
"101 0 LINE"
);
},
{
closed = 1;
nodes = (
"188 0 LINE",
"188 740 LINE",
"90 740 LINE",
"90 0 LINE"
);
},
{
closed = 1;
nodes = (
"370 840.5 OFFCURVE",
"396.6 868.05 OFFCURVE",
"396.6 902.25 CURVE SMOOTH",
"396.6 936.45 OFFCURVE",
"370 964 OFFCURVE",
"334.85 964 CURVE SMOOTH",
"298.75 964 OFFCURVE",
"273.1 936.45 OFFCURVE",
"273.1 902.25 CURVE SMOOTH",
"273.1 869 OFFCURVE",
"298.75 840.5 OFFCURVE",
"334.85 840.5 CURVE SMOOTH"
);
}
);
width = 630;
}
);
leftKerningGroup = l;
rightKerningGroup = E;
unicode = 0116;
},
{
glyphname = Edotbelow;
lastChange = "2021-03-14 09:41:58 +0000";
layers = (
{
anchors = (
{
name = bottom;
position = "{285, -274}";
},
{
name = ogonek;
position = "{601, 0}";
},
{
name = top;
position = "{328, 740}";
},
{
name = topleft;
position = "{20, 736}";
}
);
layerId = "D085834A-C5B8-45AD-B7CB-7C394966C9BB";
paths = (
{
closed = 1;
nodes = (
"551 296 LINE",
"551 454 LINE",
"60 454 LINE",
"60 296 LINE"
);
},
{
closed = 1;
nodes = (
"596 574 LINE",
"596 740 LINE",
"60 740 LINE",
"60 574 LINE"
);
},
{
closed = 1;
nodes = (
"601 0 LINE",
"601 166 LINE",
"60 166 LINE",
"60 0 LINE"
);
},
{
closed = 1;
nodes = (
"252 0 LINE",
"252 740 LINE",
"60 740 LINE",
"60 0 LINE"
);
},
{
closed = 1;
nodes = (
"335.9 -260 OFFCURVE",
"373.7 -219.5 OFFCURVE",
"373.7 -170.9 CURVE SMOOTH",
"373.7 -121.4 OFFCURVE",
"335.9 -81.8 OFFCURVE",
"284.6 -81.8 CURVE SMOOTH",
"232.4 -81.8 OFFCURVE",
"195.5 -121.4 OFFCURVE",
"195.5 -170.9 CURVE SMOOTH",
"195.5 -219.5 OFFCURVE",
"232.4 -260 OFFCURVE",
"284.6 -260 CURVE SMOOTH"
);
}
);
width = 656;
},
{
anchors = (
{
name = bottom;
position = "{293, -200}";
},
{
name = ogonek;
position = "{513, 0}";
},
{
name = top;
position = "{294, 740}";
},
{
name = topleft;
position = "{21, 700}";
}
);
layerId = "B45F0BEB-E489-4392-AE53-309DD1ADE040";
paths = (
{
closed = 1;
nodes = (
"458 362 LINE",
"458 396 LINE",
"93 396 LINE",
"93 362 LINE"
);
},
{
closed = 1;
nodes = (
"507 706 LINE",
"507 740 LINE",
"93 740 LINE",
"93 706 LINE"
);
},
{
closed = 1;
nodes = (
"513 0 LINE",
"513 34 LINE",
"93 34 LINE",
"93 0 LINE"
);
},
{
closed = 1;
nodes = (
"125 0 LINE",
"125 740 LINE",
"90 740 LINE",
"90 0 LINE"
);
},
{
closed = 1;
nodes = (
"313 -192 OFFCURVE",
"330 -175 OFFCURVE",
"330 -154 CURVE SMOOTH",
"330 -134 OFFCURVE",
"313 -117 OFFCURVE",
"292 -117 CURVE SMOOTH",
"271 -117 OFFCURVE",
"255 -134 OFFCURVE",
"255 -154 CURVE SMOOTH",
"255 -175 OFFCURVE",
"271 -192 OFFCURVE",
"292 -192 CURVE SMOOTH"
);
}
);
width = 588;
},
{
anchors = (
{
name = bottom;
position = "{335, -250}";
},
{
name = ogonek;
position = "{565, 0}";
},
{
name = top;
position = "{335, 740}";
},
{
name = topleft;
position = "{32, 700}";
}
);
layerId = "9D6BE6F2-0D0F-4D93-9FAF-A0B52FAE1934";
paths = (
{
closed = 1;
nodes = (
"514 334 LINE",
"514 420 LINE",
"101 420 LINE",
"101 334 LINE"
);
},
{
closed = 1;
nodes = (
"560 654 LINE",
"560 740 LINE",
"101 740 LINE",
"101 654 LINE"
);
},
{
closed = 1;
nodes = (
"565 0 LINE",
"565 86 LINE",
"101 86 LINE",
"101 0 LINE"
);
},
{
closed = 1;
nodes = (
"188 0 LINE",
"188 740 LINE",
"90 740 LINE",
"90 0 LINE"
);
},
{
closed = 1;
nodes = (
"372 -227 OFFCURVE",
"400 -198 OFFCURVE",
"400 -162 CURVE SMOOTH",
"400 -126 OFFCURVE",
"372 -97 OFFCURVE",
"335 -97 CURVE SMOOTH",
"297 -97 OFFCURVE",
"270 -126 OFFCURVE",
"270 -162 CURVE SMOOTH",
"270 -197 OFFCURVE",
"297 -227 OFFCURVE",
"335 -227 CURVE SMOOTH"
);
}
);
width = 630;
}
);
leftKerningGroup = l;
rightKerningGroup = E;
unicode = 1EB8;
},
{
glyphname = Egrave;
lastChange = "2021-03-14 09:41:58 +0000";
layers = (
{
anchors = (
{
name = bottom;
position = "{285, 0}";
},
{
name = ogonek;
position = "{601, 0}";
},
{
name = top;
position = "{253, 1050}";
},
{
name = topleft;
position = "{20, 736}";
}
);
layerId = "D085834A-C5B8-45AD-B7CB-7C394966C9BB";
paths = (
{
closed = 1;
nodes = (
"551 296 LINE",
"551 454 LINE",
"60 454 LINE",
"60 296 LINE"
);
},
{
closed = 1;
nodes = (
"596 574 LINE",
"596 740 LINE",
"60 740 LINE",
"60 574 LINE"
);
},
{
closed = 1;
nodes = (
"601 0 LINE",
"601 166 LINE",
"60 166 LINE",
"60 0 LINE"
);
},
{
closed = 1;
nodes = (
"252 0 LINE",
"252 740 LINE",
"60 740 LINE",
"60 0 LINE"
);
},
{
closed = 1;
nodes = (
"396 810 LINE",
"319 989 LINE",
"149 989 LINE",
"263 809 LINE"
);
}
);
width = 656;
},
{
anchors = (
{
name = bottom;
position = "{293, 0}";
},
{
name = ogonek;
position = "{513, 0}";
},
{
name = top;
position = "{245, 982}";
},
{
name = topleft;
position = "{21, 700}";
}
);
layerId = "B45F0BEB-E489-4392-AE53-309DD1ADE040";
paths = (
{
closed = 1;
nodes = (
"458 362 LINE",
"458 396 LINE",
"93 396 LINE",
"93 362 LINE"
);
},
{
closed = 1;
nodes = (
"507 706 LINE",
"507 740 LINE",
"93 740 LINE",
"93 706 LINE"
);
},
{
closed = 1;
nodes = (
"513 0 LINE",
"513 34 LINE",
"93 34 LINE",
"93 0 LINE"
);
},
{
closed = 1;
nodes = (
"125 0 LINE",
"125 740 LINE",
"90 740 LINE",
"90 0 LINE"
);
},
{
closed = 1;
nodes = (
"308 828 LINE",
"223 980 LINE",
"182 980 LINE",
"274 828 LINE"
);
}
);
width = 588;
},
{
anchors = (
{
name = bottom;
position = "{335, 0}";
},
{
name = ogonek;
position = "{565, 0}";
},
{
name = top;
position = "{282, 1009}";
},
{
name = topleft;
position = "{32, 700}";
}
);
layerId = "9D6BE6F2-0D0F-4D93-9FAF-A0B52FAE1934";
paths = (
{
closed = 1;
nodes = (
"514 334 LINE",
"514 420 LINE",
"101 420 LINE",
"101 334 LINE"
);
},
{
closed = 1;
nodes = (
"560 654 LINE",
"560 740 LINE",
"101 740 LINE",
"101 654 LINE"
);
},
{
closed = 1;
nodes = (
"565 0 LINE",
"565 86 LINE",
"101 86 LINE",
"101 0 LINE"
);
},
{
closed = 1;
nodes = (
"188 0 LINE",
"188 740 LINE",
"90 740 LINE",
"90 0 LINE"
);
},
{
closed = 1;
nodes = (
"380 821 LINE",
"294 1001 LINE",
"196 1001 LINE",
"299 820 LINE"
);
}
);
width = 630;
}
);
leftKerningGroup = l;
rightKerningGroup = E;
unicode = 00C8;
},
{
glyphname = Ehookabove;
lastChange = "2021-03-14 09:41:58 +0000";
layers = (
{
anchors = (
{
name = bottom;
position = "{285, 0}";
},
{
name = ogonek;
position = "{601, 0}";
},
{
name = top;
position = "{333, 1071}";
},
{
name = topleft;
position = "{20, 736}";
}
);
layerId = "D085834A-C5B8-45AD-B7CB-7C394966C9BB";
paths = (
{
closed = 1;
nodes = (
"551 296 LINE",
"551 454 LINE",
"60 454 LINE",
"60 296 LINE"
);
},
{
closed = 1;
nodes = (
"596 574 LINE",
"596 740 LINE",
"60 740 LINE",
"60 574 LINE"
);
},
{
closed = 1;
nodes = (
"601 0 LINE",
"601 166 LINE",
"60 166 LINE",
"60 0 LINE"
);
},
{
closed = 1;
nodes = (
"252 0 LINE",
"252 740 LINE",
"60 740 LINE",
"60 0 LINE"
);
},
{
closed = 1;
nodes = (
"380 795 LINE",
"380 866 LINE",
"342 801 LINE",
"385 825 LINE SMOOTH",
"429 849 OFFCURVE",
"471 878 OFFCURVE",
"471 932 CURVE SMOOTH",
"471 993 OFFCURVE",
"417 1046 OFFCURVE",
"329 1046 CURVE SMOOTH",
"231 1046 OFFCURVE",
"193 976 OFFCURVE",
"195 920 CURVE",
"296 920 LINE",
"296 920 OFFCURVE",
"296 957 OFFCURVE",
"331 957 CURVE SMOOTH",
"350 957 OFFCURVE",
"363 944 OFFCURVE",
"363 928 CURVE SMOOTH",
"363 906 OFFCURVE",
"347 896 OFFCURVE",
"322 883 CURVE SMOOTH",
"306 875 LINE SMOOTH",
"286 865 OFFCURVE",
"278 848 OFFCURVE",
"278 828 CURVE SMOOTH",
"278 795 LINE"
);
}
);
width = 656;
},
{
anchors = (
{
name = bottom;
position = "{293, 0}";
},
{
name = ogonek;
position = "{513, 0}";
},
{
name = top;
position = "{300, 1012}";
},
{
name = topleft;
position = "{21, 700}";
}
);
layerId = "B45F0BEB-E489-4392-AE53-309DD1ADE040";
paths = (
{
closed = 1;
nodes = (
"458 362 LINE",
"458 396 LINE",
"93 396 LINE",
"93 362 LINE"
);
},
{
closed = 1;
nodes = (
"507 706 LINE",
"507 740 LINE",
"93 740 LINE",
"93 706 LINE"
);
},
{
closed = 1;
nodes = (
"513 0 LINE",
"513 34 LINE",
"93 34 LINE",
"93 0 LINE"
);
},
{
closed = 1;
nodes = (
"125 0 LINE",
"125 740 LINE",
"90 740 LINE",
"90 0 LINE"
);
},
{
closed = 1;
nodes = (
"310 814 LINE",
"310 865 LINE",
"287 838 LINE",
"311 849 LINE SMOOTH",
"366 874 OFFCURVE",
"384 904 OFFCURVE",
"384 934 CURVE SMOOTH",
"384 975 OFFCURVE",
"353 1005 OFFCURVE",
"302 1005 CURVE SMOOTH",
"251 1005 OFFCURVE",
"220 975 OFFCURVE",
"220 928 CURVE",
"249 928 LINE",
"249 951 OFFCURVE",
"260 977 OFFCURVE",
"302 977 CURVE SMOOTH",
"341 977 OFFCURVE",
"354 953 OFFCURVE",
"354 933 CURVE SMOOTH",
"354 907 OFFCURVE",
"335 888 OFFCURVE",
"307 874 CURVE SMOOTH",
"295 868 LINE SMOOTH",
"286 864 OFFCURVE",
"282 856 OFFCURVE",
"282 846 CURVE SMOOTH",
"282 814 LINE"
);
}
);
width = 588;
},
{
anchors = (
{
name = bottom;
position = "{335, 0}";
},
{
name = ogonek;
position = "{565, 0}";
},
{
name = top;
position = "{341, 1038}";
},
{
name = topleft;
position = "{32, 700}";
}
);
layerId = "9D6BE6F2-0D0F-4D93-9FAF-A0B52FAE1934";
paths = (
{
closed = 1;
nodes = (
"514 334 LINE",
"514 420 LINE",
"101 420 LINE",
"101 334 LINE"
);
},
{
closed = 1;
nodes = (
"560 654 LINE",
"560 740 LINE",
"101 740 LINE",
"101 654 LINE"
);
},
{
closed = 1;
nodes = (
"565 0 LINE",
"565 86 LINE",
"101 86 LINE",
"101 0 LINE"
);
},
{
closed = 1;
nodes = (
"188 0 LINE",
"188 740 LINE",
"90 740 LINE",
"90 0 LINE"
);
},
{
closed = 1;
nodes = (
"368 813 LINE",
"368 873 LINE",
"338 828 LINE",
"372 844 LINE SMOOTH",
"428 871 OFFCURVE",
"452 903 OFFCURVE",
"452 941 CURVE SMOOTH",
"452 992 OFFCURVE",
"408 1034 OFFCURVE",
"338 1034 CURVE SMOOTH",
"261 1034 OFFCURVE",
"227 982 OFFCURVE",
"228 933 CURVE",
"294 933 LINE",
"294 944 OFFCURVE",
"299 976 OFFCURVE",
"339 976 CURVE SMOOTH",
"369 976 OFFCURVE",
"383 957 OFFCURVE",
"383 939 CURVE SMOOTH",
"383 920 OFFCURVE",
"369 904 OFFCURVE",
"337 888 CURVE SMOOTH",
"323 881 LINE SMOOTH",
"307 873 OFFCURVE",
"303 858 OFFCURVE",
"303 845 CURVE SMOOTH",
"303 813 LINE"
);
}
);
width = 630;
}
);
leftKerningGroup = l;
rightKerningGroup = E;
unicode = 1EBA;
},
{
glyphname = Emacron;
lastChange = "2021-05-04 15:56:27 +0000";
layers = (
{
anchors = (
{
name = bottom;
position = "{293, 0}";
},
{
name = ogonek;
position = "{513, 0}";
},
{
name = top;
position = "{294, 941}";
},
{
name = topleft;
position = "{21, 700}";
}
);
layerId = "B45F0BEB-E489-4392-AE53-309DD1ADE040";
paths = (
{
closed = 1;
nodes = (
"458 362 LINE",
"458 396 LINE",
"93 396 LINE",
"93 362 LINE"
);
},
{
closed = 1;
nodes = (
"507 706 LINE",
"507 740 LINE",
"93 740 LINE",
"93 706 LINE"
);
},
{
closed = 1;
nodes = (
"513 0 LINE",
"513 34 LINE",
"93 34 LINE",
"93 0 LINE"
);
},
{
closed = 1;
nodes = (
"125 0 LINE",
"125 740 LINE",
"90 740 LINE",
"90 0 LINE"
);
},
{
closed = 1;
nodes = (
"434 848 LINE",
"434 878 LINE",
"154 878 LINE",
"154 848 LINE"
);
}
);
width = 588;
},
{
anchors = (
{
name = bottom;
position = "{285, 0}";
},
{
name = ogonek;
position = "{601, 0}";
},
{
name = top;
position = "{328, 940}";
},
{
name = topleft;
position = "{20, 736}";
}
);
layerId = "D085834A-C5B8-45AD-B7CB-7C394966C9BB";
paths = (
{
closed = 1;
nodes = (
"551 296 LINE",
"551 454 LINE",
"60 454 LINE",
"60 296 LINE"
);
},
{
closed = 1;
nodes = (
"596 574 LINE",
"596 740 LINE",
"60 740 LINE",
"60 574 LINE"
);
},
{
closed = 1;
nodes = (
"601 0 LINE",
"601 166 LINE",
"60 166 LINE",
"60 0 LINE"
);
},
{
closed = 1;
nodes = (
"252 0 LINE",
"252 740 LINE",
"60 740 LINE",
"60 0 LINE"
);
},
{
closed = 1;
nodes = (
"498 818 LINE",
"498 920 LINE",
"158 920 LINE",
"158 818 LINE"
);
}
);
width = 656;
},
{
anchors = (
{
name = bottom;
position = "{335, 0}";
},
{
name = ogonek;
position = "{565, 0}";
},
{
name = top;
position = "{335, 941}";
},
{
name = topleft;
position = "{32, 700}";
}
);
layerId = "9D6BE6F2-0D0F-4D93-9FAF-A0B52FAE1934";
paths = (
{
closed = 1;
nodes = (
"514 334 LINE",
"514 420 LINE",
"101 420 LINE",
"101 334 LINE"
);
},
{
closed = 1;
nodes = (
"560 654 LINE",
"560 740 LINE",
"101 740 LINE",
"101 654 LINE"
);
},
{
closed = 1;
nodes = (
"565 0 LINE",
"565 86 LINE",
"101 86 LINE",
"101 0 LINE"
);
},
{
closed = 1;
nodes = (
"188 0 LINE",
"188 740 LINE",
"90 740 LINE",
"90 0 LINE"
);
},
{
closed = 1;
nodes = (
"487 836 LINE",
"487 908 LINE",
"183 908 LINE",
"183 836 LINE"
);
}
);
width = 630;
}
);
leftKerningGroup = l;
rightKerningGroup = E;
unicode = 0112;
},
{
glyphname = Eogonek;
lastChange = "2021-03-14 09:41:58 +0000";
layers = (
{
anchors = (
{
name = bottom;
position = "{293, 0}";
},
{
name = ogonek;
position = "{513, 0}";
},
{
name = top;
position = "{294, 740}";
},
{
name = topleft;
position = "{21, 700}";
}
);
layerId = "B45F0BEB-E489-4392-AE53-309DD1ADE040";
paths = (
{
closed = 1;
nodes = (
"458 362 LINE",
"458 396 LINE",
"93 396 LINE",
"93 362 LINE"
);
},
{
closed = 1;
nodes = (
"507 706 LINE",
"507 740 LINE",
"93 740 LINE",
"93 706 LINE"
);
},
{
closed = 1;
nodes = (
"513 0 LINE",
"513 34 LINE",
"93 34 LINE",
"93 0 LINE"
);
},
{
closed = 1;
nodes = (
"125 0 LINE",
"125 740 LINE",
"90 740 LINE",
"90 0 LINE"
);
},
{
closed = 1;
nodes = (
"537 -149 OFFCURVE",
"557 -143 OFFCURVE",
"557 -143 CURVE",
"557 -115 LINE",
"557 -115 OFFCURVE",
"537 -120 OFFCURVE",
"517 -120 CURVE SMOOTH",
"476 -120 OFFCURVE",
"455 -100 OFFCURVE",
"455 -71 CURVE SMOOTH",
"455 -23 OFFCURVE",
"513 0 OFFCURVE",
"513 0 CURVE",
"493 12 LINE",
"493 12 OFFCURVE",
"424 -13 OFFCURVE",
"424 -75 CURVE SMOOTH",
"424 -119 OFFCURVE",
"458 -149 OFFCURVE",
"513 -149 CURVE SMOOTH"
);
}
);
width = 588;
},
{
anchors = (
{
name = bottom;
position = "{285, 0}";
},
{
name = ogonek;
position = "{601, 0}";
},
{
name = top;
position = "{328, 740}";
},
{
name = topleft;
position = "{20, 736}";
}
);
layerId = "D085834A-C5B8-45AD-B7CB-7C394966C9BB";
paths = (
{
closed = 1;
nodes = (
"551 296 LINE",
"551 454 LINE",
"60 454 LINE",
"60 296 LINE"
);
},
{
closed = 1;
nodes = (
"596 574 LINE",
"596 740 LINE",
"60 740 LINE",
"60 574 LINE"
);
},
{
closed = 1;
nodes = (
"601 0 LINE",
"601 166 LINE",
"60 166 LINE",
"60 0 LINE"
);
},
{
closed = 1;
nodes = (
"252 0 LINE",
"252 740 LINE",
"60 740 LINE",
"60 0 LINE"
);
},
{
closed = 1;
nodes = (
"610 -194 OFFCURVE",
"636 -189 OFFCURVE",
"636 -189 CURVE",
"636 -87 LINE",
"636 -87 OFFCURVE",
"620 -90 OFFCURVE",
"604 -90 CURVE SMOOTH",
"566 -90 OFFCURVE",
"552 -73 OFFCURVE",
"552 -55 CURVE SMOOTH",
"552 -19 OFFCURVE",
"601 0 OFFCURVE",
"601 0 CURVE",
"542 29 LINE",
"542 29 OFFCURVE",
"421 9 OFFCURVE",
"421 -87 CURVE SMOOTH",
"421 -144 OFFCURVE",
"465 -194 OFFCURVE",
"575 -194 CURVE SMOOTH"
);
}
);
width = 656;
},
{
anchors = (
{
name = bottom;
position = "{335, 0}";
},
{
name = ogonek;
position = "{565, 0}";
},
{
name = top;
position = "{335, 740}";
},
{
name = topleft;
position = "{32, 700}";
}
);
layerId = "9D6BE6F2-0D0F-4D93-9FAF-A0B52FAE1934";
paths = (
{
closed = 1;
nodes = (
"514 334 LINE",
"514 420 LINE",
"101 420 LINE",
"101 334 LINE"
);
},
{
closed = 1;
nodes = (
"560 654 LINE",
"560 740 LINE",
"101 740 LINE",
"101 654 LINE"
);
},
{
closed = 1;
nodes = (
"565 0 LINE",
"565 86 LINE",
"101 86 LINE",
"101 0 LINE"
);
},
{
closed = 1;
nodes = (
"188 0 LINE",
"188 740 LINE",
"90 740 LINE",
"90 0 LINE"
);
},
{
closed = 1;
nodes = (
"582 -170 OFFCURVE",
"605 -164 OFFCURVE",
"605 -164 CURVE",
"605 -101 LINE",
"605 -101 OFFCURVE",
"586 -106 OFFCURVE",
"568 -106 CURVE SMOOTH",
"530 -106 OFFCURVE",
"511 -87 OFFCURVE",
"511 -63 CURVE SMOOTH",
"511 -21 OFFCURVE",
"565 0 OFFCURVE",
"565 0 CURVE",
"527 21 LINE",
"527 21 OFFCURVE",
"433 -2 OFFCURVE",
"433 -80 CURVE SMOOTH",
"433 -130 OFFCURVE",
"473 -170 OFFCURVE",
"552 -170 CURVE SMOOTH"
);
}
);
width = 630;
}
);
leftKerningGroup = l;
rightKerningGroup = E;
unicode = 0118;
},
{
glyphname = Etilde;
lastChange = "2021-03-14 09:41:58 +0000";
layers = (
{
anchors = (
{
name = bottom;
position = "{285, 0}";
},
{
name = ogonek;
position = "{601, 0}";
},
{
name = top;
position = "{328, 972}";
},
{
name = topleft;
position = "{20, 736}";
}
);
layerId = "D085834A-C5B8-45AD-B7CB-7C394966C9BB";
paths = (
{
closed = 1;
nodes = (
"551 296 LINE",
"551 454 LINE",
"60 454 LINE",
"60 296 LINE"
);
},
{
closed = 1;
nodes = (
"596 574 LINE",
"596 740 LINE",
"60 740 LINE",
"60 574 LINE"
);
},
{
closed = 1;
nodes = (
"601 0 LINE",
"601 166 LINE",
"60 166 LINE",
"60 0 LINE"
);
},
{
closed = 1;
nodes = (
"252 0 LINE",
"252 740 LINE",
"60 740 LINE",
"60 0 LINE"
);
},
{
closed = 1;
nodes = (
"497 822 OFFCURVE",
"514 912 OFFCURVE",
"514 981 CURVE",
"421 981 LINE",
"421 947 OFFCURVE",
"415 928 OFFCURVE",
"396 928 CURVE SMOOTH",
"362 928 OFFCURVE",
"330 987 OFFCURVE",
"257 987 CURVE SMOOTH",
"166 987 OFFCURVE",
"149 897 OFFCURVE",
"149 828 CURVE",
"242 828 LINE",
"242 862 OFFCURVE",
"248 881 OFFCURVE",
"268 881 CURVE SMOOTH",
"304 881 OFFCURVE",
"333 822 OFFCURVE",
"406 822 CURVE SMOOTH"
);
}
);
width = 656;
},
{
anchors = (
{
name = bottom;
position = "{293, 0}";
},
{
name = ogonek;
position = "{513, 0}";
},
{
name = top;
position = "{294, 935}";
},
{
name = topleft;
position = "{21, 700}";
}
);
layerId = "B45F0BEB-E489-4392-AE53-309DD1ADE040";
paths = (
{
closed = 1;
nodes = (
"458 362 LINE",
"458 396 LINE",
"93 396 LINE",
"93 362 LINE"
);
},
{
closed = 1;
nodes = (
"507 706 LINE",
"507 740 LINE",
"93 740 LINE",
"93 706 LINE"
);
},
{
closed = 1;
nodes = (
"513 0 LINE",
"513 34 LINE",
"93 34 LINE",
"93 0 LINE"
);
},
{
closed = 1;
nodes = (
"125 0 LINE",
"125 740 LINE",
"90 740 LINE",
"90 0 LINE"
);
},
{
closed = 1;
nodes = (
"399 831 OFFCURVE",
"419 878 OFFCURVE",
"419 936 CURVE",
"389 936 LINE",
"389 889 OFFCURVE",
"379 860 OFFCURVE",
"354 860 CURVE SMOOTH",
"314 860 OFFCURVE",
"300 941 OFFCURVE",
"236 941 CURVE SMOOTH",
"189 941 OFFCURVE",
"170 894 OFFCURVE",
"170 836 CURVE",
"200 836 LINE",
"200 884 OFFCURVE",
"210 912 OFFCURVE",
"236 912 CURVE SMOOTH",
"279 912 OFFCURVE",
"294 831 OFFCURVE",
"354 831 CURVE SMOOTH"
);
}
);
width = 588;
},
{
anchors = (
{
name = bottom;
position = "{335, 0}";
},
{
name = ogonek;
position = "{565, 0}";
},
{
name = top;
position = "{335, 952}";
},
{
name = topleft;
position = "{32, 700}";
}
);
layerId = "9D6BE6F2-0D0F-4D93-9FAF-A0B52FAE1934";
paths = (
{
closed = 1;
nodes = (
"514 334 LINE",
"514 420 LINE",
"101 420 LINE",
"101 334 LINE"
);
},
{
closed = 1;
nodes = (
"560 654 LINE",
"560 740 LINE",
"101 740 LINE",
"101 654 LINE"
);
},
{
closed = 1;
nodes = (
"565 0 LINE",
"565 86 LINE",
"101 86 LINE",
"101 0 LINE"
);
},
{
closed = 1;
nodes = (
"188 0 LINE",
"188 740 LINE",
"90 740 LINE",
"90 0 LINE"
);
},
{
closed = 1;
nodes = (
"473 827 OFFCURVE",
"492 895 OFFCURVE",
"492 957 CURVE",
"428 957 LINE",
"428 920 OFFCURVE",
"418 897 OFFCURVE",
"397 897 CURVE SMOOTH",
"361 897 OFFCURVE",
"341 962 OFFCURVE",
"268 962 CURVE SMOOTH",
"197 962 OFFCURVE",
"178 895 OFFCURVE",
"178 833 CURVE",
"242 833 LINE",
"242 869 OFFCURVE",
"251 893 OFFCURVE",
"274 893 CURVE SMOOTH",
"311 893 OFFCURVE",
"331 827 OFFCURVE",
"403 827 CURVE SMOOTH"
);
}
);
width = 630;
}
);
leftKerningGroup = l;
rightKerningGroup = E;
unicode = 1EBC;
},
{
glyphname = F;
lastChange = "2021-05-14 08:51:38 +0000";
layers = (
{
anchors = (
{
name = bottom;
position = "{156, 0}";
},
{
name = ogonek;
position = "{252, 0}";
},
{
name = top;
position = "{156, 740}";
},
{
name = topleft;
position = "{30, 736}";
}
);
layerId = "D085834A-C5B8-45AD-B7CB-7C394966C9BB";
paths = (
{
closed = 1;
nodes = (
"551 255 LINE",
"551 414 LINE",
"60 414 LINE",
"60 255 LINE"
);
},
{
closed = 1;
nodes = (
"596 574 LINE",
"596 740 LINE",
"60 740 LINE",
"60 574 LINE"
);
},
{
closed = 1;
nodes = (
"252 0 LINE",
"252 740 LINE",
"60 740 LINE",
"60 0 LINE"
);
}
);
width = 651;
},
{
anchors = (
{
name = bottom;
position = "{108, 0}";
},
{
name = ogonek;
position = "{125, 0}";
},
{
name = top;
position = "{108, 740}";
},
{
name = topleft;
position = "{18, 740}";
}
);
layerId = "B45F0BEB-E489-4392-AE53-309DD1ADE040";
paths = (
{
closed = 1;
nodes = (
"467 352 LINE",
"467 386 LINE",
"102 386 LINE",
"102 352 LINE"
);
},
{
closed = 1;
nodes = (
"516 706 LINE",
"516 740 LINE",
"102 740 LINE",
"102 706 LINE"
);
},
{
closed = 1;
nodes = (
"125 0 LINE",
"125 740 LINE",
"90 740 LINE",
"90 0 LINE"
);
}
);
width = 591;
},
{
anchors = (
{
name = bottom;
position = "{129, 0}";
},
{
name = ogonek;
position = "{178, 0}";
},
{
name = top;
position = "{129, 740}";
},
{
name = topleft;
position = "{25, 700}";
}
);
layerId = "9D6BE6F2-0D0F-4D93-9FAF-A0B52FAE1934";
paths = (
{
closed = 1;
nodes = (
"522 324 LINE",
"522 410 LINE",
"99 410 LINE",
"99 324 LINE"
);
},
{
closed = 1;
nodes = (
"568 654 LINE",
"568 740 LINE",
"99 740 LINE",
"99 654 LINE"
);
},
{
closed = 1;
nodes = (
"178 0 LINE",
"178 740 LINE",
"80 740 LINE",
"80 0 LINE"
);
}
);
width = 633;
}
);
leftKerningGroup = l;
leftMetricsKey = l;
rightKerningGroup = F;
rightMetricsKey = E;
unicode = 0046;
},
{
glyphname = G;
lastChange = "2021-03-07 10:42:42 +0000";
layers = (
{
anchors = (
{
name = bottom;
position = "{428, 0}";
},
{
name = top;
position = "{419, 740}";
}
);
layerId = "D085834A-C5B8-45AD-B7CB-7C394966C9BB";
paths = (
{
closed = 1;
nodes = (
"619 -10 OFFCURVE",
"764 113 OFFCURVE",
"764 348 CURVE SMOOTH",
"764 409 LINE",
"400 409 LINE",
"400 261 LINE",
"624 261 LINE",
"578 313 LINE",
"578 305 LINE SMOOTH",
"578 218 OFFCURVE",
"525 157 OFFCURVE",
"423 157 CURVE SMOOTH",
"294 157 OFFCURVE",
"228 265 OFFCURVE",
"228 372 CURVE SMOOTH",
"228 477 OFFCURVE",
"292 582 OFFCURVE",
"419 582 CURVE SMOOTH",
"546 582 OFFCURVE",
"567 484 OFFCURVE",
"567 484 CURVE",
"757 484 LINE",
"757 484 OFFCURVE",
"728 750 OFFCURVE",
"419 750 CURVE SMOOTH",
"160 750 OFFCURVE",
"30 559 OFFCURVE",
"30 369 CURVE SMOOTH",
"30 179 OFFCURVE",
"159 -10 OFFCURVE",
"414 -10 CURVE SMOOTH"
);
}
);
width = 795;
},
{
anchors = (
{
name = bottom;
position = "{387, 0}";
},
{
name = top;
position = "{397, 740}";
}
);
layerId = "B45F0BEB-E489-4392-AE53-309DD1ADE040";
paths = (
{
closed = 1;
nodes = (
"602 -10 OFFCURVE",
"703 141 OFFCURVE",
"703 317 CURVE SMOOTH",
"703 366 LINE",
"409 366 LINE",
"409 333 LINE",
"698 333 LINE",
"669 354 LINE",
"669 318 LINE SMOOTH",
"669 145 OFFCURVE",
"571 24 OFFCURVE",
"396 24 CURVE SMOOTH",
"194 24 OFFCURVE",
"95 197 OFFCURVE",
"95 370 CURVE SMOOTH",
"95 543 OFFCURVE",
"194 716 OFFCURVE",
"397 716 CURVE SMOOTH",
"636 716 OFFCURVE",
"662 517 OFFCURVE",
"662 517 CURVE",
"699 517 LINE",
"699 517 OFFCURVE",
"669 750 OFFCURVE",
"397 750 CURVE SMOOTH",
"173 750 OFFCURVE",
"60 560 OFFCURVE",
"60 370 CURVE SMOOTH",
"60 181 OFFCURVE",
"173 -10 OFFCURVE",
"396 -10 CURVE SMOOTH"
);
}
);
width = 772;
},
{
anchors = (
{
name = bottom;
position = "{408, 0}";
},
{
name = top;
position = "{413, 740}";
}
);
guideLines = (
{
angle = 90;
position = "{689, 409}";
},
{
position = "{647, 716}";
}
);
layerId = "9D6BE6F2-0D0F-4D93-9FAF-A0B52FAE1934";
paths = (
{
closed = 1;
nodes = (
"589 -10 OFFCURVE",
"733 106 OFFCURVE",
"733 333 CURVE SMOOTH",
"733 384 LINE",
"419 384 LINE",
"419 303 LINE",
"672 303 LINE",
"639 338 LINE",
"639 318 LINE SMOOTH",
"639 172 OFFCURVE",
"553 79 OFFCURVE",
"410 79 CURVE SMOOTH",
"241 79 OFFCURVE",
"154 223 OFFCURVE",
"154 371 CURVE SMOOTH",
"154 514 OFFCURVE",
"238 661 OFFCURVE",
"414 661 CURVE SMOOTH",
"600 661 OFFCURVE",
"624 503 OFFCURVE",
"624 503 CURVE",
"723 503 LINE",
"723 503 OFFCURVE",
"693 750 OFFCURVE",
"413 750 CURVE SMOOTH",
"169 750 OFFCURVE",
"55 558 OFFCURVE",
"55 369 CURVE SMOOTH",
"55 180 OFFCURVE",
"169 -10 OFFCURVE",
"410 -10 CURVE SMOOTH"
);
}
);
width = 783;
}
);
leftKerningGroup = O;
leftMetricsKey = O;
rightKerningGroup = G;
unicode = 0047;
},
{
glyphname = Gbreve;
lastChange = "2021-03-14 09:41:58 +0000";
layers = (
{
anchors = (
{
name = bottom;
position = "{387, 0}";
},
{
name = top;
position = "{397, 888}";
}
);
layerId = "B45F0BEB-E489-4392-AE53-309DD1ADE040";
paths = (
{
closed = 1;
nodes = (
"602 -10 OFFCURVE",
"703 141 OFFCURVE",
"703 317 CURVE SMOOTH",
"703 366 LINE",
"409 366 LINE",
"409 333 LINE",
"698 333 LINE",
"669 354 LINE",
"669 318 LINE SMOOTH",
"669 145 OFFCURVE",
"571 24 OFFCURVE",
"396 24 CURVE SMOOTH",
"194 24 OFFCURVE",
"95 197 OFFCURVE",
"95 370 CURVE SMOOTH",
"95 543 OFFCURVE",
"194 716 OFFCURVE",
"397 716 CURVE SMOOTH",
"636 716 OFFCURVE",
"662 517 OFFCURVE",
"662 517 CURVE",
"699 517 LINE",
"699 517 OFFCURVE",
"669 750 OFFCURVE",
"397 750 CURVE SMOOTH",
"173 750 OFFCURVE",
"60 560 OFFCURVE",
"60 370 CURVE SMOOTH",
"60 181 OFFCURVE",
"173 -10 OFFCURVE",
"396 -10 CURVE SMOOTH"
);
},
{
closed = 1;
nodes = (
"529 823 OFFCURVE",
"531 953 OFFCURVE",
"531 953 CURVE",
"499 953 LINE",
"499 953 OFFCURVE",
"498 853 OFFCURVE",
"397 853 CURVE SMOOTH",
"296 853 OFFCURVE",
"295 953 OFFCURVE",
"295 953 CURVE",
"263 953 LINE",
"263 953 OFFCURVE",
"265 823 OFFCURVE",
"397 823 CURVE SMOOTH"
);
}
);
width = 772;
},
{
anchors = (
{
name = bottom;
position = "{428, 0}";
},
{
name = top;
position = "{419, 957}";
}
);
layerId = "D085834A-C5B8-45AD-B7CB-7C394966C9BB";
paths = (
{
closed = 1;
nodes = (
"619 -10 OFFCURVE",
"764 113 OFFCURVE",
"764 348 CURVE SMOOTH",
"764 409 LINE",
"400 409 LINE",
"400 261 LINE",
"624 261 LINE",
"578 313 LINE",
"578 305 LINE SMOOTH",
"578 218 OFFCURVE",
"525 157 OFFCURVE",
"423 157 CURVE SMOOTH",
"294 157 OFFCURVE",
"228 265 OFFCURVE",
"228 372 CURVE SMOOTH",
"228 477 OFFCURVE",
"292 582 OFFCURVE",
"419 582 CURVE SMOOTH",
"546 582 OFFCURVE",
"567 484 OFFCURVE",
"567 484 CURVE",
"757 484 LINE",
"757 484 OFFCURVE",
"728 750 OFFCURVE",
"419 750 CURVE SMOOTH",
"160 750 OFFCURVE",
"30 559 OFFCURVE",
"30 369 CURVE SMOOTH",
"30 179 OFFCURVE",
"159 -10 OFFCURVE",
"414 -10 CURVE SMOOTH"
);
},
{
closed = 1;
nodes = (
"619 802 OFFCURVE",
"613 988 OFFCURVE",
"613 988 CURVE",
"494 988 LINE",
"494 988 OFFCURVE",
"493 907 OFFCURVE",
"419 907 CURVE SMOOTH",
"345 907 OFFCURVE",
"344 988 OFFCURVE",
"344 988 CURVE",
"225 988 LINE",
"225 988 OFFCURVE",
"219 802 OFFCURVE",
"419 802 CURVE SMOOTH"
);
}
);
width = 795;
},
{
anchors = (
{
name = bottom;
position = "{408, 0}";
},
{
name = top;
position = "{413, 915}";
}
);
layerId = "9D6BE6F2-0D0F-4D93-9FAF-A0B52FAE1934";
paths = (
{
closed = 1;
nodes = (
"589 -10 OFFCURVE",
"733 106 OFFCURVE",
"733 333 CURVE SMOOTH",
"733 384 LINE",
"419 384 LINE",
"419 303 LINE",
"672 303 LINE",
"639 338 LINE",
"639 318 LINE SMOOTH",
"639 172 OFFCURVE",
"553 79 OFFCURVE",
"410 79 CURVE SMOOTH",
"241 79 OFFCURVE",
"154 223 OFFCURVE",
"154 371 CURVE SMOOTH",
"154 514 OFFCURVE",
"238 661 OFFCURVE",
"414 661 CURVE SMOOTH",
"600 661 OFFCURVE",
"624 503 OFFCURVE",
"624 503 CURVE",
"723 503 LINE",
"723 503 OFFCURVE",
"693 750 OFFCURVE",
"413 750 CURVE SMOOTH",
"169 750 OFFCURVE",
"55 558 OFFCURVE",
"55 369 CURVE SMOOTH",
"55 180 OFFCURVE",
"169 -10 OFFCURVE",
"410 -10 CURVE SMOOTH"
);
},
{
closed = 1;
nodes = (
"574 815 OFFCURVE",
"573 967 OFFCURVE",
"573 967 CURVE",
"502 967 LINE",
"502 967 OFFCURVE",
"501 879 OFFCURVE",
"413 879 CURVE SMOOTH",
"325 879 OFFCURVE",
"324 967 OFFCURVE",
"324 967 CURVE",
"253 967 LINE",
"253 967 OFFCURVE",
"252 815 OFFCURVE",
"413 815 CURVE SMOOTH"
);
}
);
width = 783;
}
);
leftKerningGroup = O;
rightKerningGroup = G;
unicode = 011E;
},
{
glyphname = Gcaron;
lastChange = "2021-03-14 09:41:58 +0000";
layers = (
{
anchors = (
{
name = bottom;
position = "{387, 0}";
},
{
name = top;
position = "{397, 970}";
}
);
layerId = "B45F0BEB-E489-4392-AE53-309DD1ADE040";
paths = (
{
closed = 1;
nodes = (
"602 -10 OFFCURVE",
"703 141 OFFCURVE",
"703 317 CURVE SMOOTH",
"703 366 LINE",
"409 366 LINE",
"409 333 LINE",
"698 333 LINE",
"669 354 LINE",
"669 318 LINE SMOOTH",
"669 145 OFFCURVE",
"571 24 OFFCURVE",
"396 24 CURVE SMOOTH",
"194 24 OFFCURVE",
"95 197 OFFCURVE",
"95 370 CURVE SMOOTH",
"95 543 OFFCURVE",
"194 716 OFFCURVE",
"397 716 CURVE SMOOTH",
"636 716 OFFCURVE",
"662 517 OFFCURVE",
"662 517 CURVE",
"699 517 LINE",
"699 517 OFFCURVE",
"669 750 OFFCURVE",
"397 750 CURVE SMOOTH",
"173 750 OFFCURVE",
"60 560 OFFCURVE",
"60 370 CURVE SMOOTH",
"60 181 OFFCURVE",
"173 -10 OFFCURVE",
"396 -10 CURVE SMOOTH"
);
},
{
closed = 1;
nodes = (
"415 818 LINE",
"526 970 LINE",
"489 970 LINE",
"387 833 LINE",
"407 833 LINE",
"304 970 LINE",
"267 970 LINE",
"378 818 LINE"
);
}
);
width = 772;
},
{
anchors = (
{
name = bottom;
position = "{408, 0}";
},
{
name = top;
position = "{413, 970}";
}
);
layerId = "9D6BE6F2-0D0F-4D93-9FAF-A0B52FAE1934";
paths = (
{
closed = 1;
nodes = (
"589 -10 OFFCURVE",
"733 106 OFFCURVE",
"733 333 CURVE SMOOTH",
"733 384 LINE",
"419 384 LINE",
"419 303 LINE",
"672 303 LINE",
"639 338 LINE",
"639 318 LINE SMOOTH",
"639 172 OFFCURVE",
"553 79 OFFCURVE",
"410 79 CURVE SMOOTH",
"241 79 OFFCURVE",
"154 223 OFFCURVE",
"154 371 CURVE SMOOTH",
"154 514 OFFCURVE",
"238 661 OFFCURVE",
"414 661 CURVE SMOOTH",
"600 661 OFFCURVE",
"624 503 OFFCURVE",
"624 503 CURVE",
"723 503 LINE",
"723 503 OFFCURVE",
"693 750 OFFCURVE",
"413 750 CURVE SMOOTH",
"169 750 OFFCURVE",
"55 558 OFFCURVE",
"55 369 CURVE SMOOTH",
"55 180 OFFCURVE",
"169 -10 OFFCURVE",
"410 -10 CURVE SMOOTH"
);
},
{
closed = 1;
nodes = (
"454 805 LINE",
"575 972 LINE",
"489 972 LINE",
"387 828 LINE",
"439 828 LINE",
"338 972 LINE",
"252 972 LINE",
"373 805 LINE"
);
}
);
width = 783;
},
{
anchors = (
{
name = bottom;
position = "{428, 0}";
},
{
name = top;
position = "{419, 970}";
}
);
layerId = "D085834A-C5B8-45AD-B7CB-7C394966C9BB";
paths = (
{
closed = 1;
nodes = (
"619 -10 OFFCURVE",
"764 113 OFFCURVE",
"764 348 CURVE SMOOTH",
"764 409 LINE",
"400 409 LINE",
"400 261 LINE",
"624 261 LINE",
"578 313 LINE",
"578 305 LINE SMOOTH",
"578 218 OFFCURVE",
"525 157 OFFCURVE",
"423 157 CURVE SMOOTH",
"294 157 OFFCURVE",
"228 265 OFFCURVE",
"228 372 CURVE SMOOTH",
"228 477 OFFCURVE",
"292 582 OFFCURVE",
"419 582 CURVE SMOOTH",
"546 582 OFFCURVE",
"567 484 OFFCURVE",
"567 484 CURVE",
"757 484 LINE",
"757 484 OFFCURVE",
"728 750 OFFCURVE",
"419 750 CURVE SMOOTH",
"160 750 OFFCURVE",
"30 559 OFFCURVE",
"30 369 CURVE SMOOTH",
"30 179 OFFCURVE",
"159 -10 OFFCURVE",
"414 -10 CURVE SMOOTH"
);
},
{
closed = 1;
nodes = (
"492 800 LINE",
"627 989 LINE",
"486 989 LINE",
"394 849 LINE",
"444 850 LINE",
"351 989 LINE",
"210 989 LINE",
"345 800 LINE"
);
}
);
width = 795;
}
);
leftKerningGroup = O;
rightKerningGroup = G;
unicode = 01E6;
},
{
glyphname = Gdotaccent;
lastChange = "2021-03-14 09:41:58 +0000";
layers = (
{
anchors = (
{
name = bottom;
position = "{387, 0}";
},
{
name = top;
position = "{397, 957}";
}
);
layerId = "B45F0BEB-E489-4392-AE53-309DD1ADE040";
paths = (
{
closed = 1;
nodes = (
"602 -10 OFFCURVE",
"703 141 OFFCURVE",
"703 317 CURVE SMOOTH",
"703 366 LINE",
"409 366 LINE",
"409 333 LINE",
"698 333 LINE",
"669 354 LINE",
"669 318 LINE SMOOTH",
"669 145 OFFCURVE",
"571 24 OFFCURVE",
"396 24 CURVE SMOOTH",
"194 24 OFFCURVE",
"95 197 OFFCURVE",
"95 370 CURVE SMOOTH",
"95 543 OFFCURVE",
"194 716 OFFCURVE",
"397 716 CURVE SMOOTH",
"636 716 OFFCURVE",
"662 517 OFFCURVE",
"662 517 CURVE",
"699 517 LINE",
"699 517 OFFCURVE",
"669 750 OFFCURVE",
"397 750 CURVE SMOOTH",
"173 750 OFFCURVE",
"60 560 OFFCURVE",
"60 370 CURVE SMOOTH",
"60 181 OFFCURVE",
"173 -10 OFFCURVE",
"396 -10 CURVE SMOOTH"
);
},
{
closed = 1;
nodes = (
"416.1 845.25 OFFCURVE",
"432.25 861.4 OFFCURVE",
"432.25 881.35 CURVE SMOOTH",
"432.25 900.35 OFFCURVE",
"416.1 916.5 OFFCURVE",
"396.15 916.5 CURVE SMOOTH",
"376.2 916.5 OFFCURVE",
"361 900.35 OFFCURVE",
"361 881.35 CURVE SMOOTH",
"361 861.4 OFFCURVE",
"376.2 845.25 OFFCURVE",
"396.15 845.25 CURVE SMOOTH"
);
}
);
width = 772;
},
{
anchors = (
{
name = bottom;
position = "{428, 0}";
},
{
name = top;
position = "{419, 1026}";
}
);
layerId = "D085834A-C5B8-45AD-B7CB-7C394966C9BB";
paths = (
{
closed = 1;
nodes = (
"619 -10 OFFCURVE",
"764 113 OFFCURVE",
"764 348 CURVE SMOOTH",
"764 409 LINE",
"400 409 LINE",
"400 261 LINE",
"624 261 LINE",
"578 313 LINE",
"578 305 LINE SMOOTH",
"578 218 OFFCURVE",
"525 157 OFFCURVE",
"423 157 CURVE SMOOTH",
"294 157 OFFCURVE",
"228 265 OFFCURVE",
"228 372 CURVE SMOOTH",
"228 477 OFFCURVE",
"292 582 OFFCURVE",
"419 582 CURVE SMOOTH",
"546 582 OFFCURVE",
"567 484 OFFCURVE",
"567 484 CURVE",
"757 484 LINE",
"757 484 OFFCURVE",
"728 750 OFFCURVE",
"419 750 CURVE SMOOTH",
"160 750 OFFCURVE",
"30 559 OFFCURVE",
"30 369 CURVE SMOOTH",
"30 179 OFFCURVE",
"159 -10 OFFCURVE",
"414 -10 CURVE SMOOTH"
);
},
{
closed = 1;
nodes = (
"482.1 792.5 OFFCURVE",
"528.3 839.75 OFFCURVE",
"528.3 896.45 CURVE SMOOTH",
"528.3 954.2 OFFCURVE",
"482.1 1000.4 OFFCURVE",
"419.4 1000.4 CURVE SMOOTH",
"355.6 1000.4 OFFCURVE",
"310.5 954.2 OFFCURVE",
"310.5 896.45 CURVE SMOOTH",
"310.5 839.75 OFFCURVE",
"355.6 792.5 OFFCURVE",
"419.4 792.5 CURVE SMOOTH"
);
}
);
width = 795;
},
{
anchors = (
{
name = bottom;
position = "{408, 0}";
},
{
name = top;
position = "{413, 957}";
}
);
layerId = "9D6BE6F2-0D0F-4D93-9FAF-A0B52FAE1934";
paths = (
{
closed = 1;
nodes = (
"589 -10 OFFCURVE",
"733 106 OFFCURVE",
"733 333 CURVE SMOOTH",
"733 384 LINE",
"419 384 LINE",
"419 303 LINE",
"672 303 LINE",
"639 338 LINE",
"639 318 LINE SMOOTH",
"639 172 OFFCURVE",
"553 79 OFFCURVE",
"410 79 CURVE SMOOTH",
"241 79 OFFCURVE",
"154 223 OFFCURVE",
"154 371 CURVE SMOOTH",
"154 514 OFFCURVE",
"238 661 OFFCURVE",
"414 661 CURVE SMOOTH",
"600 661 OFFCURVE",
"624 503 OFFCURVE",
"624 503 CURVE",
"723 503 LINE",
"723 503 OFFCURVE",
"693 750 OFFCURVE",
"413 750 CURVE SMOOTH",
"169 750 OFFCURVE",
"55 558 OFFCURVE",
"55 369 CURVE SMOOTH",
"55 180 OFFCURVE",
"169 -10 OFFCURVE",
"410 -10 CURVE SMOOTH"
);
},
{
closed = 1;
nodes = (
"448 840.5 OFFCURVE",
"474.6 868.05 OFFCURVE",
"474.6 902.25 CURVE SMOOTH",
"474.6 936.45 OFFCURVE",
"448 964 OFFCURVE",
"412.85 964 CURVE SMOOTH",
"376.75 964 OFFCURVE",
"351.1 936.45 OFFCURVE",
"351.1 902.25 CURVE SMOOTH",
"351.1 869 OFFCURVE",
"376.75 840.5 OFFCURVE",
"412.85 840.5 CURVE SMOOTH"
);
}
);
width = 783;
}
);
leftKerningGroup = O;
rightKerningGroup = G;
unicode = 0120;
},
{
glyphname = Gmacron;
lastChange = "2021-05-04 15:56:24 +0000";
layers = (
{
anchors = (
{
name = bottom;
position = "{387, 0}";
},
{
name = top;
position = "{397, 941}";
}
);
layerId = "B45F0BEB-E489-4392-AE53-309DD1ADE040";
paths = (
{
closed = 1;
nodes = (
"602 -10 OFFCURVE",
"703 141 OFFCURVE",
"703 317 CURVE SMOOTH",
"703 366 LINE",
"409 366 LINE",
"409 333 LINE",
"698 333 LINE",
"669 354 LINE",
"669 318 LINE SMOOTH",
"669 145 OFFCURVE",
"571 24 OFFCURVE",
"396 24 CURVE SMOOTH",
"194 24 OFFCURVE",
"95 197 OFFCURVE",
"95 370 CURVE SMOOTH",
"95 543 OFFCURVE",
"194 716 OFFCURVE",
"397 716 CURVE SMOOTH",
"636 716 OFFCURVE",
"662 517 OFFCURVE",
"662 517 CURVE",
"699 517 LINE",
"699 517 OFFCURVE",
"669 750 OFFCURVE",
"397 750 CURVE SMOOTH",
"173 750 OFFCURVE",
"60 560 OFFCURVE",
"60 370 CURVE SMOOTH",
"60 181 OFFCURVE",
"173 -10 OFFCURVE",
"396 -10 CURVE SMOOTH"
);
},
{
closed = 1;
nodes = (
"537 848 LINE",
"537 878 LINE",
"257 878 LINE",
"257 848 LINE"
);
}
);
width = 772;
},
{
anchors = (
{
name = bottom;
position = "{408, 0}";
},
{
name = top;
position = "{413, 941}";
}
);
layerId = "9D6BE6F2-0D0F-4D93-9FAF-A0B52FAE1934";
paths = (
{
closed = 1;
nodes = (
"589 -10 OFFCURVE",
"733 106 OFFCURVE",
"733 333 CURVE SMOOTH",
"733 384 LINE",
"419 384 LINE",
"419 303 LINE",
"672 303 LINE",
"639 338 LINE",
"639 318 LINE SMOOTH",
"639 172 OFFCURVE",
"553 79 OFFCURVE",
"410 79 CURVE SMOOTH",
"241 79 OFFCURVE",
"154 223 OFFCURVE",
"154 371 CURVE SMOOTH",
"154 514 OFFCURVE",
"238 661 OFFCURVE",
"414 661 CURVE SMOOTH",
"600 661 OFFCURVE",
"624 503 OFFCURVE",
"624 503 CURVE",
"723 503 LINE",
"723 503 OFFCURVE",
"693 750 OFFCURVE",
"413 750 CURVE SMOOTH",
"169 750 OFFCURVE",
"55 558 OFFCURVE",
"55 369 CURVE SMOOTH",
"55 180 OFFCURVE",
"169 -10 OFFCURVE",
"410 -10 CURVE SMOOTH"
);
},
{
closed = 1;
nodes = (
"565 836 LINE",
"565 908 LINE",
"261 908 LINE",
"261 836 LINE"
);
}
);
width = 783;
},
{
anchors = (
{
name = bottom;
position = "{428, 0}";
},
{
name = top;
position = "{419, 940}";
}
);
layerId = "D085834A-C5B8-45AD-B7CB-7C394966C9BB";
paths = (
{
closed = 1;
nodes = (
"619 -10 OFFCURVE",
"764 113 OFFCURVE",
"764 348 CURVE SMOOTH",
"764 409 LINE",
"400 409 LINE",
"400 261 LINE",
"624 261 LINE",
"578 313 LINE",
"578 305 LINE SMOOTH",
"578 218 OFFCURVE",
"525 157 OFFCURVE",
"423 157 CURVE SMOOTH",
"294 157 OFFCURVE",
"228 265 OFFCURVE",
"228 372 CURVE SMOOTH",
"228 477 OFFCURVE",
"292 582 OFFCURVE",
"419 582 CURVE SMOOTH",
"546 582 OFFCURVE",
"567 484 OFFCURVE",
"567 484 CURVE",
"757 484 LINE",
"757 484 OFFCURVE",
"728 750 OFFCURVE",
"419 750 CURVE SMOOTH",
"160 750 OFFCURVE",
"30 559 OFFCURVE",
"30 369 CURVE SMOOTH",
"30 179 OFFCURVE",
"159 -10 OFFCURVE",
"414 -10 CURVE SMOOTH"
);
},
{
closed = 1;
nodes = (
"589 818 LINE",
"589 920 LINE",
"249 920 LINE",
"249 818 LINE"
);
}
);
width = 795;
}
);
leftKerningGroup = O;
rightKerningGroup = G;
unicode = 1E20;
},
{
glyphname = H;
lastChange = "2021-05-14 08:51:38 +0000";
layers = (
{
anchors = (
{
name = bottom;
position = "{592, 0}";
},
{
name = ogonek;
position = "{688, 0}";
},
{
name = top;
position = "{592, 740}";
},
{
name = topleft;
position = "{466, 736}";
}
);
layerId = "D085834A-C5B8-45AD-B7CB-7C394966C9BB";
paths = (
{
closed = 1;
nodes = (
"252 0 LINE",
"252 740 LINE",
"60 740 LINE",
"60 0 LINE"
);
},
{
closed = 1;
nodes = (
"688 0 LINE",
"688 740 LINE",
"496 740 LINE",
"496 0 LINE"
);
},
{
closed = 1;
nodes = (
"596 298 LINE",
"596 462 LINE",
"168 462 LINE",
"168 298 LINE"
);
}
);
width = 748;
},
{
anchors = (
{
name = bottom;
position = "{549, 0}";
},
{
name = ogonek;
position = "{566, 0}";
},
{
name = top;
position = "{549, 740}";
},
{
name = topleft;
position = "{459, 740}";
}
);
layerId = "B45F0BEB-E489-4392-AE53-309DD1ADE040";
paths = (
{
closed = 1;
nodes = (
"125 0 LINE",
"125 740 LINE",
"90 740 LINE",
"90 0 LINE"
);
},
{
closed = 1;
nodes = (
"566 0 LINE",
"566 740 LINE",
"531 740 LINE",
"531 0 LINE"
);
},
{
closed = 1;
nodes = (
"540.946 374 LINE",
"540.946 406 LINE",
"117.983 406 LINE",
"117.983 374 LINE"
);
}
);
width = 656;
},
{
anchors = (
{
name = bottom;
position = "{580, 0}";
},
{
name = ogonek;
position = "{629, 0}";
},
{
name = top;
position = "{580, 740}";
},
{
name = topleft;
position = "{476, 700}";
}
);
layerId = "9D6BE6F2-0D0F-4D93-9FAF-A0B52FAE1934";
paths = (
{
closed = 1;
nodes = (
"178 0 LINE",
"178 740 LINE",
"80 740 LINE",
"80 0 LINE"
);
},
{
closed = 1;
nodes = (
"629 0 LINE",
"629 740 LINE",
"531 740 LINE",
"531 0 LINE"
);
},
{
closed = 1;
nodes = (
"543 331 LINE",
"543 419 LINE",
"97 419 LINE",
"97 331 LINE"
);
}
);
width = 709;
}
);
leftKerningGroup = l;
leftMetricsKey = l;
rightKerningGroup = l;
rightMetricsKey = l;
unicode = 0048;
},
{
glyphname = Hbar;
lastChange = "2021-05-14 08:51:38 +0000";
layers = (
{
anchors = (
{
name = bottom;
position = "{600, 0}";
},
{
name = ogonek;
position = "{617, 0}";
},
{
name = top;
position = "{600, 740}";
},
{
name = topleft;
position = "{510, 740}";
}
);
layerId = "B45F0BEB-E489-4392-AE53-309DD1ADE040";
paths = (
{
closed = 1;
nodes = (
"717 622 LINE",
"717 654 LINE",
"40 654 LINE",
"40 622 LINE"
);
},
{
closed = 1;
nodes = (
"176 0 LINE",
"176 740 LINE",
"141 740 LINE",
"141 0 LINE"
);
},
{
closed = 1;
nodes = (
"617 0 LINE",
"617 740 LINE",
"582 740 LINE",
"582 0 LINE"
);
},
{
closed = 1;
nodes = (
"592 374 LINE",
"592 406 LINE",
"169 406 LINE",
"169 374 LINE"
);
}
);
width = 757;
},
{
anchors = (
{
name = bottom;
position = "{614, 0}";
},
{
name = ogonek;
position = "{710, 0}";
},
{
name = top;
position = "{614, 740}";
},
{
name = topleft;
position = "{488, 736}";
}
);
layerId = "D085834A-C5B8-45AD-B7CB-7C394966C9BB";
paths = (
{
closed = 1;
nodes = (
"781 527 LINE",
"781 658 LINE",
"10 658 LINE",
"10 527 LINE"
);
},
{
closed = 1;
nodes = (
"274 0 LINE",
"274 740 LINE",
"82 740 LINE",
"82 0 LINE"
);
},
{
closed = 1;
nodes = (
"710 0 LINE",
"710 740 LINE",
"518 740 LINE",
"518 0 LINE"
);
},
{
closed = 1;
nodes = (
"618 298 LINE",
"618 462 LINE",
"190 462 LINE",
"190 298 LINE"
);
}
);
width = 791;
},
{
anchors = (
{
name = bottom;
position = "{623, 0}";
},
{
name = ogonek;
position = "{672, 0}";
},
{
name = top;
position = "{623, 740}";
},
{
name = topleft;
position = "{519, 700}";
}
);
layerId = "9D6BE6F2-0D0F-4D93-9FAF-A0B52FAE1934";
paths = (
{
closed = 1;
nodes = (
"745 579 LINE",
"745 667 LINE",
"30 667 LINE",
"30 579 LINE"
);
},
{
closed = 1;
nodes = (
"221 0 LINE",
"221 740 LINE",
"123 740 LINE",
"123 0 LINE"
);
},
{
closed = 1;
nodes = (
"672 0 LINE",
"672 740 LINE",
"574 740 LINE",
"574 0 LINE"
);
},
{
closed = 1;
nodes = (
"586 331 LINE",
"586 419 LINE",
"140 419 LINE",
"140 331 LINE"
);
}
);
width = 775;
}
);
leftMetricsKey = "=l-50";
rightMetricsKey = "=l-50";
unicode = 0126;
},
{
glyphname = I;
lastChange = "2021-05-14 08:51:20 +0000";
layers = (
{
anchors = (
{
name = bottom;
position = "{156, 0}";
},
{
name = ogonek;
position = "{252, 0}";
},
{
name = top;
position = "{156, 740}";
},
{
name = topleft;
position = "{30, 736}";
}
);
layerId = "D085834A-C5B8-45AD-B7CB-7C394966C9BB";
paths = (
{
closed = 1;
nodes = (
"252 0 LINE",
"252 740 LINE",
"60 740 LINE",
"60 0 LINE"
);
}
);
width = 312;
},
{
anchors = (
{
name = bottom;
position = "{108, 0}";
},
{
name = ogonek;
position = "{125, 0}";
},
{
name = top;
position = "{108, 740}";
},
{
name = topleft;
position = "{18, 740}";
}
);
layerId = "B45F0BEB-E489-4392-AE53-309DD1ADE040";
paths = (
{
closed = 1;
nodes = (
"125 0 LINE",
"125 740 LINE",
"90 740 LINE",
"90 0 LINE"
);
}
);
width = 215;
},
{
anchors = (
{
name = bottom;
position = "{129, 0}";
},
{
name = ogonek;
position = "{178, 0}";
},
{
name = top;
position = "{129, 740}";
},
{
name = topleft;
position = "{25, 700}";
}
);
layerId = "9D6BE6F2-0D0F-4D93-9FAF-A0B52FAE1934";
paths = (
{
closed = 1;
nodes = (
"178 0 LINE",
"178 740 LINE",
"80 740 LINE",
"80 0 LINE"
);
}
);
width = 258;
}
);
leftKerningGroup = l;
leftMetricsKey = l;
rightKerningGroup = l;
rightMetricsKey = l;
unicode = 0049;
},
{
glyphname = Iacute;
lastChange = "2021-03-14 09:41:58 +0000";
layers = (
{
anchors = (
{
name = bottom;
position = "{156, 0}";
},
{
name = ogonek;
position = "{252, 0}";
},
{
name = top;
position = "{221, 1008}";
},
{
name = topleft;
position = "{30, 736}";
}
);
layerId = "D085834A-C5B8-45AD-B7CB-7C394966C9BB";
paths = (
{
closed = 1;
nodes = (
"252 0 LINE",
"252 740 LINE",
"60 740 LINE",
"60 0 LINE"
);
},
{
closed = 1;
nodes = (
"338 989 LINE",
"168 989 LINE",
"91 810 LINE",
"224 809 LINE"
);
}
);
width = 312;
},
{
anchors = (
{
name = bottom;
position = "{108, 0}";
},
{
name = ogonek;
position = "{125, 0}";
},
{
name = top;
position = "{159, 980}";
},
{
name = topleft;
position = "{18, 740}";
}
);
layerId = "B45F0BEB-E489-4392-AE53-309DD1ADE040";
paths = (
{
closed = 1;
nodes = (
"125 0 LINE",
"125 740 LINE",
"90 740 LINE",
"90 0 LINE"
);
},
{
closed = 1;
nodes = (
"222 980 LINE",
"181 980 LINE",
"96 828 LINE",
"130 828 LINE"
);
}
);
width = 215;
},
{
anchors = (
{
name = bottom;
position = "{139, 0}";
},
{
name = ogonek;
position = "{188, 0}";
},
{
name = top;
position = "{192, 991}";
},
{
name = topleft;
position = "{35, 700}";
}
);
layerId = "9D6BE6F2-0D0F-4D93-9FAF-A0B52FAE1934";
paths = (
{
closed = 1;
nodes = (
"188 0 LINE",
"188 740 LINE",
"90 740 LINE",
"90 0 LINE"
);
},
{
closed = 1;
nodes = (
"282 1001 LINE",
"184 1001 LINE",
"98 821 LINE",
"179 820 LINE"
);
}
);
width = 278;
}
);
leftKerningGroup = l;
rightKerningGroup = l;
unicode = 00CD;
},
{
glyphname = Icircumflex;
lastChange = "2021-03-14 09:41:58 +0000";
layers = (
{
anchors = (
{
name = bottom;
position = "{108, 0}";
},
{
name = ogonek;
position = "{125, 0}";
},
{
name = top;
position = "{240, 859}";
},
{
name = topleft;
position = "{18, 740}";
}
);
layerId = "B45F0BEB-E489-4392-AE53-309DD1ADE040";
paths = (
{
closed = 1;
nodes = (
"125 0 LINE",
"125 740 LINE",
"90 740 LINE",
"90 0 LINE"
);
},
{
closed = 1;
nodes = (
"16 818 LINE",
"109 942 LINE",
"201 818 LINE",
"238 818 LINE",
"127 970 LINE",
"90 970 LINE",
"-21 818 LINE"
);
}
);
width = 215;
},
{
anchors = (
{
name = bottom;
position = "{156, 0}";
},
{
name = ogonek;
position = "{252, 0}";
},
{
name = top;
position = "{360, 890}";
},
{
name = topleft;
position = "{30, 736}";
}
);
layerId = "D085834A-C5B8-45AD-B7CB-7C394966C9BB";
paths = (
{
closed = 1;
nodes = (
"252 0 LINE",
"252 740 LINE",
"60 740 LINE",
"60 0 LINE"
);
},
{
closed = 1;
nodes = (
"89 799 LINE",
"157 901 LINE",
"224 799 LINE",
"365 799 LINE",
"230 988 LINE",
"83 988 LINE",
"-52 799 LINE"
);
}
);
width = 312;
},
{
anchors = (
{
name = bottom;
position = "{139, 0}";
},
{
name = ogonek;
position = "{188, 0}";
},
{
name = top;
position = "{292, 874}";
},
{
name = topleft;
position = "{35, 700}";
}
);
layerId = "9D6BE6F2-0D0F-4D93-9FAF-A0B52FAE1934";
paths = (
{
closed = 1;
nodes = (
"188 0 LINE",
"188 740 LINE",
"90 740 LINE",
"90 0 LINE"
);
},
{
closed = 1;
nodes = (
"64 816 LINE",
"139 923 LINE",
"215 816 LINE",
"301 816 LINE",
"180 983 LINE",
"99 983 LINE",
"-22 816 LINE"
);
}
);
width = 278;
}
);
leftKerningGroup = l;
rightKerningGroup = l;
unicode = 00CE;
},
{
glyphname = Idieresis;
lastChange = "2021-03-14 09:41:58 +0000";
layers = (
{
anchors = (
{
name = bottom;
position = "{108, 0}";
},
{
name = ogonek;
position = "{125, 0}";
},
{
name = top;
position = "{108, 912}";
},
{
name = topleft;
position = "{18, 740}";
}
);
layerId = "B45F0BEB-E489-4392-AE53-309DD1ADE040";
paths = (
{
closed = 1;
nodes = (
"125 0 LINE",
"125 740 LINE",
"90 740 LINE",
"90 0 LINE"
);
},
{
closed = 1;
nodes = (
"197.1 840.25 OFFCURVE",
"213.25 856.4 OFFCURVE",
"213.25 876.35 CURVE SMOOTH",
"213.25 895.35 OFFCURVE",
"197.1 911.5 OFFCURVE",
"177.15 911.5 CURVE SMOOTH",
"157.2 911.5 OFFCURVE",
"142 895.35 OFFCURVE",
"142 876.35 CURVE SMOOTH",
"142 856.4 OFFCURVE",
"157.2 840.25 OFFCURVE",
"177.15 840.25 CURVE SMOOTH"
);
},
{
closed = 1;
nodes = (
"58.1 840.25 OFFCURVE",
"74.25 856.4 OFFCURVE",
"74.25 876.35 CURVE SMOOTH",
"74.25 895.35 OFFCURVE",
"58.1 911.5 OFFCURVE",
"38.15 911.5 CURVE SMOOTH",
"18.2 911.5 OFFCURVE",
"3 895.35 OFFCURVE",
"3 876.35 CURVE SMOOTH",
"3 856.4 OFFCURVE",
"18.2 840.25 OFFCURVE",
"38.15 840.25 CURVE SMOOTH"
);
}
);
width = 215;
},
{
anchors = (
{
name = bottom;
position = "{156, 0}";
},
{
name = ogonek;
position = "{252, 0}";
},
{
name = top;
position = "{156, 983}";
},
{
name = topleft;
position = "{30, 736}";
}
);
layerId = "D085834A-C5B8-45AD-B7CB-7C394966C9BB";
paths = (
{
closed = 1;
nodes = (
"252 0 LINE",
"252 740 LINE",
"60 740 LINE",
"60 0 LINE"
);
},
{
closed = 1;
nodes = (
"339.974 787.55 OFFCURVE",
"383.402 831.965 OFFCURVE",
"383.402 885.263 CURVE SMOOTH",
"383.402 939.548 OFFCURVE",
"339.974 982.976 OFFCURVE",
"281.036 982.976 CURVE SMOOTH",
"221.064 982.976 OFFCURVE",
"178.67 939.548 OFFCURVE",
"178.67 885.263 CURVE SMOOTH",
"178.67 831.965 OFFCURVE",
"221.064 787.55 OFFCURVE",
"281.036 787.55 CURVE SMOOTH"
);
},
{
closed = 1;
nodes = (
"88.974 787.55 OFFCURVE",
"132.402 831.965 OFFCURVE",
"132.402 885.263 CURVE SMOOTH",
"132.402 939.548 OFFCURVE",
"88.974 982.976 OFFCURVE",
"30.036 982.976 CURVE SMOOTH",
"-29.936 982.976 OFFCURVE",
"-72.33 939.548 OFFCURVE",
"-72.33 885.263 CURVE SMOOTH",
"-72.33 831.965 OFFCURVE",
"-29.936 787.55 OFFCURVE",
"30.036 787.55 CURVE SMOOTH"
);
}
);
width = 312;
},
{
anchors = (
{
name = bottom;
position = "{139, 0}";
},
{
name = ogonek;
position = "{188, 0}";
},
{
name = top;
position = "{139, 944}";
},
{
name = topleft;
position = "{35, 700}";
}
);
layerId = "9D6BE6F2-0D0F-4D93-9FAF-A0B52FAE1934";
paths = (
{
closed = 1;
nodes = (
"188 0 LINE",
"188 740 LINE",
"90 740 LINE",
"90 0 LINE"
);
},
{
closed = 1;
nodes = (
"269 820.5 OFFCURVE",
"295.6 848.05 OFFCURVE",
"295.6 882.25 CURVE SMOOTH",
"295.6 916.45 OFFCURVE",
"269 944 OFFCURVE",
"233.85 944 CURVE SMOOTH",
"197.75 944 OFFCURVE",
"172.1 916.45 OFFCURVE",
"172.1 882.25 CURVE SMOOTH",
"172.1 849 OFFCURVE",
"197.75 820.5 OFFCURVE",
"233.85 820.5 CURVE SMOOTH"
);
},
{
closed = 1;
nodes = (
"79 820.5 OFFCURVE",
"105.6 848.05 OFFCURVE",
"105.6 882.25 CURVE SMOOTH",
"105.6 916.45 OFFCURVE",
"79 944 OFFCURVE",
"43.85 944 CURVE SMOOTH",
"7.75 944 OFFCURVE",
"-17.9 916.45 OFFCURVE",
"-17.9 882.25 CURVE SMOOTH",
"-17.9 849 OFFCURVE",
"7.75 820.5 OFFCURVE",
"43.85 820.5 CURVE SMOOTH"
);
}
);
width = 278;
}
);
leftKerningGroup = l;
rightKerningGroup = l;
unicode = 00CF;
},
{
glyphname = Idotaccent;
lastChange = "2021-03-14 09:41:58 +0000";
layers = (
{
anchors = (
{
name = bottom;
position = "{108, 0}";
},
{
name = ogonek;
position = "{125, 0}";
},
{
name = top;
position = "{108, 957}";
},
{
name = topleft;
position = "{18, 740}";
}
);
layerId = "B45F0BEB-E489-4392-AE53-309DD1ADE040";
paths = (
{
closed = 1;
nodes = (
"125 0 LINE",
"125 740 LINE",
"90 740 LINE",
"90 0 LINE"
);
},
{
closed = 1;
nodes = (
"127.1 845.25 OFFCURVE",
"143.25 861.4 OFFCURVE",
"143.25 881.35 CURVE SMOOTH",
"143.25 900.35 OFFCURVE",
"127.1 916.5 OFFCURVE",
"107.15 916.5 CURVE SMOOTH",
"87.2 916.5 OFFCURVE",
"72 900.35 OFFCURVE",
"72 881.35 CURVE SMOOTH",
"72 861.4 OFFCURVE",
"87.2 845.25 OFFCURVE",
"107.15 845.25 CURVE SMOOTH"
);
}
);
width = 215;
},
{
anchors = (
{
name = bottom;
position = "{156, 0}";
},
{
name = ogonek;
position = "{252, 0}";
},
{
name = top;
position = "{156, 1026}";
},
{
name = topleft;
position = "{30, 736}";
}
);
layerId = "D085834A-C5B8-45AD-B7CB-7C394966C9BB";
paths = (
{
closed = 1;
nodes = (
"252 0 LINE",
"252 740 LINE",
"60 740 LINE",
"60 0 LINE"
);
},
{
closed = 1;
nodes = (
"219.1 792.5 OFFCURVE",
"265.3 839.75 OFFCURVE",
"265.3 896.45 CURVE SMOOTH",
"265.3 954.2 OFFCURVE",
"219.1 1000.4 OFFCURVE",
"156.4 1000.4 CURVE SMOOTH",
"92.6 1000.4 OFFCURVE",
"47.5 954.2 OFFCURVE",
"47.5 896.45 CURVE SMOOTH",
"47.5 839.75 OFFCURVE",
"92.6 792.5 OFFCURVE",
"156.4 792.5 CURVE SMOOTH"
);
}
);
width = 312;
},
{
anchors = (
{
name = bottom;
position = "{139, 0}";
},
{
name = ogonek;
position = "{188, 0}";
},
{
name = top;
position = "{139, 957}";
},
{
name = topleft;
position = "{35, 700}";
}
);
layerId = "9D6BE6F2-0D0F-4D93-9FAF-A0B52FAE1934";
paths = (
{
closed = 1;
nodes = (
"188 0 LINE",
"188 740 LINE",
"90 740 LINE",
"90 0 LINE"
);
},
{
closed = 1;
nodes = (
"174 840.5 OFFCURVE",
"200.6 868.05 OFFCURVE",
"200.6 902.25 CURVE SMOOTH",
"200.6 936.45 OFFCURVE",
"174 964 OFFCURVE",
"138.85 964 CURVE SMOOTH",
"102.75 964 OFFCURVE",
"77.1 936.45 OFFCURVE",
"77.1 902.25 CURVE SMOOTH",
"77.1 869 OFFCURVE",
"102.75 840.5 OFFCURVE",
"138.85 840.5 CURVE SMOOTH"
);
}
);
width = 278;
}
);
leftKerningGroup = l;
rightKerningGroup = l;
unicode = 0130;
},
{
glyphname = Idotbelow;
lastChange = "2021-03-14 09:41:58 +0000";
layers = (
{
anchors = (
{
name = bottom;
position = "{156, -274}";
},
{
name = ogonek;
position = "{252, 0}";
},
{
name = top;
position = "{156, 740}";
},
{
name = topleft;
position = "{30, 736}";
}
);
layerId = "D085834A-C5B8-45AD-B7CB-7C394966C9BB";
paths = (
{
closed = 1;
nodes = (
"252 0 LINE",
"252 740 LINE",
"60 740 LINE",
"60 0 LINE"
);
},
{
closed = 1;
nodes = (
"206.9 -260 OFFCURVE",
"244.7 -219.5 OFFCURVE",
"244.7 -170.9 CURVE SMOOTH",
"244.7 -121.4 OFFCURVE",
"206.9 -81.8 OFFCURVE",
"155.6 -81.8 CURVE SMOOTH",
"103.4 -81.8 OFFCURVE",
"66.5 -121.4 OFFCURVE",
"66.5 -170.9 CURVE SMOOTH",
"66.5 -219.5 OFFCURVE",
"103.4 -260 OFFCURVE",
"155.6 -260 CURVE SMOOTH"
);
}
);
width = 312;
},
{
anchors = (
{
name = bottom;
position = "{108, -200}";
},
{
name = ogonek;
position = "{125, 0}";
},
{
name = top;
position = "{108, 740}";
},
{
name = topleft;
position = "{18, 740}";
}
);
layerId = "B45F0BEB-E489-4392-AE53-309DD1ADE040";
paths = (
{
closed = 1;
nodes = (
"125 0 LINE",
"125 740 LINE",
"90 740 LINE",
"90 0 LINE"
);
},
{
closed = 1;
nodes = (
"128 -192 OFFCURVE",
"145 -175 OFFCURVE",
"145 -154 CURVE SMOOTH",
"145 -134 OFFCURVE",
"128 -117 OFFCURVE",
"107 -117 CURVE SMOOTH",
"86 -117 OFFCURVE",
"70 -134 OFFCURVE",
"70 -154 CURVE SMOOTH",
"70 -175 OFFCURVE",
"86 -192 OFFCURVE",
"107 -192 CURVE SMOOTH"
);
}
);
width = 215;
},
{
anchors = (
{
name = bottom;
position = "{139, -250}";
},
{
name = ogonek;
position = "{188, 0}";
},
{
name = top;
position = "{139, 740}";
},
{
name = topleft;
position = "{35, 700}";
}
);
layerId = "9D6BE6F2-0D0F-4D93-9FAF-A0B52FAE1934";
paths = (
{
closed = 1;
nodes = (
"188 0 LINE",
"188 740 LINE",
"90 740 LINE",
"90 0 LINE"
);
},
{
closed = 1;
nodes = (
"176 -227 OFFCURVE",
"204 -198 OFFCURVE",
"204 -162 CURVE SMOOTH",
"204 -126 OFFCURVE",
"176 -97 OFFCURVE",
"139 -97 CURVE SMOOTH",
"101 -97 OFFCURVE",
"74 -126 OFFCURVE",
"74 -162 CURVE SMOOTH",
"74 -197 OFFCURVE",
"101 -227 OFFCURVE",
"139 -227 CURVE SMOOTH"
);
}
);
width = 278;
}
);
leftKerningGroup = l;
rightKerningGroup = l;
unicode = 1ECA;
},
{
glyphname = Igrave;
lastChange = "2021-03-14 09:41:58 +0000";
layers = (
{
anchors = (
{
name = bottom;
position = "{156, 0}";
},
{
name = ogonek;
position = "{252, 0}";
},
{
name = top;
position = "{81, 1050}";
},
{
name = topleft;
position = "{30, 736}";
}
);
layerId = "D085834A-C5B8-45AD-B7CB-7C394966C9BB";
paths = (
{
closed = 1;
nodes = (
"252 0 LINE",
"252 740 LINE",
"60 740 LINE",
"60 0 LINE"
);
},
{
closed = 1;
nodes = (
"224 810 LINE",
"147 989 LINE",
"-23 989 LINE",
"91 809 LINE"
);
}
);
width = 312;
},
{
anchors = (
{
name = bottom;
position = "{108, 0}";
},
{
name = ogonek;
position = "{125, 0}";
},
{
name = top;
position = "{59, 982}";
},
{
name = topleft;
position = "{18, 740}";
}
);
layerId = "B45F0BEB-E489-4392-AE53-309DD1ADE040";
paths = (
{
closed = 1;
nodes = (
"125 0 LINE",
"125 740 LINE",
"90 740 LINE",
"90 0 LINE"
);
},
{
closed = 1;
nodes = (
"122 828 LINE",
"37 980 LINE",
"-4 980 LINE",
"88 828 LINE"
);
}
);
width = 215;
},
{
anchors = (
{
name = bottom;
position = "{139, 0}";
},
{
name = ogonek;
position = "{188, 0}";
},
{
name = top;
position = "{86, 1009}";
},
{
name = topleft;
position = "{35, 700}";
}
);
layerId = "9D6BE6F2-0D0F-4D93-9FAF-A0B52FAE1934";
paths = (
{
closed = 1;
nodes = (
"188 0 LINE",
"188 740 LINE",
"90 740 LINE",
"90 0 LINE"
);
},
{
closed = 1;
nodes = (
"184 821 LINE",
"98 1001 LINE",
"0 1001 LINE",
"103 820 LINE"
);
}
);
width = 278;
}
);
leftKerningGroup = l;
rightKerningGroup = l;
unicode = 00CC;
},
{
glyphname = Ihookabove;
lastChange = "2021-03-14 09:41:58 +0000";
layers = (
{
anchors = (
{
name = bottom;
position = "{156, 0}";
},
{
name = ogonek;
position = "{252, 0}";
},
{
name = top;
position = "{161, 1071}";
},
{
name = topleft;
position = "{30, 736}";
}
);
layerId = "D085834A-C5B8-45AD-B7CB-7C394966C9BB";
paths = (
{
closed = 1;
nodes = (
"252 0 LINE",
"252 740 LINE",
"60 740 LINE",
"60 0 LINE"
);
},
{
closed = 1;
nodes = (
"208 795 LINE",
"208 866 LINE",
"170 801 LINE",
"213 825 LINE SMOOTH",
"257 849 OFFCURVE",
"299 878 OFFCURVE",
"299 932 CURVE SMOOTH",
"299 993 OFFCURVE",
"245 1046 OFFCURVE",
"157 1046 CURVE SMOOTH",
"59 1046 OFFCURVE",
"21 976 OFFCURVE",
"23 920 CURVE",
"124 920 LINE",
"124 920 OFFCURVE",
"124 957 OFFCURVE",
"159 957 CURVE SMOOTH",
"178 957 OFFCURVE",
"191 944 OFFCURVE",
"191 928 CURVE SMOOTH",
"191 906 OFFCURVE",
"175 896 OFFCURVE",
"150 883 CURVE SMOOTH",
"134 875 LINE SMOOTH",
"114 865 OFFCURVE",
"106 848 OFFCURVE",
"106 828 CURVE SMOOTH",
"106 795 LINE"
);
}
);
width = 312;
},
{
anchors = (
{
name = bottom;
position = "{108, 0}";
},
{
name = ogonek;
position = "{125, 0}";
},
{
name = top;
position = "{114, 1012}";
},
{
name = topleft;
position = "{18, 740}";
}
);
layerId = "B45F0BEB-E489-4392-AE53-309DD1ADE040";
paths = (
{
closed = 1;
nodes = (
"125 0 LINE",
"125 740 LINE",
"90 740 LINE",
"90 0 LINE"
);
},
{
closed = 1;
nodes = (
"124 814 LINE",
"124 865 LINE",
"101 838 LINE",
"125 849 LINE SMOOTH",
"180 874 OFFCURVE",
"198 904 OFFCURVE",
"198 934 CURVE SMOOTH",
"198 975 OFFCURVE",
"167 1005 OFFCURVE",
"116 1005 CURVE SMOOTH",
"65 1005 OFFCURVE",
"34 975 OFFCURVE",
"34 928 CURVE",
"63 928 LINE",
"63 951 OFFCURVE",
"74 977 OFFCURVE",
"116 977 CURVE SMOOTH",
"155 977 OFFCURVE",
"168 953 OFFCURVE",
"168 933 CURVE SMOOTH",
"168 907 OFFCURVE",
"149 888 OFFCURVE",
"121 874 CURVE SMOOTH",
"109 868 LINE SMOOTH",
"100 864 OFFCURVE",
"96 856 OFFCURVE",
"96 846 CURVE SMOOTH",
"96 814 LINE"
);
}
);
width = 215;
},
{
anchors = (
{
name = bottom;
position = "{139, 0}";
},
{
name = ogonek;
position = "{188, 0}";
},
{
name = top;
position = "{145, 1038}";
},
{
name = topleft;
position = "{35, 700}";
}
);
layerId = "9D6BE6F2-0D0F-4D93-9FAF-A0B52FAE1934";
paths = (
{
closed = 1;
nodes = (
"188 0 LINE",
"188 740 LINE",
"90 740 LINE",
"90 0 LINE"
);
},
{
closed = 1;
nodes = (
"172 813 LINE",
"172 873 LINE",
"142 828 LINE",
"176 844 LINE SMOOTH",
"232 871 OFFCURVE",
"256 903 OFFCURVE",
"256 941 CURVE SMOOTH",
"256 992 OFFCURVE",
"212 1034 OFFCURVE",
"142 1034 CURVE SMOOTH",
"65 1034 OFFCURVE",
"31 982 OFFCURVE",
"32 933 CURVE",
"98 933 LINE",
"98 944 OFFCURVE",
"103 976 OFFCURVE",
"143 976 CURVE SMOOTH",
"173 976 OFFCURVE",
"187 957 OFFCURVE",
"187 939 CURVE SMOOTH",
"187 920 OFFCURVE",
"173 904 OFFCURVE",
"141 888 CURVE SMOOTH",
"127 881 LINE SMOOTH",
"111 873 OFFCURVE",
"107 858 OFFCURVE",
"107 845 CURVE SMOOTH",
"107 813 LINE"
);
}
);
width = 278;
}
);
leftKerningGroup = l;
rightKerningGroup = l;
unicode = 1EC8;
},
{
glyphname = Imacron;
lastChange = "2021-05-04 15:56:47 +0000";
layers = (
{
anchors = (
{
name = bottom;
position = "{108, 0}";
},
{
name = ogonek;
position = "{125, 0}";
},
{
name = top;
position = "{108, 941}";
},
{
name = topleft;
position = "{18, 740}";
}
);
layerId = "B45F0BEB-E489-4392-AE53-309DD1ADE040";
paths = (
{
closed = 1;
nodes = (
"125 0 LINE",
"125 740 LINE",
"90 740 LINE",
"90 0 LINE"
);
},
{
closed = 1;
nodes = (
"248 848 LINE",
"248 878 LINE",
"-32 878 LINE",
"-32 848 LINE"
);
}
);
width = 215;
},
{
anchors = (
{
name = bottom;
position = "{156, 0}";
},
{
name = ogonek;
position = "{252, 0}";
},
{
name = top;
position = "{156, 940}";
},
{
name = topleft;
position = "{30, 736}";
}
);
layerId = "D085834A-C5B8-45AD-B7CB-7C394966C9BB";
paths = (
{
closed = 1;
nodes = (
"252 0 LINE",
"252 740 LINE",
"60 740 LINE",
"60 0 LINE"
);
},
{
closed = 1;
nodes = (
"326 818 LINE",
"326 920 LINE",
"-14 920 LINE",
"-14 818 LINE"
);
}
);
width = 312;
},
{
anchors = (
{
name = bottom;
position = "{139, 0}";
},
{
name = ogonek;
position = "{188, 0}";
},
{
name = top;
position = "{139, 941}";
},
{
name = topleft;
position = "{35, 700}";
}
);
layerId = "9D6BE6F2-0D0F-4D93-9FAF-A0B52FAE1934";
paths = (
{
closed = 1;
nodes = (
"188 0 LINE",
"188 740 LINE",
"90 740 LINE",
"90 0 LINE"
);
},
{
closed = 1;
nodes = (
"291 836 LINE",
"291 908 LINE",
"-13 908 LINE",
"-13 836 LINE"
);
}
);
width = 278;
}
);
leftKerningGroup = l;
rightKerningGroup = l;
unicode = 012A;
},
{
glyphname = Iogonek;
lastChange = "2021-03-14 09:41:58 +0000";
layers = (
{
anchors = (
{
name = bottom;
position = "{108, 0}";
},
{
name = ogonek;
position = "{125, 0}";
},
{
name = top;
position = "{108, 740}";
},
{
name = topleft;
position = "{18, 740}";
}
);
layerId = "B45F0BEB-E489-4392-AE53-309DD1ADE040";
paths = (
{
closed = 1;
nodes = (
"125 0 LINE",
"125 740 LINE",
"90 740 LINE",
"90 0 LINE"
);
},
{
closed = 1;
nodes = (
"149 -149 OFFCURVE",
"169 -143 OFFCURVE",
"169 -143 CURVE",
"169 -115 LINE",
"169 -115 OFFCURVE",
"149 -120 OFFCURVE",
"129 -120 CURVE SMOOTH",
"88 -120 OFFCURVE",
"67 -100 OFFCURVE",
"67 -71 CURVE SMOOTH",
"67 -23 OFFCURVE",
"125 0 OFFCURVE",
"125 0 CURVE",
"105 12 LINE",
"105 12 OFFCURVE",
"36 -13 OFFCURVE",
"36 -75 CURVE SMOOTH",
"36 -119 OFFCURVE",
"70 -149 OFFCURVE",
"125 -149 CURVE SMOOTH"
);
}
);
width = 215;
},
{
anchors = (
{
name = bottom;
position = "{156, 0}";
},
{
name = ogonek;
position = "{252, 0}";
},
{
name = top;
position = "{156, 740}";
},
{
name = topleft;
position = "{30, 736}";
}
);
layerId = "D085834A-C5B8-45AD-B7CB-7C394966C9BB";
paths = (
{
closed = 1;
nodes = (
"252 0 LINE",
"252 740 LINE",
"60 740 LINE",
"60 0 LINE"
);
},
{
closed = 1;
nodes = (
"261 -194 OFFCURVE",
"287 -189 OFFCURVE",
"287 -189 CURVE",
"287 -87 LINE",
"287 -87 OFFCURVE",
"271 -90 OFFCURVE",
"255 -90 CURVE SMOOTH",
"217 -90 OFFCURVE",
"203 -73 OFFCURVE",
"203 -55 CURVE SMOOTH",
"203 -19 OFFCURVE",
"252 0 OFFCURVE",
"252 0 CURVE",
"193 29 LINE",
"193 29 OFFCURVE",
"72 9 OFFCURVE",
"72 -87 CURVE SMOOTH",
"72 -144 OFFCURVE",
"116 -194 OFFCURVE",
"226 -194 CURVE SMOOTH"
);
}
);
width = 312;
},
{
anchors = (
{
name = bottom;
position = "{139, 0}";
},
{
name = ogonek;
position = "{188, 0}";
},
{
name = top;
position = "{139, 740}";
},
{
name = topleft;
position = "{35, 700}";
}
);
layerId = "9D6BE6F2-0D0F-4D93-9FAF-A0B52FAE1934";
paths = (
{
closed = 1;
nodes = (
"188 0 LINE",
"188 740 LINE",
"90 740 LINE",
"90 0 LINE"
);
},
{
closed = 1;
nodes = (
"205 -170 OFFCURVE",
"228 -164 OFFCURVE",
"228 -164 CURVE",
"228 -101 LINE",
"228 -101 OFFCURVE",
"209 -106 OFFCURVE",
"191 -106 CURVE SMOOTH",
"153 -106 OFFCURVE",
"134 -87 OFFCURVE",
"134 -63 CURVE SMOOTH",
"134 -21 OFFCURVE",
"188 0 OFFCURVE",
"188 0 CURVE",
"150 21 LINE",
"150 21 OFFCURVE",
"56 -2 OFFCURVE",
"56 -80 CURVE SMOOTH",
"56 -130 OFFCURVE",
"96 -170 OFFCURVE",
"175 -170 CURVE SMOOTH"
);
}
);
width = 278;
}
);
leftKerningGroup = l;
rightKerningGroup = l;
unicode = 012E;
},
{
glyphname = Itilde;
lastChange = "2021-03-14 09:41:58 +0000";
layers = (
{
anchors = (
{
name = bottom;
position = "{156, 0}";
},
{
name = ogonek;
position = "{252, 0}";
},
{
name = top;
position = "{156, 972}";
},
{
name = topleft;
position = "{30, 736}";
}
);
layerId = "D085834A-C5B8-45AD-B7CB-7C394966C9BB";
paths = (
{
closed = 1;
nodes = (
"252 0 LINE",
"252 740 LINE",
"60 740 LINE",
"60 0 LINE"
);
},
{
closed = 1;
nodes = (
"325 822 OFFCURVE",
"342 912 OFFCURVE",
"342 981 CURVE",
"249 981 LINE",
"249 947 OFFCURVE",
"243 928 OFFCURVE",
"224 928 CURVE SMOOTH",
"190 928 OFFCURVE",
"158 987 OFFCURVE",
"85 987 CURVE SMOOTH",
"-6 987 OFFCURVE",
"-23 897 OFFCURVE",
"-23 828 CURVE",
"70 828 LINE",
"70 862 OFFCURVE",
"76 881 OFFCURVE",
"96 881 CURVE SMOOTH",
"132 881 OFFCURVE",
"161 822 OFFCURVE",
"234 822 CURVE SMOOTH"
);
}
);
width = 312;
},
{
anchors = (
{
name = bottom;
position = "{108, 0}";
},
{
name = ogonek;
position = "{125, 0}";
},
{
name = top;
position = "{108, 935}";
},
{
name = topleft;
position = "{18, 740}";
}
);
layerId = "B45F0BEB-E489-4392-AE53-309DD1ADE040";
paths = (
{
closed = 1;
nodes = (
"125 0 LINE",
"125 740 LINE",
"90 740 LINE",
"90 0 LINE"
);
},
{
closed = 1;
nodes = (
"213 831 OFFCURVE",
"233 878 OFFCURVE",
"233 936 CURVE",
"203 936 LINE",
"203 889 OFFCURVE",
"193 860 OFFCURVE",
"168 860 CURVE SMOOTH",
"128 860 OFFCURVE",
"114 941 OFFCURVE",
"50 941 CURVE SMOOTH",
"3 941 OFFCURVE",
"-16 894 OFFCURVE",
"-16 836 CURVE",
"14 836 LINE",
"14 884 OFFCURVE",
"24 912 OFFCURVE",
"50 912 CURVE SMOOTH",
"93 912 OFFCURVE",
"108 831 OFFCURVE",
"168 831 CURVE SMOOTH"
);
}
);
width = 215;
},
{
anchors = (
{
name = bottom;
position = "{139, 0}";
},
{
name = ogonek;
position = "{188, 0}";
},
{
name = top;
position = "{139, 952}";
},
{
name = topleft;
position = "{35, 700}";
}
);
layerId = "9D6BE6F2-0D0F-4D93-9FAF-A0B52FAE1934";
paths = (
{
closed = 1;
nodes = (
"188 0 LINE",
"188 740 LINE",
"90 740 LINE",
"90 0 LINE"
);
},
{
closed = 1;
nodes = (
"277 827 OFFCURVE",
"296 895 OFFCURVE",
"296 957 CURVE",
"232 957 LINE",
"232 920 OFFCURVE",
"222 897 OFFCURVE",
"201 897 CURVE SMOOTH",
"165 897 OFFCURVE",
"145 962 OFFCURVE",
"72 962 CURVE SMOOTH",
"1 962 OFFCURVE",
"-18 895 OFFCURVE",
"-18 833 CURVE",
"46 833 LINE",
"46 869 OFFCURVE",
"55 893 OFFCURVE",
"78 893 CURVE SMOOTH",
"115 893 OFFCURVE",
"135 827 OFFCURVE",
"207 827 CURVE SMOOTH"
);
}
);
width = 278;
}
);
leftKerningGroup = l;
rightKerningGroup = l;
unicode = 0128;
},
{
glyphname = J;
lastChange = "2021-05-14 08:51:38 +0000";
layers = (
{
layerId = "D085834A-C5B8-45AD-B7CB-7C394966C9BB";
paths = (
{
closed = 1;
nodes = (
"375 -10 OFFCURVE",
"448 130 OFFCURVE",
"448 286 CURVE SMOOTH",
"448 740 LINE",
"258 740 LINE",
"258 291 LINE SMOOTH",
"258 186 OFFCURVE",
"204 152 OFFCURVE",
"119 152 CURVE SMOOTH",
"77 152 OFFCURVE",
"40 157 OFFCURVE",
"40 157 CURVE",
"40 0 LINE",
"40 0 OFFCURVE",
"91 -10 OFFCURVE",
"158 -10 CURVE SMOOTH"
);
}
);
width = 508;
},
{
layerId = "B45F0BEB-E489-4392-AE53-309DD1ADE040";
paths = (
{
closed = 1;
nodes = (
"245 -10 OFFCURVE",
"322 63 OFFCURVE",
"322 207 CURVE SMOOTH",
"322 740 LINE",
"287 740 LINE",
"287 207 LINE SMOOTH",
"287 86 OFFCURVE",
"226 23 OFFCURVE",
"109 23 CURVE SMOOTH",
"71 23 OFFCURVE",
"30 29 OFFCURVE",
"30 29 CURVE",
"30 -4 LINE",
"30 -4 OFFCURVE",
"70 -10 OFFCURVE",
"109 -10 CURVE SMOOTH"
);
}
);
width = 412;
},
{
layerId = "9D6BE6F2-0D0F-4D93-9FAF-A0B52FAE1934";
paths = (
{
closed = 1;
nodes = (
"297 -10 OFFCURVE",
"385 90 OFFCURVE",
"385 248 CURVE SMOOTH",
"385 740 LINE",
"287 740 LINE",
"287 248 LINE SMOOTH",
"287 124 OFFCURVE",
"221 79 OFFCURVE",
"119 79 CURVE SMOOTH",
"85 79 OFFCURVE",
"40 84 OFFCURVE",
"40 84 CURVE",
"40 -3 LINE",
"40 -3 OFFCURVE",
"86 -10 OFFCURVE",
"131 -10 CURVE SMOOTH"
);
}
);
width = 465;
}
);
leftKerningGroup = J;
rightKerningGroup = U;
rightMetricsKey = l;
unicode = 004A;
},
{
glyphname = K;
lastChange = "2021-05-14 08:51:38 +0000";
layers = (
{
anchors = (
{
name = bottom;
position = "{370, 0}";
},
{
name = ogonek;
position = "{252, 0}";
},
{
name = top;
position = "{370, 740}";
},
{
name = topleft;
position = "{30, 736}";
}
);
layerId = "D085834A-C5B8-45AD-B7CB-7C394966C9BB";
paths = (
{
closed = 1;
nodes = (
"720 0 LINE",
"407 412 LINE",
"362 307 LINE",
"711 740 LINE",
"479 740 LINE",
"201 378 LINE",
"479 0 LINE"
);
},
{
closed = 1;
nodes = (
"252 0 LINE",
"252 740 LINE",
"60 740 LINE",
"60 0 LINE"
);
}
);
width = 740;
},
{
anchors = (
{
name = bottom;
position = "{307, 0}";
},
{
name = ogonek;
position = "{125, 0}";
},
{
name = top;
position = "{307, 740}";
},
{
name = topleft;
position = "{18, 740}";
}
);
layerId = "B45F0BEB-E489-4392-AE53-309DD1ADE040";
paths = (
{
closed = 1;
nodes = (
"558 0 LINE",
"135 402 LINE",
"131 359 LINE",
"542 739 LINE",
"492 739 LINE",
"107 381 LINE",
"508 0 LINE"
);
},
{
closed = 1;
nodes = (
"125 0 LINE",
"125 740 LINE",
"90 740 LINE",
"90 0 LINE"
);
}
);
width = 603;
},
{
anchors = (
{
name = bottom;
position = "{325, 0}";
},
{
name = ogonek;
position = "{178, 0}";
},
{
name = top;
position = "{325, 740}";
},
{
name = topleft;
position = "{25, 700}";
}
);
layerId = "9D6BE6F2-0D0F-4D93-9FAF-A0B52FAE1934";
paths = (
{
closed = 1;
nodes = (
"641 0 LINE",
"259 406 LINE",
"235 338 LINE",
"626 739 LINE",
"498 739 LINE",
"153 380 LINE",
"509 0 LINE"
);
},
{
closed = 1;
nodes = (
"178 0 LINE",
"178 740 LINE",
"80 740 LINE",
"80 0 LINE"
);
}
);
width = 679;
}
);
leftKerningGroup = l;
leftMetricsKey = l;
rightKerningGroup = K;
unicode = 004B;
},
{
glyphname = L;
lastChange = "2021-05-14 08:51:38 +0000";
layers = (
{
anchors = (
{
name = bottom;
position = "{318, 0}";
},
{
name = center;
position = "{318, 370}";
},
{
name = ogonek;
position = "{252, 0}";
},
{
name = top;
position = "{156, 740}";
},
{
name = topleft;
position = "{30, 736}";
},
{
name = topright;
position = "{616, 740}";
}
);
layerId = "D085834A-C5B8-45AD-B7CB-7C394966C9BB";
paths = (
{
closed = 1;
nodes = (
"601 0 LINE",
"601 166 LINE",
"60 166 LINE",
"60 0 LINE"
);
},
{
closed = 1;
nodes = (
"252 0 LINE",
"252 740 LINE",
"60 740 LINE",
"60 0 LINE"
);
}
);
width = 656;
},
{
anchors = (
{
name = bottom;
position = "{275, 0}";
},
{
name = center;
position = "{275, 350}";
},
{
name = ogonek;
position = "{125, 0}";
},
{
name = top;
position = "{107, 740}";
},
{
name = topleft;
position = "{18, 740}";
},
{
name = topright;
position = "{517, 700}";
}
);
layerId = "B45F0BEB-E489-4392-AE53-309DD1ADE040";
paths = (
{
closed = 1;
nodes = (
"523 0 LINE",
"523 34 LINE",
"93 34 LINE",
"93 0 LINE"
);
},
{
closed = 1;
nodes = (
"125 0 LINE",
"125 740 LINE",
"90 740 LINE",
"90 0 LINE"
);
}
);
width = 598;
},
{
anchors = (
{
name = bottom;
position = "{321, 0}";
},
{
name = center;
position = "{321, 350}";
},
{
name = ogonek;
position = "{178, 0}";
},
{
name = top;
position = "{138, 740}";
},
{
name = topleft;
position = "{25, 700}";
},
{
name = topright;
position = "{594, 700}";
}
);
layerId = "9D6BE6F2-0D0F-4D93-9FAF-A0B52FAE1934";
paths = (
{
closed = 1;
nodes = (
"559 0 LINE",
"559 86 LINE",
"95 86 LINE",
"95 0 LINE"
);
},
{
closed = 1;
nodes = (
"178 0 LINE",
"178 740 LINE",
"80 740 LINE",
"80 0 LINE"
);
}
);
width = 624;
}
);
leftKerningGroup = l;
leftMetricsKey = l;
rightKerningGroup = L;
rightMetricsKey = E;
unicode = 004C;
},
{
glyphname = Lacute;
lastChange = "2021-03-14 09:41:58 +0000";
layers = (
{
anchors = (
{
name = bottom;
position = "{275, 0}";
},
{
name = center;
position = "{275, 350}";
},
{
name = ogonek;
position = "{125, 0}";
},
{
name = top;
position = "{158, 980}";
},
{
name = topleft;
position = "{18, 740}";
},
{
name = topright;
position = "{517, 700}";
}
);
layerId = "B45F0BEB-E489-4392-AE53-309DD1ADE040";
paths = (
{
closed = 1;
nodes = (
"523 0 LINE",
"523 34 LINE",
"93 34 LINE",
"93 0 LINE"
);
},
{
closed = 1;
nodes = (
"125 0 LINE",
"125 740 LINE",
"90 740 LINE",
"90 0 LINE"
);
},
{
closed = 1;
nodes = (
"221 980 LINE",
"180 980 LINE",
"95 828 LINE",
"129 828 LINE"
);
}
);
width = 598;
},
{
anchors = (
{
name = bottom;
position = "{318, 0}";
},
{
name = center;
position = "{318, 370}";
},
{
name = ogonek;
position = "{252, 0}";
},
{
name = top;
position = "{221, 1008}";
},
{
name = topleft;
position = "{30, 736}";
},
{
name = topright;
position = "{616, 740}";
}
);
layerId = "D085834A-C5B8-45AD-B7CB-7C394966C9BB";
paths = (
{
closed = 1;
nodes = (
"601 0 LINE",
"601 166 LINE",
"60 166 LINE",
"60 0 LINE"
);
},
{
closed = 1;
nodes = (
"252 0 LINE",
"252 740 LINE",
"60 740 LINE",
"60 0 LINE"
);
},
{
closed = 1;
nodes = (
"338 989 LINE",
"168 989 LINE",
"91 810 LINE",
"224 809 LINE"
);
}
);
width = 656;
},
{
anchors = (
{
name = bottom;
position = "{331, 0}";
},
{
name = center;
position = "{331, 350}";
},
{
name = ogonek;
position = "{188, 0}";
},
{
name = top;
position = "{201, 991}";
},
{
name = topleft;
position = "{35, 700}";
},
{
name = topright;
position = "{604, 700}";
}
);
layerId = "9D6BE6F2-0D0F-4D93-9FAF-A0B52FAE1934";
paths = (
{
closed = 1;
nodes = (
"569 0 LINE",
"569 86 LINE",
"105 86 LINE",
"105 0 LINE"
);
},
{
closed = 1;
nodes = (
"188 0 LINE",
"188 740 LINE",
"90 740 LINE",
"90 0 LINE"
);
},
{
closed = 1;
nodes = (
"291 1001 LINE",
"193 1001 LINE",
"107 821 LINE",
"188 820 LINE"
);
}
);
width = 634;
}
);
leftKerningGroup = l;
rightKerningGroup = L;
unicode = 0139;
},
{
glyphname = Lcaron;
lastChange = "2021-03-14 09:41:58 +0000";
layers = (
{
anchors = (
{
name = bottom;
position = "{275, 0}";
},
{
name = center;
position = "{275, 350}";
},
{
name = ogonek;
position = "{125, 0}";
},
{
name = top;
position = "{107, 970}";
},
{
name = topleft;
position = "{18, 740}";
},
{
name = topright;
position = "{517, 700}";
}
);
layerId = "B45F0BEB-E489-4392-AE53-309DD1ADE040";
paths = (
{
closed = 1;
nodes = (
"523 0 LINE",
"523 34 LINE",
"93 34 LINE",
"93 0 LINE"
);
},
{
closed = 1;
nodes = (
"125 0 LINE",
"125 740 LINE",
"90 740 LINE",
"90 0 LINE"
);
},
{
closed = 1;
nodes = (
"125 818 LINE",
"236 970 LINE",
"199 970 LINE",
"97 833 LINE",
"117 833 LINE",
"14 970 LINE",
"-23 970 LINE",
"88 818 LINE"
);
}
);
width = 598;
},
{
anchors = (
{
name = bottom;
position = "{318, 0}";
},
{
name = center;
position = "{318, 370}";
},
{
name = ogonek;
position = "{252, 0}";
},
{
name = top;
position = "{156, 970}";
},
{
name = topleft;
position = "{30, 736}";
},
{
name = topright;
position = "{616, 740}";
}
);
layerId = "D085834A-C5B8-45AD-B7CB-7C394966C9BB";
paths = (
{
closed = 1;
nodes = (
"601 0 LINE",
"601 166 LINE",
"60 166 LINE",
"60 0 LINE"
);
},
{
closed = 1;
nodes = (
"252 0 LINE",
"252 740 LINE",
"60 740 LINE",
"60 0 LINE"
);
},
{
closed = 1;
nodes = (
"229 800 LINE",
"364 989 LINE",
"223 989 LINE",
"131 849 LINE",
"181 850 LINE",
"88 989 LINE",
"-53 989 LINE",
"82 800 LINE"
);
}
);
width = 656;
},
{
anchors = (
{
name = bottom;
position = "{331, 0}";
},
{
name = center;
position = "{331, 350}";
},
{
name = ogonek;
position = "{188, 0}";
},
{
name = top;
position = "{148, 970}";
},
{
name = topleft;
position = "{35, 700}";
},
{
name = topright;
position = "{604, 700}";
}
);
layerId = "9D6BE6F2-0D0F-4D93-9FAF-A0B52FAE1934";
paths = (
{
closed = 1;
nodes = (
"569 0 LINE",
"569 86 LINE",
"105 86 LINE",
"105 0 LINE"
);
},
{
closed = 1;
nodes = (
"188 0 LINE",
"188 740 LINE",
"90 740 LINE",
"90 0 LINE"
);
},
{
closed = 1;
nodes = (
"189 805 LINE",
"310 972 LINE",
"224 972 LINE",
"122 828 LINE",
"174 828 LINE",
"73 972 LINE",
"-13 972 LINE",
"108 805 LINE"
);
}
);
width = 634;
}
);
leftKerningGroup = l;
rightKerningGroup = L;
unicode = 013D;
},
